<svg width="397" height="547" viewBox="0 0 397 547" fill="none" xmlns="http://www.w3.org/2000/svg">
<path d="M376.728 189.59C376.737 189.576 376.736 189.561 376.744 189.547C382.642 177.72 384.142 166.416 381.177 155.869C376.706 139.96 363.472 130.657 358.308 127.548C361.912 114.883 361 104.138 355.47 95.6294C347.68 83.6434 333.227 79.7664 327.33 78.6477C327.266 73.9295 326.304 69.4835 324.388 65.3449C317.231 49.8897 299.515 43.807 294.367 42.331C293.691 40.8079 292.945 39.316 292.05 37.9043C280.326 19.4134 259.179 22.1459 252.314 23.6171C249.886 20.0171 246.942 18.0377 246.738 17.9048C246.657 17.8522 246.572 17.8023 246.485 17.758C233.475 11.0537 222.185 13.8617 214.688 25.667C211.08 31.3523 209.172 38.4194 209.172 46.1069V339.88C209.172 355.338 216.159 369.226 227.863 377.03C232.707 380.259 238.899 382.809 246.383 382.809C256.468 382.809 268.902 378.144 283.51 364.285C287.093 365.222 290.45 365.673 293.561 365.673C318.729 365.673 328.715 338.318 328.798 338.077C330.828 332.867 331.797 328.188 332.004 323.996C342.739 322.615 350.916 317.873 356.289 309.867C367.98 292.451 362.72 265.09 360.906 257.372C372.302 250.277 379.318 241.263 381.662 230.506C385.2 214.27 377.097 199.224 374.107 194.395C375.058 192.791 375.916 191.197 376.709 189.611C376.714 189.603 376.723 189.598 376.728 189.59ZM376.112 229.334C374.141 238.335 368.241 246.016 358.562 252.203C354.339 246.115 341.809 231.137 321.931 232.587C321.333 225.382 318.566 218.462 313.98 212.846C312.991 211.631 311.201 211.456 309.991 212.445C308.778 213.433 308.597 215.222 309.588 216.435C313.973 221.805 316.388 228.59 316.388 235.54C316.388 252.211 302.825 265.772 286.156 265.772C269.485 265.772 255.921 252.211 255.921 235.54C255.921 218.869 269.485 205.306 286.156 205.306C287.722 205.306 288.992 204.037 288.992 202.47C288.992 200.903 287.722 199.634 286.156 199.634C283.006 199.634 279.965 200.083 277.052 200.849C278.248 198.325 278.938 195.516 278.938 192.542C278.938 181.8 270.199 173.063 259.459 173.063C257.893 173.063 256.623 174.332 256.623 175.899C256.623 177.466 257.893 178.735 259.459 178.735C267.073 178.735 273.266 184.929 273.266 192.542C273.266 200.155 267.073 206.35 259.459 206.35C251.845 206.35 245.651 200.155 245.651 192.542C245.651 190.975 244.382 189.706 242.816 189.706C241.25 189.706 239.98 190.975 239.98 192.542C239.98 203.165 248.529 211.812 259.106 212.003C253.608 218.314 250.25 226.534 250.25 235.54C250.25 255.338 266.357 271.444 286.156 271.444C305.019 271.444 320.497 256.812 321.919 238.308C342.051 236.55 353.374 254.33 354.991 257.085C355.748 260.005 363.032 289.647 351.581 306.707C347.245 313.164 340.576 317.041 331.79 318.288C329.549 300.446 312.823 293.431 312.602 293.34C311.15 292.759 309.505 293.454 308.918 294.905C308.329 296.353 309.029 298.006 310.474 298.599C311.447 298.998 334.169 308.668 323.484 336.1C323.044 337.33 312.717 365.366 285.854 359.052C286.404 353.571 286.616 340.661 278.444 330.185C274.708 325.398 269.696 321.812 263.539 319.364C269.281 317.624 273.524 314.863 276.108 311.025C281.109 303.592 277.982 295.295 277.847 294.946C277.28 293.481 275.631 292.761 274.179 293.326C272.718 293.894 271.994 295.536 272.56 296.996C272.582 297.054 274.769 302.853 271.403 307.857C268.012 312.894 259.869 315.66 247.852 315.854C247.826 315.854 247.805 315.869 247.779 315.87C246.961 315.8 246.177 315.696 245.334 315.652C243.714 315.53 242.436 316.771 242.355 318.338C242.273 319.9 243.475 321.235 245.038 321.318C258.36 322.01 268.084 326.156 273.942 333.638C281.618 343.441 280.509 356.352 280.055 359.743C261.602 377.456 245.105 381.708 231.009 372.311C220.887 365.562 214.843 353.438 214.843 339.88V290.645C220.931 288.556 233.412 285.617 239.907 289.923C242.914 291.917 244.423 295.309 244.523 300.291C244.555 301.836 245.818 303.069 247.357 303.069C247.377 303.069 247.396 303.069 247.415 303.069C248.981 303.035 250.225 301.742 250.194 300.175C250.056 293.288 247.647 288.248 243.033 285.19C234.691 279.666 221.397 282.672 214.843 284.689V132.747C217.741 133.504 221.974 134.338 226.779 134.338C235.728 134.338 246.474 131.436 253.378 119.716C254.174 118.368 253.724 116.629 252.375 115.834C251.027 115.045 249.287 115.488 248.493 116.836C239.004 132.944 220.646 128.73 214.843 126.9V46.1069C214.843 39.4994 216.445 33.4818 219.476 28.7077C225.398 19.3836 233.332 17.423 243.734 22.7205C244.513 23.2716 249.563 27.071 249.847 33.2409C250.121 39.2087 245.715 45.9767 237.103 52.814C235.877 53.7888 235.672 55.5722 236.646 56.799C237.619 58.023 239.403 58.2251 240.631 57.2559C250.871 49.1226 255.88 40.9561 255.513 32.9806C255.445 31.5025 255.179 30.138 254.803 28.8655C261.547 27.5626 277.919 26.2105 287.259 40.9394C291.679 47.9152 292.949 56.7325 290.743 65.1316C286.818 80.0807 276.189 86.8038 259.209 85.1755C257.477 78.7695 253.27 73.1666 252.557 72.2514C251.593 71.0163 249.809 70.8031 248.577 71.7585C247.342 72.7222 247.121 74.5055 248.084 75.7406C250.338 78.6317 256.201 88.1053 253.646 93.5082C251.688 97.6482 244.919 98.6756 239.585 98.8085C238.019 98.8473 236.782 100.149 236.822 101.716C236.86 103.256 238.122 104.48 239.655 104.48C239.678 104.48 239.703 104.48 239.727 104.48C249.803 104.225 256.209 101.351 258.774 95.9313C259.528 94.3362 259.859 92.6469 259.925 90.9369C261.297 91.038 262.632 91.1017 263.905 91.1017C286.228 91.1017 293.724 76.1145 296.229 66.5716C297.761 60.7368 297.827 54.7269 296.581 49.0693C303.104 51.5429 314.365 57.1673 319.254 67.7569C323.404 76.7431 322.218 87.7093 315.734 100.351C315.02 101.744 315.569 103.453 316.962 104.167C317.376 104.38 317.82 104.48 318.254 104.48C319.284 104.48 320.277 103.918 320.78 102.937C324.142 96.3847 326.154 90.1961 326.939 84.3669C332.394 85.5133 344.451 89.0538 350.732 98.7476C355.25 105.721 356.023 114.721 353.036 125.529C345.045 123.801 321.083 119.739 303.579 128.326C303.064 128.578 302.706 128.99 302.434 129.449C301.864 128.896 301.323 128.303 300.71 127.811C285.851 115.892 268.189 126.925 260.924 134.429C259.834 135.554 259.863 137.348 260.988 138.439C262.112 139.525 263.908 139.5 264.997 138.373C265.173 138.198 282.575 120.539 297.16 132.233C300.592 134.992 303.214 139.068 304.743 144.028C307.276 152.238 308.378 162.964 299.238 167.425C297.831 168.112 297.247 169.809 297.935 171.216C298.426 172.224 299.434 172.808 300.485 172.808C300.902 172.808 301.326 172.717 301.727 172.52C311.67 167.666 314.665 156.954 310.163 142.355C309.145 139.054 307.675 136.094 305.876 133.487C305.943 133.46 306.011 133.448 306.077 133.416C323.776 124.738 350.235 130.662 353.85 131.534C355.453 132.385 371.128 141.074 375.718 157.403C378.064 165.75 377.098 174.768 372.919 184.296C368.598 182.475 359.889 179.998 350.272 183.677C350.233 183.172 350.243 182.665 350.175 182.16C348.108 166.666 333.327 157.647 332.7 157.273C331.354 156.464 329.614 156.902 328.809 158.248C328.005 159.591 328.441 161.333 329.784 162.136C329.916 162.216 342.844 170.097 344.554 182.911C345.642 191.052 341.954 199.593 333.59 208.294C332.506 209.424 332.541 211.218 333.671 212.304C334.22 212.832 334.928 213.096 335.636 213.096C336.38 213.096 337.124 212.805 337.681 212.226C344.794 204.822 348.926 197.363 350.069 189.959C358.554 185.69 366.52 187.799 370.394 189.382C369.745 190.566 369.095 191.751 368.349 192.949C367.748 193.916 367.784 195.151 368.44 196.084C368.554 196.245 379.806 212.481 376.112 229.334Z" fill="#9F9191"/>
<path d="M40.7101 309.867C46.0816 317.868 54.2527 322.608 64.9781 323.992C65.1869 328.163 66.1528 332.815 68.1701 337.991C68.2808 338.307 78.2681 365.673 103.439 365.673C106.549 365.673 109.906 365.222 113.489 364.285C128.099 378.146 140.531 382.809 150.616 382.809C158.099 382.809 164.294 380.258 169.136 377.03C180.84 369.226 187.827 355.338 187.827 339.88V46.1067C187.827 38.4165 185.919 31.3493 182.31 25.6668C174.815 13.8643 163.524 11.059 150.515 17.7578C150.428 17.8021 150.343 17.852 150.262 17.9046C150.058 18.0375 147.113 20.0169 144.686 23.6169C137.821 22.1464 116.674 19.4166 104.95 37.9041C104.055 39.3158 103.309 40.8084 102.632 42.3315C97.4831 43.8068 79.7692 49.8895 72.6119 65.3447C70.696 69.4833 69.734 73.9293 69.6698 78.6475C63.7728 79.7662 49.3189 83.6439 41.5285 95.632C35.9988 104.138 35.0865 114.884 38.6908 127.548C33.526 130.659 20.2938 139.961 15.8229 155.869C12.857 166.42 14.3604 177.729 20.2642 189.562C20.2675 189.567 20.267 189.573 20.2703 189.579C20.2724 189.582 20.2762 189.584 20.2783 189.588C21.0741 191.181 21.937 192.783 22.8928 194.395C19.9034 199.224 11.8005 214.269 15.3383 230.506C17.6819 241.263 24.6978 250.276 36.0942 257.372C34.2805 265.091 29.0201 292.454 40.7101 309.867ZM20.8878 229.334C17.1937 212.481 28.4465 196.244 28.5601 196.084C29.2164 195.151 29.2524 193.915 28.6514 192.949C27.9051 191.75 27.2547 190.565 26.605 189.381C30.479 187.797 38.4447 185.686 46.9306 189.959C48.075 197.363 52.2067 204.824 59.3195 212.226C59.8775 212.805 60.6197 213.095 61.3646 213.095C62.0722 213.095 62.7797 212.832 63.3294 212.303C64.4593 211.218 64.4939 209.423 63.4097 208.293C55.059 199.606 51.369 191.077 52.4407 182.946C54.123 170.177 67.0873 162.213 67.2188 162.136C68.5577 161.327 68.9911 159.585 68.1839 158.245C67.3794 156.904 65.6417 156.467 64.2986 157.273C63.6714 157.649 48.8919 166.666 46.8233 182.157C46.7559 182.662 46.7651 183.169 46.7263 183.675C37.1082 179.992 28.3996 182.472 24.0796 184.294C19.9098 174.786 18.9398 165.783 21.27 157.45C25.8218 141.165 41.5363 132.398 43.1525 131.533C46.7802 130.657 73.2248 124.744 90.9236 133.416C90.989 133.448 91.0576 133.46 91.1239 133.487C89.3256 136.094 87.8548 139.054 86.8362 142.355C82.3348 156.954 85.3311 167.669 95.2741 172.52C95.6743 172.717 96.098 172.808 96.5147 172.808C97.5657 172.808 98.5737 172.224 99.0652 171.216C99.7534 169.809 99.1691 168.112 97.7609 167.425C88.6238 162.964 89.7245 152.238 92.2556 144.027C93.7856 139.068 96.4081 134.991 99.8406 132.236C114.379 120.572 131.292 137.644 132.005 138.375C133.095 139.502 134.89 139.525 136.014 138.434C137.136 137.345 137.165 135.554 136.076 134.429C128.811 126.925 111.147 115.884 96.2904 127.813C95.6776 128.305 95.1363 128.897 94.5669 129.45C94.2952 128.99 93.9369 128.578 93.4215 128.326C75.9129 119.738 51.9519 123.798 43.9626 125.529C40.9774 114.72 41.7486 105.72 46.2667 98.7501C52.549 89.055 64.606 85.5131 70.0613 84.3667C70.8465 90.1959 72.8582 96.3845 76.2203 102.937C76.7229 103.918 77.7157 104.48 78.7458 104.48C79.1806 104.48 79.6237 104.38 80.0377 104.167C81.4306 103.452 81.9803 101.744 81.2658 100.351C74.7816 87.7091 73.5964 76.7429 77.7461 67.7567C82.6347 57.1678 93.8949 51.5434 100.418 49.0698C99.1724 54.726 99.2374 60.7359 100.77 66.5714C103.274 76.1143 110.768 91.1042 133.094 91.1015C134.367 91.1015 135.703 91.0378 137.075 90.9367C137.141 92.6467 137.472 94.336 138.227 95.9311C140.79 101.35 147.198 104.225 157.272 104.48C157.296 104.48 157.321 104.48 157.344 104.48C158.877 104.48 160.138 103.256 160.177 101.716C160.217 100.149 158.979 98.8471 157.413 98.8083C152.083 98.6754 145.317 97.648 143.355 93.5107C140.794 88.1079 146.501 78.8475 148.917 75.7377C149.877 74.4998 149.654 72.7192 148.419 71.7582C147.185 70.8001 145.404 71.0216 144.442 72.2512C143.729 73.1664 139.523 78.7686 137.792 85.1746C120.798 86.7994 110.178 80.0792 106.256 65.1314C104.05 56.7295 105.321 47.9122 109.741 40.9392C119.079 26.2117 135.453 27.5624 142.196 28.8646C141.821 30.1378 141.555 31.5023 141.487 32.9804C141.12 40.9559 146.127 49.1224 156.371 57.2557C157.593 58.2249 159.378 58.0228 160.354 56.7987C161.328 55.572 161.123 53.7886 159.896 52.8138C151.311 45.9959 146.904 39.2472 147.151 33.2961C147.405 27.1539 152.515 23.2603 153.272 22.7176C163.669 17.4228 171.6 19.3806 177.522 28.7075C180.553 33.4789 182.155 39.4965 182.155 46.1067V126.9C176.353 128.729 157.997 132.947 148.507 116.836C147.717 115.488 145.98 115.042 144.625 115.834C143.276 116.628 142.826 118.368 143.622 119.716C150.528 131.436 161.271 134.338 170.22 134.338C175.024 134.338 179.258 133.504 182.155 132.747V284.69C175.601 282.673 162.306 279.668 153.967 285.19C149.353 288.247 146.944 293.287 146.806 300.174C146.775 301.742 148.019 303.035 149.585 303.068C149.604 303.068 149.623 303.068 149.643 303.068C151.183 303.068 152.445 301.836 152.477 300.291C152.577 295.309 154.086 291.917 157.094 289.923C163.589 285.617 176.068 288.555 182.155 290.645V339.88C182.155 353.438 176.111 365.562 165.99 372.311C151.899 381.7 135.4 377.456 116.944 359.742C116.489 356.352 115.381 343.441 123.058 333.638C128.915 326.156 138.641 322.01 151.962 321.318C153.525 321.235 154.727 319.9 154.645 318.338C154.562 316.771 153.239 315.527 151.666 315.652C150.823 315.696 150.039 315.8 149.221 315.87C149.195 315.869 149.174 315.854 149.149 315.854C137.172 315.66 129.038 312.91 125.629 307.906C122.273 302.974 124.408 297.081 124.444 296.982C125.001 295.525 124.276 293.891 122.82 293.326C121.363 292.764 119.718 293.481 119.151 294.946C119.016 295.295 115.89 303.592 120.892 311.024C123.476 314.863 127.719 317.624 133.461 319.364C127.304 321.812 122.292 325.398 118.557 330.185C110.385 340.661 110.595 353.571 111.145 359.052C84.312 365.374 73.955 337.33 73.4856 336.017C62.8296 308.668 85.5527 298.998 86.5177 298.602C87.9716 298.014 88.6736 296.364 88.0893 294.91C87.505 293.459 85.8531 292.761 84.3993 293.34C84.177 293.431 67.4281 300.456 65.1914 318.285C56.4196 317.036 49.759 313.165 45.4262 306.718C33.9918 289.7 41.2462 260.037 42.0082 257.087C43.6206 254.342 54.9578 236.545 75.0811 238.307C76.5024 256.812 91.9808 271.443 110.844 271.443C130.643 271.443 146.75 255.338 146.75 235.54C146.75 226.534 143.392 218.313 137.894 212.003C148.471 211.812 157.019 203.165 157.019 192.542C157.019 190.975 155.749 189.706 154.183 189.706C152.617 189.706 151.347 190.975 151.347 192.542C151.347 200.155 145.154 206.349 137.541 206.349C129.927 206.349 123.734 200.155 123.734 192.542C123.734 184.929 129.927 178.734 137.541 178.734C139.107 178.734 140.377 177.466 140.377 175.899C140.377 174.331 139.107 173.063 137.541 173.063C126.801 173.063 118.062 181.8 118.062 192.542C118.062 195.516 118.752 198.325 119.948 200.848C117.035 200.083 113.995 199.634 110.844 199.634C109.278 199.634 108.009 200.902 108.009 202.47C108.009 204.037 109.278 205.305 110.844 205.305C127.515 205.305 141.079 218.869 141.079 235.54C141.079 252.211 127.515 265.772 110.844 265.772C94.1747 265.772 80.6123 252.211 80.6123 235.54C80.6123 228.589 83.0271 221.805 87.4122 216.435C88.4036 215.222 88.2222 213.433 87.0093 212.445C85.7963 211.459 84.0088 211.633 83.0202 212.846C78.4336 218.463 75.6666 225.383 75.0686 232.587C55.2034 231.143 42.6607 246.115 38.438 252.203C28.7594 246.016 22.8595 238.334 20.8878 229.334Z" fill="#9F9191"/>
<path d="M121.938 401.746C120.965 396.8 124.751 392.198 129.791 392.198H279.362C284.399 392.198 288.184 396.793 287.218 401.736L266.35 508.536C265.894 511.017 260.947 515.516 255.321 515.516H248.125H246.996H179.026H160.569H153.365C147.963 515.516 143.016 511.009 142.56 508.536L138.764 488.806C137.814 483.869 141.597 479.289 146.624 479.289H219.535C222.912 479.289 225.834 476.136 225.834 472.766C225.834 469.613 222.912 466.467 219.535 466.467H140.862C137.021 466.467 133.722 463.739 133.001 459.966L129.306 440.644C128.363 435.711 132.144 431.137 137.168 431.137H236.871C240.025 431.137 243.171 428.216 243.171 424.838C243.171 421.46 240.017 418.539 236.871 418.539H131.823C127.998 418.539 124.707 415.832 123.969 412.079L121.938 401.746ZM168.005 531.724C168 529.86 169.51 528.346 171.374 528.346H179.026H237.312C239.177 528.346 240.689 529.858 240.689 531.724V531.724C240.689 538.919 236.191 543.426 232.141 543.426H176.553C172.503 543.426 168.005 538.919 168.005 531.724V531.724Z" stroke="#9F9191" stroke-width="6.00302"/>
</svg>
