<svg id="Layer_1" data-name="Layer 1" xmlns="http://www.w3.org/2000/svg" viewBox="0 0 796.9 483.51"><defs><style>.cls-1{fill:#fcfb98;}.cls-1,.cls-2,.cls-3,.cls-4,.cls-5,.cls-6,.cls-9{fill-rule:evenodd;}.cls-2{fill:#b4d8ec;}.cls-3,.cls-4{fill:#fff;}.cls-3{fill-opacity:0.61;}.cls-10,.cls-3,.cls-4,.cls-7,.cls-8{stroke:#000;}.cls-10,.cls-3,.cls-4,.cls-8{stroke-width:1.45px;}.cls-5{fill:#b6cf9d;}.cls-6{fill:#f7a6b6;}.cls-10,.cls-7,.cls-8{fill:none;}.cls-7{stroke-width:2.89px;}.cls-10{stroke-dasharray:3.62 5.07;}.cls-11{fill:#555353;}</style></defs><g id="parietal"><path class="cls-1" d="M383.43,6.44c9.41-1.45,18.81-.73,27.5,4.34,27.49-5.07,47.76-.73,60.06,13,10.13-2.17,21,.73,31.11,8,28.22,12.3,48.48,28.22,64.4,46.31C592.56,89,602.69,102,604.13,116.45a84,84,0,0,1,28.22,36.18L552.8,266.22,304.55,235.1,230,118.6Z" transform="translate(0 -0.02)"/></g><g id="frontal"><path class="cls-2" d="M389.94,5l-10.85,27.5c-46.31,3.61-56.44,18.09-42,41.24,8.68,10.13-7.24,18.82-11.58,30.39-4.34,14.48-9.41,29.67-16.64,44.87,0,39.07-22.44,36.18-20.27,49.93l15.92,21-138.21,144C97.6,374.76,60.69,369,50.56,349.43c-21-7.24-34-30.39-38.35-69.47-10.85-11.57-11.58-22.43-8-34-1.45-4.34-2.17-8.68.73-13-5.79-18.82-2.9-29,.72-38.35C7.11,180.13,14.34,167.83,25.2,157c-.73-18.09,10.13-27.5,24.6-33.29,11.58-36.9,63.68-62.23,84.66-68,13.75-12.3,32.57-19.54,55.72-22.43,11.58-5.07,22.43-8.68,33.29-10.13,20.26-13,43.42-15.2,66.57-15.2,18.82-6.51,38.35-8.68,58.61-4.34Z" transform="translate(0 -0.02)"/></g><path class="cls-3" d="M350.14,386.36c5.07,20.26,14.47,34,29.67,39.79,21.71,10.13,38.35,34.74,55.72,56.45,9.41-5.07,19.54-9.41,27.5-16.65l-82.5-98.41Z" transform="translate(0 -0.02)"/><path class="cls-4" d="M374,380.55c0,4.34.73,8.68,5.07,13,1.44,24.61,10.85,32.56,23.88,32.56,57.89,36.91,102,39.08,135.31,17.37,13.75-8,35.46-15.92,36.91-23.88,15.92-8,25.32-15.92,34-23.88,13.75-11.58,13.75-31.84,8-57.16C479.67,334.24,410.2,352.36,374,380.55Z" transform="translate(0 -0.02)"/><g id="temporal"><path class="cls-5" d="M383.43,193.13l192.48,30.39c28.22,33.29,56.44,66.57,83.94,99.86-20.26,19.54-47.76,22.43-77.43,18.09-12.3,6.51-31.11,10.13-59.33,0a160.27,160.27,0,0,1-32.57,14.47c-17.36,9.41-35.45,12.31-54.27,12.31-17.36,2.89-32.56,5.06-39.07,0A74.49,74.49,0,0,1,369,382.72c-12.3,7.23-22.44,9.41-32.57,11.57-8.68,21-29.67,29.67-58.61,29.67-19.54,8.69-39.08,9.41-59.34-8.68C204,408,190.22,399.36,183,382c-5.07-5.78-9.41-10.85-13.75-16.64-2.17-20.26,2.89-38.35,18.09-53.55,14.47-8,16.64-28.94,25.32-43.41,16.65-19.54,43.42-27.5,71.64-33.29,12.3-12.3,26.78-21,48.49-19.54C345.08,203.26,359.55,192.41,383.43,193.13Z" transform="translate(0 -0.02)"/></g><g id="occipital"><path class="cls-6" d="M630.91,151.88c-21,18.82-34.74,30.39-52.83,52.1-5.06,18.09-2.17,36.18,5.07,54.27,0,7-15.53,13.09-19.45,19.89-2.23,3.86-12.61,32.35-17.36,34.91-4.35,2.35-8.4,2.67-9.73,7.09-.16.55-8.28,8-9.35,8.69-6.85,4.6-10,4.38-8.86,6.17,1.68,2.62,2.29,4.34,4.77,5.37s21.94,6.39,24.82,6,14.29.92,17.13.74,6.66-1.52,9-2.12c2.9-.77,7-4.33,8.62-4.23a221.62,221.62,0,0,0,42-1.06c24.83-6.4,14.18-3,36.64-15.63,7.23-8.68,13-20.26,18.81-40.52,5.07-8,4.34-21,2.17-33.29,4.35-17.36-3.62-23.87-14.47-36.18-2.89-10.85-6.51-24.6-19.54-35.45C649,171.42,645.38,159.84,630.91,151.88Z" transform="translate(0 -0.02)"/></g><path class="cls-7" d="M290.8,7.88c-22.44-1.44-47.76,2.9-69.47,15.2-10.86.72-22.44,6.51-31.84,10.85a99,99,0,0,0-55,21C120.8,59.26,106.28,64.36,94,75.18,70.8,88.93,55.63,104.85,48.39,124.36,33.2,129.43,25.24,141,25.24,156.93,14.38,166.36,7.15,178.66,5.7,194.58c-5.79,12.3-5.07,24.6-1.45,36.9-.72,4.34-3.62,9.41,0,13.75-3.62,8-2.17,15.92,1.45,23.88,2.17,0,2.89,9.41,5.79,10.85,1.45,21,6.51,34.74,13,44.87,7.24,11.58,14.48,21.71,26.05,24.6,11.6,23.16,59.36,21.71,117.26,13.75A152,152,0,0,0,183,382.72c8,16.64,21,26.77,36.9,33.28,13,11.58,29,19.54,58.61,8,28.22-1.44,50.66-8,57.89-29.67,7.24-.72,16.65-4.34,31.84-11.57,10.86-2.17,19.54-8,27.5-14.47,8,5.78,24.6,2.89,41.25,0,26.05-1.45,44.14-5.07,52.82-12.31,12.3-3.61,24.6-7.23,34-14.47,21.71,7.24,42,10.13,58.61,0,48.49,5.07,86.84-5.06,97-57.16,8-8.69,5.79-21.71,2.17-34.74,8-13-2.9-23.88-13.75-35.46-1.45-15.19-8.68-26.05-19.54-35.45,1.45-10.13-2.17-18.82-16.64-26-5.86-17.41-15.95-28.29-28.25-36.22,0-18.09-15.2-29.67-37.63-38.36-17.37-21-39.07-36.18-64.4-47-10.13-8-20.26-8.68-30.39-7.24-11.58-14.47-31.84-18.09-59.34-13-7.24-5.07-15.2-5.07-22.43-5.07q-25-2.18-43.42-2.17C324.8-.8,307.45,2.09,290.8,7.88Z" transform="translate(0 -0.02)"/><path class="cls-8" d="M83.13,88.93c-8,7.23-8,12.3-2.9,15.19" transform="translate(0 -0.02)"/><path class="cls-8" d="M104.11,79.52c35.46-24.6,61.51-26.77,79.6-14.47" transform="translate(0 -0.02)"/><path class="cls-8" d="M159.11,100.51c13.74-10.14,19.53-29.67,30.39-43.42,14.47-21.71,42-3.62,59.34-5.07" transform="translate(0 -0.02)"/><path class="cls-8" d="M68.65,122.94C60,133.07,70.8,141.75,70.8,151.16" transform="translate(0 -0.02)"/><path class="cls-8" d="M41.16,152.61c12.3-6.52,9.4-21,21-31.12,8-10.13,34-10.85,43.42-24.6,10.13-15.2,23.15-20.26,38.35-17.37" transform="translate(0 -0.02)"/><path class="cls-8" d="M132.33,93.27a135.87,135.87,0,0,0,18.82-23.91" transform="translate(0 -0.02)"/><path class="cls-8" d="M181.54,94.72c8-5.79,11.58-13,10.85-21" transform="translate(0 -0.02)"/><path class="cls-8" d="M173.58,45.51c5.79,2.17,13.75.72,26-8" transform="translate(0 -0.02)"/><path class="cls-8" d="M190.22,34.66c-2.89,3.61-5.06,7.23-5.06,10.13" transform="translate(0 -0.02)"/><path class="cls-8" d="M222.06,23.08c1.45,2.89,3.62,5.06,5.79,5.06" transform="translate(0 -0.02)"/><path class="cls-8" d="M242.32,14.36a55.27,55.27,0,0,0-6.51,9.4" transform="translate(0 -0.02)"/><path class="cls-8" d="M306,13.67c-5.79.73-11.58-.72-17.37-5.79" transform="translate(0 -0.02)"/><path class="cls-8" d="M316.13,57.09c-7.23-1.45-13-4.34-10.13-21,.72-14.47-10.85-18.81-31.11-17.36-18.82,1.44-36.19,2.89-44.14,7.23-6.52,6.52-13.75,13-22.44,20.26" transform="translate(0 -0.02)"/><path class="cls-8" d="M233.64,31.76c-5.07,5.07-6.51,10.86-5.07,16.65" transform="translate(0 -0.02)"/><path class="cls-8" d="M287.19,26.7C280,39,269.8,49.85,262.58,56.36c-15.19,15.92-25.32,33.28-9.4,52.1" transform="translate(0 -0.02)"/><path class="cls-8" d="M244.49,89.65c-8,.72-13.74-4.34-18.81-11.58-3.62-7.23-13.75-7.23-18.09-21" transform="translate(0 -0.02)"/><path class="cls-8" d="M303.8,60.71c-35.46,1.44-34.73,23.88-52.1,31.84" transform="translate(0 -0.02)"/><path class="cls-8" d="M327,96.16c2.89-11.57-5.07-15.91-23.16-15.19-8.68.72-17.37.72-23.88-2.9" transform="translate(0 -0.02)"/><path class="cls-8" d="M308.9,99.06c-18.82,6.51-36.91,8.68-55.72,10.13-8.69-.72-21,27.5-22.44,36.9" transform="translate(0 -0.02)"/><path class="cls-8" d="M10,201.81c5.07-8,10.13-12.3,16.64-14.47" transform="translate(0 -0.02)"/><path class="cls-8" d="M26.68,192.41c-2.88-12.31,19.54-15.92,26.05-23.16,4.35-3.62,8-17.37,30.4-22.43,12.3-4.34,22.43-17.37,36.9-30.39,5.79-6.52,16.64-9.41,29-10.14" transform="translate(0 -0.02)"/><path class="cls-8" d="M128,88.2c-6.51,8.69-11.58,19.54-4.34,24.61" transform="translate(0 -0.02)"/><path class="cls-8" d="M97.6,138.13a99.92,99.92,0,0,0-.73,25.33" transform="translate(0 -0.02)"/><path class="cls-8" d="M119.31,153.36c-5.07,8-13.75,17.37-10.13,28.22" transform="translate(0 -0.02)"/><path class="cls-8" d="M101.94,178.66c13,3.61,20.26,16.64,29.67,20.26" transform="translate(0 -0.02)"/><path class="cls-8" d="M108.45,171.42c-4.34-7.24-10.85-10.85-19.54-4.34-12.3,7.24-23.87,15.19-36.18,22.43C41.16,199.64,37.54,209.77,42.6,219.9" transform="translate(0 -0.02)"/><path class="cls-8" d="M10.8,222.07c9.41-10.85,19.54-15.92,29.67-15.19" transform="translate(0 -0.02)"/><path class="cls-8" d="M26.68,209.77c-2.17-2.17-5.79-2.89-10.13-3.62" transform="translate(0 -0.02)"/><path class="cls-8" d="M49.8,198.2c17.37-9.41,26.05-7.24,29,2.17,7.23,39.07,18.81,46.31,29.66,56.44" transform="translate(0 -0.02)"/><path class="cls-8" d="M88.19,183.72C85.3,186.62,81,191,76.61,196" transform="translate(0 -0.02)"/><path class="cls-8" d="M124.37,161.29c13-11.58,31.12-23.88-2.89-35.46" transform="translate(0 -0.02)"/><path class="cls-8" d="M141,142.48c21-.73,32.56,3.61,33.28,15.19.73,8-4.34,15.92-3.62,24.6" transform="translate(0 -0.02)"/><path class="cls-8" d="M228.57,246.68c18.09-17.37,29-33.29,16.65-60.79-4.34-13.75-9.41-26.77-14.48-39.8-22.43,0-42,3.62-56.44,10.86" transform="translate(0 -0.02)"/><path class="cls-8" d="M209,167.08c-10.86,10.13-34,16.64-32.57,34.73.73,34,13,41.25,21,49.21,2.89,2.17,5.79,10.85,13,19.54" transform="translate(0 -0.02)"/><path class="cls-8" d="M160.55,75.18c-3.62,13.75-18.81,28.22-5.06,44.14,5.06-3.62,18.81-3.62,25.32-5.06,11.58-7.24,42.7,5.06,55-3.62" transform="translate(0 -0.02)"/><path class="cls-8" d="M290.8,162c5.78-21.7-5.07-34.73-26.06-41.24" transform="translate(0 -0.02)"/><path class="cls-8" d="M303.11,217.73c-10.13-1.44-31.84-16.64-28.95-31.84-2.17-18.09-13-24.6-13.75-31.84-1.44-3.61,3.62-12.3-.72-17.36" transform="translate(0 -0.02)"/><path class="cls-8" d="M198.18,251.74c5.79-9.4,5.79-18.09-8.68-28.22" transform="translate(0 -0.02)"/><path class="cls-8" d="M151.15,166.36c.72,10.14,1.44,19.54,5.79,29.67" transform="translate(0 -0.02)"/><path class="cls-8" d="M176.47,201.81c-11.57-3.61-21-8.68-24.6-1.44-3.62,2.89-13.75,7.23-10.85,20.26-.73,5.79-21.71,8.68-29.67,12.3" transform="translate(0 -0.02)"/><path class="cls-8" d="M126.54,234.36c-6.51,5.06-4.34,15.19-7.23,22.43,1.45,15.19,18.81,18.09,36.9,20.26" transform="translate(0 -0.02)"/><path class="cls-8" d="M44.8,232.21c4.35,4.34,12.31,7.95,29.67,10.13,7.24,1.44,6.51,6.51,23.16,11.57,6.51.73,14.47,1.45,21.71,2.9" transform="translate(0 -0.02)"/><path class="cls-8" d="M55.63,210.5c-4.34,4.34-13.75,8-14.47,13.75-1.45,5.78-5.79,11.57-9.41,17.36-5.79,10.86-9.41,19.54-8.68,26.78.72,15.19,17.36,23.15,26,32.56" transform="translate(0 -0.02)"/><path class="cls-8" d="M9.32,235.82a31.34,31.34,0,0,1-5.07-4.34" transform="translate(0 -0.02)"/><path class="cls-8" d="M26,229.36c-5.06,5-10.16,10.08-13.75,16.59-2.89,8-2.17,14.48-3.62,28.23" transform="translate(0 -0.02)"/><path class="cls-8" d="M12.21,247.36c0-2.17-1.45-3.62-2.89-5.06" transform="translate(0 -0.02)"/><path class="cls-8" d="M12.21,280c1.45-4.34,8-8.68,4.34-13.74" transform="translate(0 -0.02)"/><path class="cls-8" d="M26,325.55c1.45-2.89.72-6.51,2.17-8" transform="translate(0 -0.02)"/><path class="cls-8" d="M50.56,349.43c4.35-7.24,5.07-11.58,2.17-12.3" transform="translate(0 -0.02)"/><path class="cls-8" d="M57.8,340l-3.62-2.17" transform="translate(0 -0.02)"/><path class="cls-8" d="M38.26,292.26C31,306.74,39,316.87,58.52,323.38" transform="translate(0 -0.02)"/><path class="cls-8" d="M36.09,252.47c15.92,8.68,32.56,26.77,47,31.84C99,290.09,122.16,310.36,135.91,301" transform="translate(0 -0.02)"/><path class="cls-8" d="M156.21,290.09c-10.85,2.17-23.88,10.86-23.88,16.65.73,10.13,32.57,17.36,45.59,14.47" transform="translate(0 -0.02)"/><path class="cls-8" d="M50.56,308.19c5.07,4.34,12.31,5.78,26.05-.73,14.48-4.34,19.54.73,29.67,3.62" transform="translate(0 -0.02)"/><path class="cls-8" d="M133.8,309.63c-17.37-1.44-26-.72-31.84,5.07-10.13,6.51-20.26,5.06-23.88,5.79-4.34,1.44-16.64,13.75-34,5.06" transform="translate(0 -0.02)"/><path class="cls-8" d="M86.74,363.18a379.58,379.58,0,0,0,75.26-2.9" transform="translate(0 -0.02)"/><path class="cls-8" d="M114.24,334.24c-5.79-1.45-8.68-4.35-8.68-9.41-.72,10.13-6.51,12.3-10.86,16.64-5.06,3.62-4.34,9.41-8.68,14.47" transform="translate(0 -0.02)"/><path class="cls-8" d="M140.29,320.49c-14.47,0-28.22-.73-38.35-5.79" transform="translate(0 -0.02)"/><path class="cls-8" d="M132.33,320.49c2.17,12.3,18.82,13.75,27.5,18.09" transform="translate(0 -0.02)"/><path class="cls-8" d="M126.54,331.36c1.45-2.89,5.79-2.89,8.69-5.06" transform="translate(0 -0.02)"/><path class="cls-8" d="M146.8,329.17c3.61-2.89,8-4.34,10.85-8" transform="translate(0 -0.02)"/><path class="cls-8" d="M167.8,329.89c-6.51-10.85,13.75-14.47,18.81-26" transform="translate(0 -0.02)"/><path class="cls-8" d="M166.34,261.15c11.58,9.41,28.22,14.47,38.35,17.37" transform="translate(0 -0.02)"/><path class="cls-8" d="M155.49,306c21,0,39.8-13.75,43.41-29.66.73-1.45,5.79-2.17,8.69-2.9" transform="translate(0 -0.02)"/><path class="cls-8" d="M335.67,13a36,36,0,0,1,16.64-9.41" transform="translate(0 -0.02)"/><path class="cls-8" d="M348.69,20.18c-18.81,0-34.73,2.9-42.69,16.65" transform="translate(0 -0.02)"/><path class="cls-8" d="M329.16,33.21c4.34,2.89,7.23,5.79,7.23,9.41" transform="translate(0 -0.02)"/><path class="cls-8" d="M536.8,230.76c2.9-33.29-61.5-42.7-93.34,12.3-4.34,11.58-43.42,7.23-63.68,13-18.06,7.3-36.15,17.39-54.24,28.3-7.24,11.57-32.56-7.24-47-5.79-47,5.06-47.76,75.25-1.44,86.83" transform="translate(0 -0.02)"/><path class="cls-8" d="M363.17,204c.72,14.48-15.2,42.7,8.68,55.72" transform="translate(0 -0.02)"/><path class="cls-8" d="M319,234.36c8-2.9,10.13-15.2,15.19-21.71" transform="translate(0 -0.02)"/><path class="cls-8" d="M303.11,252.47c-3.62,8,.72,10.85,8.68,11.57" transform="translate(0 -0.02)"/><path class="cls-8" d="M333.5,387.78c28.22-25.32,23.88-70.91-20.26-68-15.2,1.45-26.05-2.17-33.29-9.4" transform="translate(0 -0.02)"/><path class="cls-8" d="M355.21,309.63c10.13,18.09,20.26,13.73,32.59,13.73,21.71-.72,34-22.43,18.81-45.59" transform="translate(0 -0.02)"/><path class="cls-8" d="M370.4,323.36q-14.1,4.35-21.71,13" transform="translate(0 -0.02)"/><path class="cls-8" d="M332.05,339.3c-8.68,2.89-17.36,12.3-27.5,18.81-8.68,13-21,18.1-27.49,25.33-7.24,10.85-10.86,33.29-52.1,21" transform="translate(0 -0.02)"/><path class="cls-8" d="M332.8,395c-20.27,11.58-52.83,1.45-57.17,6.51" transform="translate(0 -0.02)"/><path class="cls-8" d="M385.6,294.44c-7.24-2.18-11.58-12.31-15.2-17.37" transform="translate(0 -0.02)"/><path class="cls-8" d="M259,264.77c15.92,8.68,29.66,6.51,43.41-4.34" transform="translate(0 -0.02)"/><path class="cls-8" d="M277.8,269.83c-5.79,8.69-12.3,12.3-20.26,11.58-8.68-1.45-21,8-35.46,19.54-11.6,9.41-15.94,19.54-18.83,30.41-2.17,13-4.35,18.82-7.24,23.88" transform="translate(0 -0.02)"/><path class="cls-8" d="M211.93,287.2c-1.45,8.68,1.45,14.47,7.24,16.64" transform="translate(0 -0.02)"/><path class="cls-8" d="M202.52,392.13c-7.23-2.18-15.92-9.41-21.71-11.58" transform="translate(0 -0.02)"/><path class="cls-8" d="M232.92,359.56c-27.5,13-33.29,33.29-12.31,57.17" transform="translate(0 -0.02)"/><path class="cls-8" d="M216.27,331.36c-1.45,9.41,5.07,15.92,11.58,21.71,5.79,2.89,5.79,10.85,7.24,13,8.71,12.29,10.13,20.29,10.85,27.5" transform="translate(0 -0.02)"/><path class="cls-8" d="M417.44,226.42c10.13-11.58,28.22-2.17,42-3.62" transform="translate(0 -0.02)"/><path class="cls-8" d="M382,237.27c8.68-7.24,12.3-16.64,9.41-29.67" transform="translate(0 -0.02)"/><path class="cls-8" d="M399.35,231.48a38,38,0,0,1-8-7.23" transform="translate(0 -0.02)"/><path class="cls-8" d="M395.73,368.25c-2.89-7.24-.72-14.48,6.51-21" transform="translate(0 -0.02)"/><path class="cls-8" d="M382,363.9c2.17-3.62,9.41-4.34,13.75-6.51" transform="translate(0 -0.02)"/><path class="cls-8" d="M437.7,335.68c-2.17,13.75,7.24,20.26,27.5,21" transform="translate(0 -0.02)"/><path class="cls-8" d="M431.19,358.12c3.62-14.48-5.79-28.23-24.61-42" transform="translate(0 -0.02)"/><path class="cls-8" d="M431.91,349.43l6.51-4.34" transform="translate(0 -0.02)"/><path class="cls-8" d="M469.54,305.29C458.69,303.12,450,298.78,450,287.2c-2.17-10.13-15.19-20.26-9.41-40.52" transform="translate(0 -0.02)"/><path class="cls-8" d="M418.16,314.7c8.69,8.68,26-2.17,42-2.17,39.08-1.45,49.21,19.53,30.39,42.69" transform="translate(0 -0.02)"/><path class="cls-8" d="M499.21,337.85c18.81-.72,31.84-8,39.8-23.15" transform="translate(0 -0.02)"/><path class="cls-8" d="M523.8,342.19,517.29,335" transform="translate(0 -0.02)"/><path class="cls-8" d="M552.8,333.51c11.57,0,21.7,2.17,29.66,8.68" transform="translate(0 -0.02)"/><path class="cls-8" d="M575.91,329.17a73.33,73.33,0,0,1-10.85,5.07" transform="translate(0 -0.02)"/><path class="cls-8" d="M594.72,334.24c-2.17-12.31,5.79-18.09,6.52-25.33" transform="translate(0 -0.02)"/><path class="cls-8" d="M463.8,259c5.79,5.06,13,9.41,11.58,15.2,2.17,12.3,17.37,13.74,26.05,15.19,17.37,7.24,33.28,15.2,23.88,29.67" transform="translate(0 -0.02)"/><path class="cls-8" d="M372.57,191.68c-9.4-2.89-18.09-8.68-26.77-18.81" transform="translate(0 -0.02)"/><path class="cls-8" d="M400.8,77.36c-6.51,4.34-13.74,13-23.87,19.54-10.14,5.79-21,10.85-26.05,28.94-1.45,15.92,0,26.78-3.62,36.91-2.9,9.4-4.34,18.09,0,24.6" transform="translate(0 -0.02)"/><path class="cls-8" d="M354.48,68.67c23.88,5.79,31.84,13,29.67,22.43" transform="translate(0 -0.02)"/><path class="cls-8" d="M501.38,281.41c4.34-7.23,4.34-13.75,4.34-21,7.24-11.58,46.31,4.34,51.38-28.22" transform="translate(0 -0.02)"/><path class="cls-8" d="M502.1,230.76c3.62,8,4.34,18.09,3.62,29.67" transform="translate(0 -0.02)"/><path class="cls-8" d="M345.8,99.78a58.59,58.59,0,0,1,8,18.82" transform="translate(0 -0.02)"/><path class="cls-8" d="M547.69,313.25c11.58-17.37,11.58-41.25,32.56-48.48" transform="translate(0 -0.02)"/><path class="cls-8" d="M520.19,298.05A38.32,38.32,0,0,1,526,287.2" transform="translate(0 -0.02)"/><path class="cls-8" d="M556.37,205.43c-5.06-2.89-7.23-8-5.06-16.64" transform="translate(0 -0.02)"/><path class="cls-8" d="M534.66,217.73c5.79-3.62,10.86-10.85,15.92-20.26" transform="translate(0 -0.02)"/><path class="cls-8" d="M565.06,162c.72,18.09,15.92,19.54,13,39.8" transform="translate(0 -0.02)"/><path class="cls-8" d="M526.71,200.36c.72-19.54,10.85-31.12,23.15-41.25,7.24-8,15.92-12.3,10.85-37.63,2.9-15.2,21-31.84,5.07-42.69C547,70.1,531.05,52.79,502.1,52" transform="translate(0 -0.02)"/><path class="cls-8" d="M370.4,175.76c8.69-15.19,34-23.88,36.18-29.67,5.79-15.19,1.45-30.39,2.17-44.86,4.35-12.3,15.92-17.37,28.95-21,20.26-23.16,42-26.06,64.4-8.69" transform="translate(0 -0.02)"/><path class="cls-8" d="M409.48,126.56c-2.9-3.62-6.51-5.79-10.13-8" transform="translate(0 -0.02)"/><path class="cls-8" d="M405.86,148.26c6.51-3.61,12.3-5.06,18.82-4.34" transform="translate(0 -0.02)"/><path class="cls-8" d="M340.73,51.3c36.91,3.62,83.22,9.41,86.12,32.56" transform="translate(0 -0.02)"/><path class="cls-8" d="M430.46,56.36c-5.06-7.24-17.36-10.86-23.15-15.92" transform="translate(0 -0.02)"/><path class="cls-8" d="M407.31,23.08c5.06,8.68,8,16.64,13,25.33" transform="translate(0 -0.02)"/><path class="cls-8" d="M411.65,10.78c8.68,12.3,25.33,13,26,28.94" transform="translate(0 -0.02)"/><path class="cls-8" d="M434.08,28.87c1.45-2.17,2.9-3.62,4.34-5.79" transform="translate(0 -0.02)"/><path class="cls-8" d="M463,62.15c-8.69-21-27.5-20.26-36.91-25.32" transform="translate(0 -0.02)"/><path class="cls-8" d="M452.17,39.72c11.58,4.34,17.37,11.58,17.37,21" transform="translate(0 -0.02)"/><path class="cls-8" d="M434.8,15.84c14.47,3.62,26.77,9.41,36.9,19.54" transform="translate(0 -0.02)"/><path class="cls-8" d="M460.86,44.06c3.61-9.4,20.26-11.57,41.24-12.3" transform="translate(0 -0.02)"/><path class="cls-8" d="M495.59,79.52C502.1,62.88,539,70.11,560,86" transform="translate(0 -0.02)"/><path class="cls-8" d="M427.57,97.61c11.58-5.79,25.33-7.24,39.07.73" transform="translate(0 -0.02)"/><path class="cls-8" d="M478.22,68.67c-10.85,10.85-21,21.7-7.23,34,25.32,24.6,40.52,38.35,18.81,60.06" transform="translate(0 -0.02)"/><path class="cls-8" d="M541.18,84.59c6.51,9.4,6.51,20.26,2.17,30.39" transform="translate(0 -0.02)"/><path class="cls-8" d="M501.38,112.81q15.2,9.76,17.37,30.39c7.23,34-2.18,42-12.31,49.21" transform="translate(0 -0.02)"/><path class="cls-8" d="M439.15,179.36c21.71,5.07,37.63,5.79,41.24-5.79" transform="translate(0 -0.02)"/><path class="cls-8" d="M463,183a29.4,29.4,0,0,1,13.77,5.79" transform="translate(0 -0.02)"/><path class="cls-8" d="M505,204c8-10.85,0-16.64-33.29-22.43" transform="translate(0 -0.02)"/><path class="cls-8" d="M510.8,121.49c12.31-9.41,14.48-24.6,21.71-36.9" transform="translate(0 -0.02)"/><path class="cls-8" d="M560.71,122.21c15.2-1.44,26.78,4.35,36.19,16.65" transform="translate(0 -0.02)"/><path class="cls-8" d="M583.87,111.36c4.34,1.45,11.58,3.62,20.26,5.79" transform="translate(0 -0.02)"/><path class="cls-8" d="M635.25,177.21c-10.13,3.62-16.65,11.58-20.26,22.43-9.41,7.24-14.48,18.09-17.37,29.67" transform="translate(0 -0.02)"/><path class="cls-8" d="M671.43,272.73c5.06,2.17,8,5.79,8,11.58" transform="translate(0 -0.02)"/><path class="cls-8" d="M656.23,204.71c-2.89,3.61-6.51,5.06-11.58,5.79-6.51,5.79-10.85,12.3-10.85,20.26,5.07,12.3,5.79,21.71,2.9,29.67" transform="translate(0 -0.02)"/><path class="cls-8" d="M636,220.63a21.7,21.7,0,0,0-5.06-13.75" transform="translate(0 -0.02)"/><path class="cls-8" d="M653.34,259c4.34-6.51,7.23-13.75,7.23-24.6.73-8.69,2.9-15.92,6.52-20.27" transform="translate(0 -0.02)"/><path class="cls-8" d="M660.57,240.89c7.24.72,9.41,5.06,8.69,10.85,5.06,4.34,7.23,10.86,9.4,16.65" transform="translate(0 -0.02)"/><path class="cls-8" d="M465.2,109.91c-6.51,13-18.09,25.33-19.54,39.08-11.58,25.33-51.38,23.15-60.78,42.69" transform="translate(0 -0.02)"/><path class="cls-8" d="M533.22,345.09c-27.5,10.13-57.89,21.71-81.77,44.14" transform="translate(0 -0.02)"/><path class="cls-8" d="M455.07,380.55,481.12,361" transform="translate(0 -0.02)"/><path class="cls-8" d="M545.52,348c-24.6,8-50.65,18.09-75.26,31.12" transform="translate(0 -0.02)"/><path class="cls-8" d="M562.16,348.71c-37.63,12.3-78.87,29.67-115.78,47" transform="translate(0 -0.02)"/><path class="cls-8" d="M442.8,398.64C497.08,376.21,555,358.84,610,342.92m8.68,2.89c-31.84,10.13-161.4,55.72-175.15,55.72Z" transform="translate(0 -0.02)"/><path class="cls-8" d="M620.05,361c-33.25,12.35-143.25,40.52-169.33,43.42,57.17-18.82,112.89-34,168.61-51.38" transform="translate(0 -0.02)"/><path class="cls-8" d="M459.41,366.8c-8.69,37.63-29,40.52-52.1,34-9.41-7.24-18.82-7.24-28.22-7.24" transform="translate(0 -0.02)"/><path class="cls-8" d="M441.32,400.08a79.63,79.63,0,0,0,10.85-31.83" transform="translate(0 -0.02)"/><path class="cls-8" d="M434.8,402.25c6.51-8.68,10.13-20.26,11.57-34" transform="translate(0 -0.02)"/><path class="cls-8" d="M426.12,403.7c10.13-8.68,13.75-20.26,13-35.45" transform="translate(0 -0.02)"/><path class="cls-8" d="M421.06,403c7.23-9.41,12.3-20.26,13-33.29" transform="translate(0 -0.02)"/><path class="cls-8" d="M414.54,403a85.52,85.52,0,0,0,15.92-32.56" transform="translate(0 -0.02)"/><path class="cls-8" d="M409.48,401.53l16.64-30.39" transform="translate(0 -0.02)"/><path class="cls-8" d="M405.14,400.08c4.34-9.4,7.23-20.26,13-27.49" transform="translate(0 -0.02)"/><path class="cls-8" d="M402.24,397.19c3.62-8,5.07-17.37,8-24.6" transform="translate(0 -0.02)"/><path class="cls-8" d="M398.62,396.47c.73-8.69,2.9-16.65,5.07-24.61" transform="translate(0 -0.02)"/><path class="cls-8" d="M394.28,395l2.9-25.33" transform="translate(0 -0.02)"/><path class="cls-8" d="M391.39,394.29a89.11,89.11,0,0,1-2.17-19.53" transform="translate(0 -0.02)"/><path class="cls-8" d="M385.6,393.57c-2.9-5.06-2.9-10.13-2.17-15.19" transform="translate(0 -0.02)"/><path class="cls-8" d="M381.26,393.57l-2.9-13" transform="translate(0 -0.02)"/><path class="cls-8" d="M400.8,396.47c-1.44,8,2.18,14.47,8.69,20.26" transform="translate(0 -0.02)"/><path class="cls-8" d="M393.56,395c-1.45,10.13,1.45,20.26,10.13,26.77" transform="translate(0 -0.02)"/><path class="cls-8" d="M383.43,394.29c2.17,13.75,8.68,24.61,18.81,31.12" transform="translate(0 -0.02)"/><path class="cls-8" d="M402.24,425.41c6.51-7.23,12.3-15.92,18.82-21.71" transform="translate(0 -0.02)"/><path class="cls-8" d="M604.13,366.07q-30.39,31.49-80.33,52.11c-28.22-2.18-56.44-11.58-84.66-17.37" transform="translate(0 -0.02)"/><path class="cls-8" d="M465.2,402.25c23.15,3.62,45.58,7.24,68.74,11.58" transform="translate(0 -0.02)"/><path class="cls-8" d="M544.07,408.77c-21-3.62-41.24-7.24-61.51-10.13" transform="translate(0 -0.02)"/><path class="cls-8" d="M501.38,394.29c18.09,2.9,33.28,5.07,50.65,10.14" transform="translate(0 -0.02)"/><path class="cls-8" d="M515.13,390.68a115.77,115.77,0,0,1,44.86,9.4" transform="translate(0 -0.02)"/><path class="cls-8" d="M535.39,385.61A115.22,115.22,0,0,1,568.68,395" transform="translate(0 -0.02)"/><path class="cls-8" d="M577.36,389.23c-6.51-.72-14.47,0-21.71,0" transform="translate(0 -0.02)"/><path class="cls-8" d="M585.32,382.72c-14.47,2.89-27.5,2.89-38.35,0" transform="translate(0 -0.02)"/><path class="cls-8" d="M557.1,379.82c6.51,1.45,20.26,0,34-2.17A198,198,0,0,0,620,366.8" transform="translate(0 -0.02)"/><path class="cls-8" d="M405.14,423.24c24.6,17.37,61.51,29.67,104.2,33.29" transform="translate(0 -0.02)"/><path class="cls-8" d="M407.31,418.9c29.67,22.43,70.19,30.39,115,33.29" transform="translate(0 -0.02)"/><path class="cls-8" d="M410.2,416.73c47.76,28.22,88.28,34,125.91,27.49" transform="translate(0 -0.02)"/><path class="cls-8" d="M412.37,413.11c47,26.05,90.46,32.56,131.7,26.77" transform="translate(0 -0.02)"/><path class="cls-8" d="M415.27,409.49c50.65,24.6,96.24,31.12,139.66,26.05" transform="translate(0 -0.02)"/><path class="cls-8" d="M418.89,406.6c45.58,22.43,93.34,29.66,143.27,24.6" transform="translate(0 -0.02)"/><path class="cls-8" d="M426.85,403.7c48.48,23.16,95.51,23.88,142.55,22.43" transform="translate(0 -0.02)"/><path class="cls-8" d="M523.8,418.18c5.07,6.51,23.16,6.51,51.38,2.17" transform="translate(0 -0.02)"/><path class="cls-8" d="M532.49,414.56c4.35,6.51,24.61,4.34,49.93.72" transform="translate(0 -0.02)"/><path class="cls-8" d="M545.52,408.77c9.41,2.89,33.29-2.9,60.06-10.13" transform="translate(0 -0.02)"/><path class="cls-8" d="M537.56,412.36c6.51,4.34,31.12.72,57.89-5.07" transform="translate(0 -0.02)"/><path class="cls-8" d="M615.71,386.36c-29.67,13-52.1,20.26-63.68,18.81" transform="translate(0 -0.02)"/><path class="cls-8" d="M560,400.08c15.92-.72,36.91-9.4,57.89-18.09" transform="translate(0 -0.02)"/><path class="cls-8" d="M570.12,394.29c15.92-3.61,32.57-10.13,49.21-17.36" transform="translate(0 -0.02)"/><path class="cls-8" d="M620.05,371.14a268.59,268.59,0,0,1-39.8,15.92" transform="translate(0 -0.02)"/><path class="cls-8" d="M434.08,402.25a377.07,377.07,0,0,0,101.31,21" transform="translate(0 -0.02)"/><path class="cls-9" d="M615,198.92c-1.45-21.71-35.46-55.72-55.72-49.21C575.91,138.13,619.33,166.36,615,198.92Z" transform="translate(0 -0.02)"/><path class="cls-9" d="M166.34,363.18c-2.89-20.26,6.51-38.35,21.71-53.55,16.64-13,13-31.84,20.26-37.63,10.13-19.53,36.91-31.84,74.54-38.35,11.57-13.75,26.77-21,47.75-20.26,14.48-12.3,27.5-23.88,54.28-23.88a81.54,81.54,0,0,0,6.51,18.85c-2.9-3.61-7.24-8-10.13-13-23.88-2.17-40.53,11.58-49.93,23.16-16.65-3.62-31.12,1.44-44.87,17.36-38.35,7.24-65.85,18.82-75.25,38.36-5.07,17.36-10.86,31.83-21.71,37.62-12.3,13-23.16,31.84-15.92,59.34C171.41,369,169.24,365.36,166.34,363.18Z" transform="translate(0 -0.02)"/><path class="cls-9" d="M385.6,6.44c-6.51,4.34-3.62,15.19-8,23.15-34.73,2.17-54.27,15.2-47.76,39.08,8,9.4,9.41,15.92,4.34,20.26-10.13,5.79-13.75,21-17.36,37.63-7.24,9.4-11.58,24.6-11.58,40.52-.73,13.75-21,21.71-18.09,33.29H290c0-5.07,2.9-10.13,8-14.48,6.51-3.62,9.41-12.3,11.58-23.88-.72-10.13,2.17-20.26,10.13-31.11,3.62-13.75,5.07-34,19.54-40.53,8.68-3.61,3.62-13-4.34-24.6-9.41-23.15,15.92-28.94,42.69-32.56,10.85-2.9,8-20.26,15.2-26A24.87,24.87,0,0,0,385.6,6.44Z" transform="translate(0 -0.02)"/><path class="cls-8" d="M358.8,83.14C352.29,81,346.5,81.69,341.44,86" transform="translate(0 -0.02)"/><path class="cls-9" d="M628.73,149c-5.06,5.79-10.85,12.3-16.64,18.09,5.07,0,11.58-3.62,20.26-14.47Z" transform="translate(0 -0.02)"/><path class="cls-9" d="M612.8,167.8c-12.31,10.13-24.61,21-33.29,31.84-6.51,8.68-7.24,21-5.07,34.74,1.45,10.13,2.9,20.26,5.07,29.66a29.47,29.47,0,0,1,8,.73c11.58,11.58,40.52,9.41,49.21,13.75,5.06,7.23,9.4,12.3,12.3,10.85A47.21,47.21,0,0,1,659.87,306c-2.17-7.23,2.17-7.23-13-24.6-6.52-6.51-21.71-10.13-45.59-13.75-16.65-5.79-20.26-15.92-21.71-28.94-2.89-12.3-4.34-23.88,0-36.18C588.94,191,600.51,179.36,612.8,167.8Z" transform="translate(0 -0.02)"/><path class="cls-10" d="M385.6,193.13,575.91,222.8" transform="translate(0 -0.02)"/><path class="cls-9" d="M581.7,261.87c2.17,16.65,8,31.84,20.26,43.42,24.61.72,39.8,14.47,61.51,15.2l-5.07,5.06c-10.13.73-19.53-8-28.94-9.4-8-2.9-23.88-3.62-31.12-7.24C587.49,293.71,581,277.79,581.7,261.87Z" transform="translate(0 -0.02)"/><path class="cls-10" d="M287.91,198.2l16.64,21.7" transform="translate(0 -0.02)"/><path class="cls-11" d="M546.36,21c0-3.72-2-5.38-6.84-5.38h-4.9V33.36h1.78V26.18h3.4C544.63,26.18,546.36,24.36,546.36,21Zm-1.8,0c0,2.57-1.34,3.58-4.87,3.58H536.4V17.23h2.52C542.3,17.23,544.56,17.36,544.56,21Zm17,12.36V20.23H559.8v2.33a5.86,5.86,0,0,0-5.19-2.64,6.88,6.88,0,0,0-.39,13.75h.51a5.68,5.68,0,0,0,5.07-2.61v2.3Zm-1.76-6.62a5.12,5.12,0,0,1-4.94,5.3h-.06a5.21,5.21,0,0,1-5.26-5.16v-.17a5.16,5.16,0,0,1,5.14-5.16h0a5.1,5.1,0,0,1,5.1,5.1Zm10.28-5.07V19.92a3.86,3.86,0,0,0-3.72,2.18V20.23h-1.77V33.36h1.77V25.7c0-2.44,1.21-3.79,3.68-4Zm3.46,11.69V20.23H571.8V33.36Zm0-14.57v-3H571.8v3Zm16.18,8.57c0-4.65-3-7.46-6.84-7.46a6.75,6.75,0,0,0-6.81,6.69v.13a6.86,6.86,0,0,0,6.79,6.93H583A6.93,6.93,0,0,0,589.39,29h-1.85A5,5,0,0,1,583,32a5.07,5.07,0,0,1-5.15-4.66ZM588,25.76H577.89a5,5,0,0,1,5-4.23A5.09,5.09,0,0,1,588,25.78Zm10-3.94V20.23h-3V15.62h-1.77v4.61h-2.83v1.61h2.83V33.36H595V21.84Zm14.51,11.54V20.23h-1.77v2.33a5.86,5.86,0,0,0-5.19-2.64,6.88,6.88,0,0,0-.39,13.75h.51a5.68,5.68,0,0,0,5.07-2.61v2.3Zm-1.77-6.62a5.12,5.12,0,0,1-4.94,5.3h-.06a5.21,5.21,0,0,1-5.25-5.17v-.16a5.16,5.16,0,0,1,5.14-5.16h0a5.1,5.1,0,0,1,5.09,5.11v.08Zm6.56,6.62V15.62h-1.77V33.36Zm11.46,0V15.62h-1.77V33.36Zm16.23-6.53a6.65,6.65,0,0,0-6.36-6.91h-.45a6.88,6.88,0,0,0-.37,13.76h.51A6.57,6.57,0,0,0,645,27.23C645,27.09,645,27,644.94,26.83Zm-1.8,0A4.87,4.87,0,0,1,638.57,32h-.35a5.25,5.25,0,1,1,4.91-5.57C643.14,26.57,643.14,26.7,643.14,26.83Zm18.18-.08a6.79,6.79,0,0,0-6.74-6.86h-.18a6,6,0,0,0-5.16,2.57V15.62h-1.77V33.36h1.77V31.1a6,6,0,0,0,5.14,2.57,6.75,6.75,0,0,0,6.94-6.56v-.36Zm-1.8,0a5.14,5.14,0,0,1-5,5.3h-.21a5.26,5.26,0,0,1-5.21-5.3,5.16,5.16,0,0,1,5.15-5.19h.09a5.06,5.06,0,0,1,5.16,5v.22Zm17.46.64c0-4.65-3-7.46-6.84-7.46a6.75,6.75,0,0,0-6.82,6.68v.14a6.84,6.84,0,0,0,13.32,2.3H674.8a5.08,5.08,0,0,1-9.7-1.69Zm-1.78-1.6h-10a5,5,0,0,1,5-4.23,5.08,5.08,0,0,1,5,4.22Z" transform="translate(0 -0.02)"/><path class="cls-11" d="M190.86,443.23v-1.61H181v1.61H185v16.13h1.78V443.23Zm13.63,10.13c0-4.65-3-7.46-6.84-7.46a6.75,6.75,0,0,0-6.82,6.68v.14a6.88,6.88,0,0,0,6.81,6.93h.13a6.94,6.94,0,0,0,6.38-4.63H202.3a5,5,0,0,1-4.58,3,5.06,5.06,0,0,1-5.11-4.66Zm-1.78-1.6H192.65a5,5,0,0,1,5-4.23,5.09,5.09,0,0,1,5.06,4.25Zm23.72,7.6v-7.8c0-3.82-2.16-5.66-5.16-5.66a5,5,0,0,0-4.56,2.54,4.54,4.54,0,0,0-4.29-2.52,4.13,4.13,0,0,0-3.7,1.82v-1.51H207v13.13h1.77V451.7c0-2.61,1.32-4.15,3.53-4.15,2,0,3.55,1.23,3.55,4.15v7.66h1.78v-7.61c0-3,1.51-4.22,3.6-4.22s3.48,1.27,3.48,4.22v7.61Zm17.24-6.53a6.79,6.79,0,0,0-6.67-6.91h-.24a5.92,5.92,0,0,0-5.16,2.57v-2.26h-1.8V464h1.78V457.1a5.91,5.91,0,0,0,5.11,2.57,6.82,6.82,0,0,0,7-6.66Zm-1.8,0a5.2,5.2,0,1,1-10.39.36,3.38,3.38,0,0,1,0-.45,5.2,5.2,0,1,1,10.39-.36A3.38,3.38,0,0,1,241.87,452.83Zm17.51,0a6.65,6.65,0,0,0-6.36-6.91h-.46a6.88,6.88,0,0,0-.35,13.76h.5a6.56,6.56,0,0,0,6.67-6.44,2.67,2.67,0,0,0,0-.4Zm-1.8,0A4.89,4.89,0,0,1,253,458h-.33a5.25,5.25,0,1,1,4.91-5.57C257.58,452.57,257.58,452.7,257.58,452.83Zm9.82-5.19v-1.75a3.86,3.86,0,0,0-3.72,2.18V446.2h-1.77v13.16h1.77V451.7c0-2.44,1.25-3.79,3.72-4Zm14.4,11.72V446.23H280v2.33a5.84,5.84,0,0,0-5.18-2.64,6.88,6.88,0,0,0-.39,13.75H275a5.66,5.66,0,0,0,5.06-2.61v2.3ZM280,452.74a5.12,5.12,0,0,1-4.94,5.3H275a5.21,5.21,0,0,1-5.26-5.16v-.17a5.16,5.16,0,0,1,5.16-5.16h0a5.1,5.1,0,0,1,5.07,5.13v.06Zm6.57,6.62V441.62H284.8v17.74Zm11.46,0V441.62h-1.78v17.74Zm16.23-6.53a6.65,6.65,0,0,0-6.36-6.91h-.46a6.88,6.88,0,0,0-.37,13.76h.51a6.58,6.58,0,0,0,6.66-6.48c0-.12,0-.24,0-.36Zm-1.8,0a4.89,4.89,0,0,1-4.59,5.17h-.33a5.25,5.25,0,1,1,4.91-5.57C312.48,452.57,312.48,452.7,312.48,452.83Zm18.17-.08a6.79,6.79,0,0,0-6.72-6.86h-.19a6,6,0,0,0-5.16,2.57v-6.87H316.8v17.77h1.78V457.1a6,6,0,0,0,5.14,2.57,6.75,6.75,0,0,0,6.9-6.6v-.29Zm-1.8,0a5.14,5.14,0,0,1-5,5.3h-.22a5.26,5.26,0,0,1-5.21-5.3,5.16,5.16,0,0,1,5.13-5.19h.1a5.06,5.06,0,0,1,5.11,5v.17Zm17.46.64c0-4.65-3-7.46-6.84-7.46a6.75,6.75,0,0,0-6.81,6.69v.13a6.86,6.86,0,0,0,6.79,6.93h.14a6.93,6.93,0,0,0,6.39-4.63H344.1a5,5,0,0,1-4.58,3,5.08,5.08,0,0,1-5.12-4.69Zm-1.77-1.6H334.45a5,5,0,0,1,5-4.23,5.09,5.09,0,0,1,5.06,4.22Z" transform="translate(0 -0.02)"/><path class="cls-11" d="M9.62,17.23V15.62h-9V33.36H2.4V25.25h7V23.64h-7V17.23Zm7.6,4.44V19.92A3.86,3.86,0,0,0,13.5,22.1V20.23H11.73V33.36H13.5V25.7C13.5,23.26,14.8,21.91,17.22,21.67Zm14.2,5.16a6.65,6.65,0,0,0-6.36-6.91H24.6a6.88,6.88,0,0,0-.28,13.76h.48a6.56,6.56,0,0,0,6.63-6.49C31.43,27.06,31.42,27,31.42,26.83Zm-1.8,0A4.89,4.89,0,0,1,25,32H24.7a5.25,5.25,0,1,1,4.91-5.57C29.62,26.57,29.62,26.7,29.62,26.83Zm15.94,6.53V26.47c0-4.61-2.33-6.55-5.62-6.55a5.19,5.19,0,0,0-4.22,2V20.23H33.94V33.36h1.78V26.14c0-3.22,1.63-4.59,4-4.59s4,1.35,4,4.92v6.89Zm9.37-11.52V20.23H52V15.62H50.2v4.61H47.37v1.61H50.2V33.36H52V21.84ZM69.48,33.36V20.23H67.71v2.33a5.86,5.86,0,0,0-5.19-2.64,6.88,6.88,0,1,0-.39,13.75h.51a5.68,5.68,0,0,0,5.07-2.61v2.3Zm-1.77-6.62A5.12,5.12,0,0,1,62.77,32h-.06a5.21,5.21,0,0,1-5.26-5.16v-.17a5.16,5.16,0,0,1,5.16-5.16,5.1,5.1,0,0,1,5.1,5.1Zm6.57,6.62V15.62H72.5V33.36Zm11.46,0V15.62H84V33.36ZM102,26.83a6.65,6.65,0,0,0-6.36-6.91h-.46a6.88,6.88,0,0,0-.37,13.76h.51A6.57,6.57,0,0,0,102,27.22,2.54,2.54,0,0,0,102,26.83Zm-1.81,0A4.87,4.87,0,0,1,95.59,32h-.35a5.25,5.25,0,1,1,4.91-5.57C100.16,26.57,100.16,26.7,100.16,26.83Zm18.18-.08a6.79,6.79,0,0,0-6.72-6.86h-.19a6,6,0,0,0-5.16,2.57V15.62h-1.78V33.36h1.78V31.1a6,6,0,0,0,5.13,2.57,6.75,6.75,0,0,0,6.94-6.56v-.36Zm-1.8,0a5.14,5.14,0,0,1-5,5.3h-.22a5.26,5.26,0,0,1-5.21-5.3,5.16,5.16,0,0,1,5.13-5.19h.1a5.06,5.06,0,0,1,5.16,5v.22Zm17.46.61c0-4.65-2.95-7.46-6.84-7.46a6.75,6.75,0,0,0-6.81,6.69v.13a6.86,6.86,0,0,0,6.79,6.93h.14A6.93,6.93,0,0,0,133.67,29H131.8a5,5,0,0,1-4.59,3,5.09,5.09,0,0,1-5.09-4.66Zm-1.77-1.6H122.17a5,5,0,0,1,5-4.23,5.09,5.09,0,0,1,5.06,4.25Z" transform="translate(0 -0.02)"/><path class="cls-11" d="M711.6,263.5a9.37,9.37,0,1,0-9.57,9.17h.21A9.31,9.31,0,0,0,711.6,263.5Zm-1.8,0a7.57,7.57,0,1,1-7.56-7.59,7.57,7.57,0,0,1,7.56,7.59Zm17.45,5h-2c-1.36,1.82-2.64,2.54-4.48,2.54a5.25,5.25,0,0,1-.07-10.49,5.07,5.07,0,0,1,4.55,2.67h2a7,7,0,1,0-6.41,9.45C723.53,272.67,725.67,271.5,727.25,268.5Zm15.54,0h-2c-1.36,1.82-2.64,2.54-4.48,2.54a5.25,5.25,0,0,1-.08-10.49,5.09,5.09,0,0,1,4.56,2.67h2a7,7,0,1,0-6.41,9.45c2.69,0,4.83-1.17,6.42-4.17Zm4.24,3.86V259.23h-1.78v13.13Zm0-14.57v-3h-1.78v3Zm16.87,8a6.79,6.79,0,0,0-6.67-6.91H757a5.94,5.94,0,0,0-5.16,2.57v-2.26h-1.78v17.74h1.75v-6.87a5.91,5.91,0,0,0,5.11,2.57,6.82,6.82,0,0,0,7-6.65v-.19Zm-1.8,0a5.2,5.2,0,1,1-10.39.36,3.38,3.38,0,0,1,0-.45,5.2,5.2,0,1,1,10.39-.36A3.38,3.38,0,0,1,762.1,265.79Zm6.09,6.53V259.23h-1.78v13.13Zm0-14.57v-3h-1.78v3Zm9.36,3.05v-1.61h-3v-4.61H772.8v4.61H770v1.61h2.84v11.56h1.77V260.84Zm14.56,11.56V259.23h-1.78v2.33a5.82,5.82,0,0,0-5.18-2.64,6.88,6.88,0,0,0-.39,13.75h.51a5.66,5.66,0,0,0,5.06-2.61v2.3Zm-1.78-6.62a5.12,5.12,0,0,1-4.92,5.3h-.08a5.21,5.21,0,0,1-5.25-5.17v-.16a5.16,5.16,0,0,1,5.14-5.16h0a5.09,5.09,0,0,1,5.09,5.09v.1Zm6.57,6.62V254.62h-1.77v17.74Zm-101.81,35V289.62h-1.78v17.74Zm16.23-6.53a6.65,6.65,0,0,0-6.36-6.91h-.46a6.88,6.88,0,0,0-.37,13.76h.51a6.57,6.57,0,0,0,6.68-6.45,2.54,2.54,0,0,0,0-.39Zm-1.8,0a4.89,4.89,0,0,1-4.59,5.17h-.33a5.25,5.25,0,1,1,4.91-5.57C709.52,300.57,709.52,300.7,709.52,300.83Zm18.17-.08a6.79,6.79,0,0,0-6.72-6.86h-.19a6,6,0,0,0-5.16,2.57v-6.87H713.8v17.77h1.78V305.1a6,6,0,0,0,5.14,2.57,6.75,6.75,0,0,0,7-6.52v-.4Zm-1.8,0a5.14,5.14,0,0,1-5,5.3h-.22a5.26,5.26,0,0,1-5.21-5.3,5.16,5.16,0,0,1,5.13-5.19h.1a5.06,5.06,0,0,1,5.16,5v.22Zm17.46.64c0-4.65-3-7.46-6.83-7.46a6.75,6.75,0,0,0-6.82,6.68v.14a6.88,6.88,0,0,0,6.81,6.93h.13a6.94,6.94,0,0,0,6.38-4.63h-1.85a5,5,0,0,1-4.58,3,5.08,5.08,0,0,1-5.12-4.66Zm-1.77-1.6H731.52a5,5,0,0,1,5-4.23,5.09,5.09,0,0,1,5.06,4.22Z" transform="translate(0 -0.02)"/></svg>