<?xml version="1.0" encoding="utf-8"?>
<!-- Generator: Adobe Illustrator 25.0.1, SVG Export Plug-In . SVG Version: 6.00 Build 0)  -->
<svg version="1.1" id="Layer_1" xmlns="http://www.w3.org/2000/svg" xmlns:xlink="http://www.w3.org/1999/xlink" x="0px" y="0px"
	 viewBox="0 0 627 600" style="enable-background:new 0 0 627 600;" xml:space="preserve">
<style type="text/css">
	.st0{fill:#9F9191;}
	.st1{fill:#FBFBFB;}
	.st2{fill:none;stroke:#9F9191;stroke-width:4.6436;}
	.st3{fill:none;stroke:#FFFFFF;stroke-width:3.4827;stroke-dasharray:6.97,3.48;}
	.st4{fill:none;stroke:#FFFFFF;stroke-width:9.2872;}
	.st5{fill:none;stroke:#FFFFFF;stroke-width:2.3218;}
	.st6{fill:none;stroke:#9F9191;stroke-width:3;}
	.st7{fill:none;stroke:#9F9191;stroke-width:2;}
	.st8{fill:#555353;}
</style>
<g id="Button5">
	<circle class="st0" cx="604.5" cy="351.5" r="22.5"/>
	<path class="st1" d="M610.5,357.1c0-3.5-2.4-6-5.6-6c-0.8,0-1.4,0.1-2.3,0.5l0.6-3.3h5.6v-3h-8l-1.7,9.3l2.8,0.8
		c0.8-1,1.5-1.3,2.5-1.3c1.6,0,2.9,1.4,2.9,3.2c0,1.9-1.2,3.3-2.9,3.3c-1.5,0-2.6-1-2.9-2.7h-3.2c0.2,3.3,3,5.6,6.2,5.6
		C607.9,363.3,610.5,360.6,610.5,357.1z"/>
</g>
<path class="st2" d="M84.5,335.3h160.9"/>
<path class="st3" d="M79.4,378.5H565"/>
<path class="st4" d="M84.5,375.5h149.2c3.8-12.6,8-25.9,12.1-39.2c14.3-46.2,28.9-93.5,33.4-116.1c33.7-169,45.4-158.9,55.2,3.7
	c4.8,78.5,25.7,168.3,45.3,201.9c30.7,52.5,47.6,70.4,87.7,9.1c36.7-56.1,50.2-58.6,102.7-59.3"/>
<path class="st5" d="M233.7,375.5c11.2-10.3,27.9-14.3,47.8,0 M233.7,375.5c17.6-40.5,44.8-12,62,0H233.7z"/>
<path class="st2" d="M84.5,22.4v480.4h488.3"/>
<path class="st6" d="M234.5,404.4v-19.1"/>
<path class="st0" d="M234.5,378.7l2.1,5.3l2.2,5.3h-4.3h-4.3l2.2-5.3L234.5,378.7z"/>
<path class="st7" d="M284.3,406.7v-19.1"/>
<path class="st0" d="M284.3,381l2.1,5.3l2.2,5.3h-4.3H280l2.2-5.3L284.3,381z"/>
<path class="st8" d="M53.1,101.9h-4.9v4.9h-1.5v-4.9h-4.9v-1.5h4.9v-4.9h1.5v4.9h4.9V101.9z M65.9,103.3h-2v3.8h-1.7v-3.8h-6.5v-2.1
	l6.5-7.6h1.7v8.3h2V103.3z M62.1,101.9v-6.1l-5.2,6.1H62.1z M77.4,100.4c0,2.4-0.4,4.2-1.1,5.3c-0.8,1.1-1.9,1.7-3.5,1.7
	c-1.6,0-2.8-0.6-3.6-1.7c-0.7-1.1-1.1-2.9-1.1-5.3c0-2.4,0.4-4.2,1.1-5.3c0.8-1.1,1.9-1.7,3.5-1.7c1.6,0,2.8,0.6,3.5,1.8
	C77,96.2,77.4,98,77.4,100.4z M75,104.5c0.2-0.5,0.4-1.1,0.4-1.7c0.1-0.7,0.1-1.5,0.1-2.4c0-0.9,0-1.7-0.1-2.4
	c-0.1-0.7-0.2-1.3-0.4-1.7c-0.2-0.5-0.5-0.8-0.9-1.1c-0.4-0.2-0.8-0.4-1.4-0.4c-0.6,0-1,0.1-1.4,0.4c-0.4,0.2-0.7,0.6-0.9,1.1
	c-0.2,0.4-0.3,1-0.4,1.8c-0.1,0.7-0.1,1.5-0.1,2.4c0,0.9,0,1.7,0.1,2.4c0.1,0.6,0.2,1.2,0.4,1.7c0.2,0.5,0.5,0.8,0.8,1.1
	c0.4,0.2,0.9,0.4,1.5,0.4c0.6,0,1-0.1,1.4-0.4C74.5,105.3,74.8,104.9,75,104.5z"/>
<path class="st8" d="M77.3,214.4c0,2.4-0.4,4.2-1.1,5.3c-0.8,1.1-1.9,1.7-3.5,1.7c-1.6,0-2.8-0.6-3.6-1.7c-0.7-1.1-1.1-2.9-1.1-5.3
	c0-2.4,0.4-4.2,1.1-5.3c0.8-1.1,1.9-1.7,3.5-1.7c1.6,0,2.8,0.6,3.5,1.8C76.9,210.2,77.3,212,77.3,214.4z M74.9,218.5
	c0.2-0.5,0.4-1.1,0.4-1.7c0.1-0.7,0.1-1.5,0.1-2.4c0-0.9,0-1.7-0.1-2.4c-0.1-0.7-0.2-1.3-0.4-1.7c-0.2-0.5-0.5-0.8-0.9-1.1
	c-0.4-0.2-0.8-0.4-1.4-0.4c-0.6,0-1,0.1-1.4,0.4c-0.4,0.2-0.7,0.6-0.9,1.1c-0.2,0.4-0.3,1-0.4,1.8c-0.1,0.7-0.1,1.5-0.1,2.4
	c0,0.9,0,1.7,0.1,2.4c0.1,0.6,0.2,1.2,0.4,1.7c0.2,0.5,0.5,0.8,0.8,1.1c0.4,0.2,0.9,0.4,1.5,0.4c0.6,0,1-0.1,1.4-0.4
	C74.4,219.3,74.7,218.9,74.9,218.5z"/>
<path class="st8" d="M53.7,337.9H48v-1.6h5.7V337.9z M65.6,338.7c0,0.6-0.1,1.2-0.3,1.8c-0.2,0.6-0.5,1.1-0.9,1.5
	c-0.4,0.4-1,0.8-1.6,1c-0.6,0.2-1.3,0.3-2.1,0.3c-0.7,0-1.4-0.1-2.1-0.2c-0.7-0.2-1.3-0.3-1.7-0.6v-1.9h0.1c0.5,0.3,1.1,0.6,1.7,0.8
	c0.7,0.2,1.3,0.3,2,0.3c0.4,0,0.8-0.1,1.2-0.2c0.4-0.1,0.8-0.3,1.1-0.6c0.3-0.3,0.5-0.6,0.6-0.9c0.1-0.4,0.2-0.8,0.2-1.3
	c0-0.5-0.1-0.9-0.2-1.2c-0.2-0.3-0.4-0.6-0.7-0.8c-0.3-0.2-0.7-0.4-1.2-0.5c-0.4-0.1-0.9-0.1-1.5-0.1c-0.5,0-1,0-1.5,0.1
	c-0.5,0.1-0.9,0.1-1.3,0.2v-7h8.1v1.6h-6.4v3.6c0.3,0,0.5,0,0.8-0.1c0.3,0,0.5,0,0.7,0c0.7,0,1.4,0.1,1.9,0.2
	c0.6,0.1,1.1,0.3,1.5,0.7c0.5,0.3,0.9,0.8,1.1,1.3C65.4,337.3,65.6,337.9,65.6,338.7z M77.4,338.7c0,0.6-0.1,1.2-0.3,1.8
	c-0.2,0.6-0.5,1.1-0.9,1.5c-0.4,0.4-1,0.8-1.6,1c-0.6,0.2-1.3,0.3-2.1,0.3c-0.7,0-1.4-0.1-2.1-0.2c-0.7-0.2-1.3-0.3-1.7-0.6v-1.9
	h0.1c0.5,0.3,1.1,0.6,1.7,0.8c0.7,0.2,1.3,0.3,2,0.3c0.4,0,0.8-0.1,1.2-0.2c0.4-0.1,0.8-0.3,1.1-0.6c0.3-0.3,0.5-0.6,0.6-0.9
	c0.1-0.4,0.2-0.8,0.2-1.3c0-0.5-0.1-0.9-0.2-1.2c-0.2-0.3-0.4-0.6-0.7-0.8c-0.3-0.2-0.7-0.4-1.2-0.5c-0.4-0.1-0.9-0.1-1.5-0.1
	c-0.5,0-1,0-1.5,0.1c-0.5,0.1-0.9,0.1-1.3,0.2v-7h8.1v1.6h-6.4v3.6c0.3,0,0.5,0,0.8-0.1c0.3,0,0.5,0,0.7,0c0.7,0,1.4,0.1,1.9,0.2
	c0.6,0.1,1.1,0.3,1.5,0.7c0.5,0.3,0.9,0.8,1.1,1.3S77.4,337.9,77.4,338.7z"/>
<path class="st8" d="M53.6,376.6h-5.7v-1.6h5.7V376.6z M65.6,370.2l-6.1,11.5h-1.9l6.5-11.9h-7.7v-1.6h9.2V370.2z M77.3,374.9
	c0,2.4-0.4,4.2-1.1,5.3c-0.8,1.1-1.9,1.7-3.5,1.7c-1.6,0-2.8-0.6-3.6-1.7c-0.7-1.1-1.1-2.9-1.1-5.3c0-2.4,0.4-4.2,1.1-5.3
	c0.8-1.1,1.9-1.7,3.5-1.7c1.6,0,2.8,0.6,3.5,1.8C77,370.8,77.3,372.6,77.3,374.9z M75,379c0.2-0.5,0.4-1.1,0.4-1.7
	c0.1-0.7,0.1-1.5,0.1-2.4c0-0.9,0-1.7-0.1-2.4c-0.1-0.7-0.2-1.3-0.4-1.7c-0.2-0.5-0.5-0.8-0.9-1.1c-0.4-0.2-0.8-0.4-1.4-0.4
	c-0.6,0-1,0.1-1.4,0.4c-0.4,0.2-0.7,0.6-0.9,1.1c-0.2,0.4-0.3,1-0.4,1.8c-0.1,0.7-0.1,1.5-0.1,2.4c0,0.9,0,1.7,0.1,2.4
	c0.1,0.6,0.2,1.2,0.4,1.7c0.2,0.5,0.5,0.8,0.8,1.1c0.4,0.2,0.9,0.4,1.5,0.4c0.6,0,1-0.1,1.4-0.4C74.5,379.9,74.7,379.5,75,379z"/>
<path class="st8" d="M141.7,516.3c0,2.4-0.4,4.2-1.1,5.3c-0.8,1.1-1.9,1.7-3.5,1.7c-1.6,0-2.8-0.6-3.6-1.7c-0.7-1.1-1.1-2.9-1.1-5.3
	c0-2.4,0.4-4.2,1.1-5.3c0.8-1.1,1.9-1.7,3.5-1.7c1.6,0,2.8,0.6,3.5,1.8C141.4,512.2,141.7,514,141.7,516.3z M139.3,520.4
	c0.2-0.5,0.4-1.1,0.4-1.7c0.1-0.7,0.1-1.5,0.1-2.4c0-0.9,0-1.7-0.1-2.4c-0.1-0.7-0.2-1.3-0.4-1.7c-0.2-0.5-0.5-0.8-0.9-1.1
	c-0.4-0.2-0.8-0.4-1.4-0.4c-0.6,0-1,0.1-1.4,0.4c-0.4,0.2-0.7,0.6-0.9,1.1c-0.2,0.4-0.3,1-0.4,1.8c-0.1,0.7-0.1,1.5-0.1,2.4
	c0,0.9,0,1.7,0.1,2.4c0.1,0.6,0.2,1.2,0.4,1.7c0.2,0.5,0.5,0.8,0.8,1.1c0.4,0.2,0.9,0.4,1.5,0.4c0.6,0,1-0.1,1.4-0.4
	C138.8,521.3,139.1,520.9,139.3,520.4z"/>
<path class="st8" d="M221.7,523.1h-7.3v-1.4h2.8v-9.1h-2.8v-1.2c0.4,0,0.8,0,1.2-0.1c0.4-0.1,0.8-0.2,1-0.3c0.3-0.2,0.5-0.3,0.7-0.6
	c0.2-0.2,0.3-0.6,0.3-0.9h1.4v12.2h2.8V523.1z"/>
<path class="st8" d="M299.9,523.1h-9.1v-1.9c0.6-0.5,1.3-1.1,1.9-1.6c0.6-0.5,1.2-1.1,1.8-1.6c1.2-1.1,2-2,2.4-2.7
	c0.4-0.7,0.6-1.4,0.6-2.1c0-0.7-0.2-1.2-0.7-1.6c-0.5-0.4-1.1-0.6-1.9-0.6c-0.6,0-1.1,0.1-1.8,0.3c-0.6,0.2-1.3,0.5-1.9,0.9h-0.1
	v-1.9c0.4-0.2,1-0.4,1.7-0.6c0.7-0.2,1.4-0.3,2.1-0.3c1.4,0,2.5,0.3,3.3,1c0.8,0.7,1.2,1.6,1.2,2.7c0,0.5-0.1,1-0.2,1.4
	c-0.1,0.4-0.3,0.9-0.6,1.3c-0.2,0.4-0.5,0.7-0.8,1.1c-0.3,0.4-0.7,0.8-1.2,1.2c-0.6,0.6-1.3,1.3-2,1.9c-0.7,0.6-1.3,1.1-1.9,1.7h7.3
	V523.1z"/>
<path class="st8" d="M380,516.6c0.3,0.3,0.5,0.6,0.7,1c0.2,0.4,0.3,0.9,0.3,1.5c0,0.6-0.1,1.2-0.3,1.7c-0.2,0.5-0.5,1-0.9,1.3
	c-0.5,0.4-1,0.7-1.6,0.9c-0.6,0.2-1.3,0.3-2,0.3c-0.8,0-1.5-0.1-2.2-0.3c-0.7-0.2-1.3-0.4-1.8-0.6v-1.9h0.1c0.5,0.3,1.1,0.6,1.8,0.8
	c0.7,0.2,1.4,0.3,2,0.3c0.4,0,0.8-0.1,1.2-0.2c0.4-0.1,0.8-0.3,1-0.6c0.3-0.3,0.5-0.6,0.6-0.9c0.1-0.3,0.2-0.7,0.2-1.2
	c0-0.5-0.1-0.9-0.2-1.2c-0.2-0.3-0.4-0.6-0.6-0.8c-0.3-0.2-0.6-0.3-1-0.4c-0.4-0.1-0.8-0.1-1.3-0.1h-0.8V515h0.6
	c0.9,0,1.6-0.2,2.2-0.6c0.6-0.4,0.8-0.9,0.8-1.7c0-0.3-0.1-0.6-0.2-0.9c-0.1-0.2-0.3-0.4-0.6-0.6c-0.3-0.2-0.5-0.3-0.8-0.3
	c-0.3-0.1-0.6-0.1-1-0.1c-0.6,0-1.2,0.1-1.8,0.3c-0.6,0.2-1.3,0.5-1.8,0.9h-0.1v-1.9c0.4-0.2,1-0.4,1.7-0.6c0.7-0.2,1.4-0.3,2.1-0.3
	c0.7,0,1.2,0.1,1.7,0.2c0.5,0.1,1,0.3,1.4,0.6c0.4,0.3,0.8,0.6,1,1.1c0.2,0.4,0.3,0.9,0.3,1.4c0,0.8-0.3,1.4-0.8,2
	c-0.5,0.6-1.1,0.9-1.9,1.1v0.1c0.3,0,0.6,0.2,1,0.3C379.5,516.1,379.8,516.3,380,516.6z"/>
<path class="st8" d="M464.5,519.3h-2v3.8h-1.7v-3.8h-6.5v-2.1l6.5-7.6h1.7v8.3h2V519.3z M460.8,517.8v-6.1l-5.2,6.1H460.8z"/>
<path class="st8" d="M541.4,518.5c0,0.6-0.1,1.2-0.3,1.8c-0.2,0.6-0.5,1.1-0.9,1.5c-0.4,0.4-1,0.8-1.6,1c-0.6,0.2-1.3,0.3-2.1,0.3
	c-0.7,0-1.4-0.1-2.1-0.2c-0.7-0.2-1.3-0.3-1.7-0.6v-1.9h0.1c0.5,0.3,1.1,0.6,1.7,0.8c0.7,0.2,1.3,0.3,2,0.3c0.4,0,0.8-0.1,1.2-0.2
	c0.4-0.1,0.8-0.3,1.1-0.6c0.3-0.3,0.5-0.6,0.6-0.9c0.1-0.4,0.2-0.8,0.2-1.3c0-0.5-0.1-0.9-0.2-1.2c-0.2-0.3-0.4-0.6-0.7-0.8
	c-0.3-0.2-0.7-0.4-1.2-0.5c-0.4-0.1-1-0.1-1.5-0.1c-0.5,0-1,0-1.5,0.1c-0.5,0.1-0.9,0.1-1.3,0.2v-7h8.1v1.6H535v3.6
	c0.3,0,0.5,0,0.8-0.1c0.3,0,0.5,0,0.7,0c0.7,0,1.4,0.1,1.9,0.2c0.6,0.1,1.1,0.3,1.5,0.7c0.5,0.3,0.9,0.8,1.1,1.3
	S541.4,517.7,541.4,518.5z"/>
<path class="st8" d="M124.5,313.1v-2.4h-7.4v2.4h2.5V324h2.5v-10.9H124.5z M134.4,324v-5.6c0-3.3-1.5-4.6-3.9-4.6
	c-1,0-1.8,0.3-2.5,0.9v-4h-2.4V324h2.4v-5.1c0-2.2,0.7-3,2.1-3c1.4,0,1.9,0.8,1.9,2.9v5.1H134.4z M140.9,316.1v-2.3h-0.2
	c-1,0-1.5,0.3-2.2,1.2v-1h-2.2v10h2.4v-5.5C138.7,316.9,139.4,316.1,140.9,316.1z M151.7,319.2c0-3.1-2.2-5.4-5.1-5.4
	c-2.9,0-5.3,2.3-5.3,5.3c0,2.9,2.4,5.2,5.4,5.2c2,0,4.1-1.1,4.8-3.2h-2.6c-0.6,0.7-1.2,1-2.2,1c-1.4,0-2.5-0.8-2.8-2h7.7
	C151.7,319.7,151.7,319.5,151.7,319.2z M149.4,318h-5.5c0.4-1.3,1.3-2,2.8-2C148.1,316,149,316.7,149.4,318z M159.8,320.8
	c0-1.5-0.7-2.3-2.8-2.9c-1.6-0.5-1.7-0.6-1.7-1.1c0-0.5,0.4-0.8,0.9-0.8c0.5,0,0.8,0.3,0.9,0.8h2.3c-0.1-1.9-1.6-3-3.3-3
	c-1.9,0-3.3,1.3-3.3,3c0,1.5,0.8,2.3,2.8,3c1.6,0.5,1.7,0.7,1.7,1.3c0,0.6-0.5,1-1.1,1c-0.7,0-1.1-0.4-1.3-1.2h-2.4
	c0.3,2.3,1.7,3.4,3.7,3.4C158.3,324.2,159.8,322.7,159.8,320.8z M170,324v-5.6c0-3.3-1.5-4.6-3.9-4.6c-1,0-1.8,0.3-2.5,0.9v-4h-2.4
	V324h2.4v-5.1c0-2.2,0.7-3,2.1-3c1.4,0,1.9,0.8,1.9,2.9v5.1H170z M182.1,319.1c0-3-2.3-5.3-5.3-5.3c-2.9,0-5.3,2.4-5.3,5.2
	c0,2.9,2.4,5.2,5.3,5.2C179.7,324.2,182.1,321.9,182.1,319.1z M179.7,319c0,1.7-1.3,3-2.9,3c-1.6,0-2.9-1.4-2.9-3.1
	c0-1.6,1.3-3,2.9-3C178.4,316,179.7,317.4,179.7,319z M185.9,324v-13.3h-2.4V324H185.9z M197.9,324v-13.3h-2.4v4.2
	c-0.7-0.8-1.9-1.2-3.1-1.2c-2.8,0-5,2.3-5,5.3c0,3,2.2,5.2,5,5.2c1.3,0,2.3-0.5,3.3-1.5v1.3H197.9z M195.7,319
	c0,1.7-1.3,3.1-2.9,3.1c-1.7,0-3-1.4-3-3.1c0-1.7,1.3-3,2.9-3C194.4,315.9,195.7,317.2,195.7,319z"/>
<path class="st8" d="M235.9,274.2c-2.4-0.6-4.7-0.2-6.3,1.3c-0.9,0.8-1.6,2.3-2.1,4.3l-0.8,2.9l12.9,3.4l0.8-3
	c0.5-1.9,0.6-3.2,0.4-4.3C240.3,276.7,238.5,274.9,235.9,274.2z M235.3,276.6c1.5,0.4,2.7,1.5,3.1,2.8c0.2,0.8,0.1,1.9-0.3,3.3
	l-0.1,0.5l-8.3-2.2l0.1-0.5c0.4-1.5,0.8-2.3,1.3-2.9C232,276.6,233.6,276.2,235.3,276.6z M240.6,263.4c-3-0.8-5.7,0.7-6.5,3.6
	c-0.8,2.8,0.9,5.7,3.7,6.4c2.8,0.7,5.6-0.9,6.4-3.9c0.5-1.9,0-4.2-1.9-5.4l-0.7,2.5c0.5,0.8,0.6,1.4,0.4,2.4
	c-0.4,1.4-1.4,2.2-2.6,2.2l2-7.5C241.2,263.6,241,263.5,240.6,263.4z M238.9,265.4l-1.4,5.3c-1.1-0.7-1.6-1.8-1.2-3.2
	C236.6,266.1,237.6,265.4,238.9,265.4z M243.5,251.8c-2.9-0.8-5.5,0.7-6.3,3.5c-0.3,1.3-0.2,2.5,0.5,3.5l-1.1-0.3l-0.6,2.1l12.9,3.4
	l0.6-2.3l-4.1-1.1c1-0.7,1.6-1.5,1.9-2.7C248.1,255.2,246.4,252.6,243.5,251.8z M243,254.1c1.6,0.4,2.6,2,2.2,3.5
	c-0.4,1.6-2,2.5-3.7,2.1c-1.7-0.4-2.6-2-2.2-3.6C239.7,254.6,241.3,253.7,243,254.1z M246.6,240.6c-2.9-0.8-5.7,0.9-6.5,3.8
	c-0.7,2.8,0.9,5.7,3.7,6.4c2.8,0.7,5.7-1,6.4-3.8C251,244.3,249.3,241.3,246.6,240.6z M245.9,242.9c1.6,0.4,2.6,2,2.2,3.6
	c-0.4,1.6-2,2.5-3.7,2c-1.6-0.4-2.6-2-2.1-3.6C242.7,243.4,244.3,242.5,245.9,242.9z M252.3,238.2l-12.9-3.4l-0.6,2.3l12.9,3.4
	L252.3,238.2z M255.4,226.6l-9.6-2.6l-0.6,2.1l1.3,0.3c-1.3,0.5-2,1.4-2.3,2.7c-0.8,2.9,0.8,5.5,3.8,6.3c2.9,0.8,5.6-0.7,6.3-3.5
	c0.4-1.4,0.2-2.4-0.6-3.6l1.3,0.3L255.4,226.6z M250.1,227.6c1.6,0.4,2.6,1.8,2.1,3.6c-0.4,1.7-1.9,2.5-3.6,2.1
	c-1.8-0.5-2.7-2-2.3-3.6C246.8,227.9,248.3,227.1,250.1,227.6z M249.4,218.5l-2.2-0.6l0,0.2c-0.3,1-0.1,1.6,0.6,2.4l-0.9-0.2
	l-0.6,2.1l9.6,2.6l0.6-2.3l-5.4-1.4C249.6,220.8,249,219.9,249.4,218.5z M257.9,217l-9.6-2.6l-0.6,2.3l9.6,2.6L257.9,217z
	 M246.9,214.1l-2.3-0.6l-0.6,2.3l2.3,0.6L246.9,214.1z M260.2,208.4l-2.1-0.5l-1.2,4.6l-4.4-5.7l-2.1-0.5l-1.7,6.5l2.1,0.5l1-3.8
	l4.4,5.7l2.1,0.5L260.2,208.4z M263.2,197.4l-9.6-2.6l-0.6,2.1l1.3,0.3c-1.3,0.5-2,1.4-2.4,2.7c-0.8,2.9,0.8,5.5,3.8,6.3
	c2.9,0.8,5.6-0.7,6.3-3.5c0.4-1.4,0.2-2.4-0.6-3.6l1.3,0.3L263.2,197.4z M257.8,198.3c1.6,0.4,2.6,1.8,2.1,3.6
	c-0.4,1.7-1.9,2.5-3.6,2.1c-1.8-0.5-2.7-2-2.3-3.6C254.5,198.7,256.1,197.9,257.8,198.3z M257.2,189.6l-2.1-0.6l-0.4,1.4l-3.2-0.9
	l-0.6,2.3l3.2,0.9l-0.3,1.1l2.1,0.6l0.3-1.1l7.5,2l0.6-2.3l-7.5-2L257.2,189.6z M265.6,188.1l-9.6-2.6l-0.6,2.3l9.6,2.6L265.6,188.1
	z M254.6,185.2l-2.3-0.6l-0.6,2.3l2.3,0.6L254.6,185.2z M264,175.2c-2.9-0.8-5.7,0.9-6.5,3.8c-0.7,2.8,0.9,5.7,3.7,6.4
	c2.8,0.7,5.7-1,6.4-3.8C268.3,178.8,266.7,175.9,264,175.2z M263.3,177.5c1.6,0.4,2.6,2,2.2,3.6c-0.4,1.6-2,2.5-3.7,2
	c-1.6-0.4-2.6-2-2.1-3.5C260,178,261.7,177.1,263.3,177.5z M271.3,166.6l-5.2-1.4c-1.7-0.5-2.6-0.5-3.5-0.2
	c-1.1,0.4-1.8,1.3-2.2,2.6c-0.3,1.1-0.2,1.9,0.4,3l-0.9-0.2l-0.6,2.1l9.6,2.6l0.6-2.3l-4.5-1.2c-1.3-0.3-1.8-0.6-2.2-1
	c-0.5-0.5-0.6-1.2-0.4-1.9c0.3-1.1,0.9-1.7,3.5-1l4.7,1.3L271.3,166.6z"/>
<path class="st8" d="M162.9,397c0-1.8-0.7-3-3.4-4c-1.3-0.5-1.3-0.5-1.5-0.6c-0.5-0.3-0.7-0.7-0.7-1.2c0-0.8,0.6-1.4,1.4-1.4
	c0.8,0,1.3,0.5,1.4,1.4h2.6c-0.1-2.3-1.8-3.8-3.9-3.8s-3.9,1.7-3.9,3.8c0,1.7,1,3,2.8,3.6c1.8,0.7,1.9,0.7,2.3,1
	c0.4,0.3,0.6,0.8,0.6,1.4c0,1-0.7,1.6-1.8,1.6c-1.1,0-1.7-0.5-1.8-1.7h-2.6c0.2,2.5,2,4,4.4,4C161,401.2,162.9,399.4,162.9,397z
	 M168.7,393.2V391h-1.4v-3.3h-2.4v3.3h-1.2v2.2h1.2v7.8h2.4v-7.8H168.7z M172.3,401v-10h-2.4v10H172.3z M172.3,389.6v-2.4h-2.4v2.4
	H172.3z M189.2,401v-5.8c0-3-1.4-4.4-4-4.4c-1.4,0-2.4,0.5-3.2,1.5c-0.7-1.1-1.6-1.5-2.9-1.5c-1.2,0-1.9,0.3-2.6,1.2V391h-2.2v10
	h2.4v-4.9c0-2.4,0.6-3.1,1.9-3.1c1.3,0,1.9,0.6,1.9,2.5v5.5h2.4v-4.9c0-2.4,0.7-3.1,2-3.1c1.1,0,1.9,0.5,1.9,2.5v5.5H189.2z
	 M200,401v-10h-2.4v4.7c0,1.3-0.1,1.9-0.4,2.4c-0.4,0.6-1,0.9-1.8,0.9c-1.2,0-1.9-0.5-1.9-3.1V391h-2.4v5.3c0,3.5,1.5,4.9,3.8,4.9
	c1.2,0,2-0.3,2.9-1.2v1H200z M204.3,401v-13.3h-2.4V401H204.3z M215.1,401v-10h-2.4v4.7c0,1.3-0.1,1.9-0.4,2.4
	c-0.4,0.6-1,0.9-1.8,0.9c-1.2,0-1.9-0.5-1.9-3.1V391h-2.4v5.3c0,3.5,1.5,4.9,3.8,4.9c1.2,0,2-0.3,2.9-1.2v1H215.1z M223.6,397.8
	c0-1.5-0.7-2.3-2.8-2.9c-1.6-0.5-1.7-0.6-1.7-1.1c0-0.5,0.4-0.8,0.9-0.8c0.5,0,0.8,0.3,0.9,0.8h2.3c-0.1-1.9-1.6-3-3.3-3
	c-1.9,0-3.3,1.3-3.3,3c0,1.5,0.8,2.3,2.8,3c1.6,0.5,1.7,0.7,1.7,1.3c0,0.6-0.5,1-1.1,1c-0.7,0-1.1-0.4-1.3-1.2h-2.4
	c0.3,2.3,1.7,3.4,3.7,3.4C222.1,401.2,223.6,399.7,223.6,397.8z"/>
<path class="st8" d="M350.3,176.1l4.4-4.2c0.9,2.3,2.5,3.2,4.5,2.9c1.3-0.2,2.4-0.8,3.1-1.8c0.6-1,0.7-1.9,0.5-3.7l-0.5-3.8
	l-13.2,1.8l0.3,2.4l5-0.7l-4.6,4.1L350.3,176.1z M358.8,172.3c-1.4,0.2-2.1-0.5-2.4-2.4l-0.2-1.2l4-0.5l0.1,1.1
	C360.7,171.5,360,172.1,358.8,172.3z M356.6,186.5c3.1-0.4,5-2.9,4.6-5.8c-0.4-2.9-3-4.9-5.9-4.5c-2.9,0.4-4.8,3-4.4,6
	c0.3,2,1.7,3.9,3.8,4.3l-0.3-2.6c-0.8-0.5-1.1-1.1-1.3-2c-0.2-1.4,0.4-2.5,1.6-3l1,7.7C356,186.5,356.2,186.5,356.6,186.5z
	 M357.5,184l-0.7-5.5c1.3,0.2,2.1,1.1,2.3,2.5C359.2,182.5,358.7,183.5,357.5,184z M358.4,198.3c3-0.4,4.9-2.8,4.5-5.6
	c-0.2-1.3-0.8-2.4-1.8-3.1l1.2-0.2l-0.3-2.2l-13.2,1.8l0.3,2.4l4.2-0.6c-0.7,1-0.9,2-0.8,3.2C352.9,196.9,355.4,198.7,358.4,198.3z
	 M358,195.9c-1.7,0.2-3.1-0.8-3.4-2.4c-0.2-1.7,0.9-3.1,2.6-3.3c1.7-0.2,3.1,0.8,3.4,2.5C360.8,194.3,359.7,195.7,358,195.9z
	 M359.8,209.9c2.9-0.4,4.9-3,4.5-6c-0.4-2.9-3-4.9-5.9-4.5c-2.9,0.4-4.9,3-4.5,5.9C354.4,208.1,357,210.2,359.8,209.9z M359.6,207.5
	c-1.7,0.2-3.2-0.9-3.4-2.5c-0.2-1.6,1-3.1,2.6-3.3c1.6-0.2,3.1,0.9,3.3,2.5C362.4,205.8,361.2,207.2,359.6,207.5z M355.4,214.2
	l13.2-1.8l-0.3-2.4l-13.2,1.8L355.4,214.2z M357,226.1l9.9-1.3l-0.3-2.2l-1.3,0.2c1-1,1.3-2,1.1-3.4c-0.4-2.9-2.9-4.7-5.9-4.3
	c-3,0.4-4.9,2.8-4.5,5.7c0.2,1.4,0.8,2.3,2,3.1l-1.3,0.2L357,226.1z M361.6,223.2c-1.6,0.2-3.1-0.7-3.3-2.5
	c-0.2-1.7,0.8-3.1,2.5-3.3c1.8-0.2,3.2,0.8,3.5,2.5C364.5,221.6,363.4,223,361.6,223.2z M365.7,231.3l2.3-0.3l0-0.2
	c-0.1-1-0.5-1.5-1.5-2l1-0.1l-0.3-2.2l-9.9,1.3l0.3,2.4l5.5-0.7C364.6,229.3,365.5,229.9,365.7,231.3z M358.4,236l9.9-1.3l-0.3-2.4
	l-9.9,1.3L358.4,236z M369.7,234.5l2.4-0.3l-0.3-2.4l-2.4,0.3L369.7,234.5z M359.5,244.8l2.1-0.3l-0.6-4.7l6.2,3.6l2.1-0.3l-0.9-6.7
	l-2.1,0.3l0.5,3.9l-6.2-3.6l-2.1,0.3L359.5,244.8z M361.1,256.1l9.9-1.3l-0.3-2.2l-1.3,0.2c1-1,1.3-2,1.1-3.4
	c-0.4-2.9-2.9-4.7-5.9-4.3c-3,0.4-4.9,2.8-4.5,5.7c0.2,1.4,0.8,2.3,2,3.1l-1.3,0.2L361.1,256.1z M365.6,253.2
	c-1.6,0.2-3.1-0.7-3.3-2.5c-0.2-1.7,0.8-3.1,2.5-3.3c1.8-0.2,3.2,0.8,3.5,2.5C368.5,251.6,367.4,253,365.6,253.2z M369.6,261
	l2.2-0.3l-0.2-1.4l3.3-0.4l-0.3-2.4l-3.3,0.4l-0.2-1.2l-2.2,0.3l0.2,1.2l-7.7,1l0.3,2.4l7.7-1L369.6,261z M362.3,265.6l9.9-1.3
	l-0.3-2.4l-9.9,1.3L362.3,265.6z M373.6,264.1l2.4-0.3l-0.3-2.4l-2.4,0.3L373.6,264.1z M368.8,276.9c2.9-0.4,4.9-3,4.5-6
	c-0.4-2.9-3-4.9-5.9-4.5c-2.9,0.4-4.9,3-4.5,5.9C363.4,275.2,366,277.3,368.8,276.9z M368.6,274.5c-1.7,0.2-3.2-0.9-3.4-2.5
	c-0.2-1.6,1-3.1,2.6-3.3c1.6-0.2,3.1,0.9,3.3,2.5C371.4,272.9,370.2,274.3,368.6,274.5z M365.3,287.7l5.3-0.7
	c1.8-0.2,2.6-0.5,3.3-1.2c0.8-0.8,1.2-1.9,1-3.3c-0.2-1.1-0.6-1.9-1.6-2.6l0.9-0.1l-0.3-2.2l-9.9,1.3l0.3,2.4l4.7-0.6
	c1.3-0.2,1.9-0.2,2.4,0.1c0.6,0.3,1,0.9,1.1,1.6c0.2,1.2-0.2,2-2.9,2.3l-4.8,0.6L365.3,287.7z"/>
<path class="st8" d="M470.2,363l-3.6-4.9c2.4-0.6,3.5-2.1,3.5-4.1c0-1.3-0.5-2.5-1.4-3.3c-0.9-0.7-1.8-1-3.6-1h-3.8V363h2.5v-5.1
	l3.5,5.1H470.2z M467.6,354c0,1.4-0.8,2-2.7,2h-1.2v-4h1.1C467.1,352.1,467.6,352.8,467.6,354z M481.4,358.2c0-3.1-2.2-5.4-5.1-5.4
	c-2.9,0-5.3,2.3-5.3,5.3c0,2.9,2.4,5.2,5.4,5.2c2,0,4.1-1.1,4.8-3.2h-2.6c-0.6,0.7-1.2,1-2.2,1c-1.4,0-2.5-0.8-2.8-2h7.7
	C481.4,358.7,481.4,358.5,481.4,358.2z M479,357h-5.5c0.4-1.3,1.4-2,2.8-2C477.7,355,478.7,355.7,479,357z M489.5,359.8
	c0-1.5-0.7-2.3-2.8-2.9c-1.6-0.5-1.7-0.6-1.7-1.1c0-0.5,0.4-0.8,0.9-0.8c0.5,0,0.8,0.3,0.9,0.8h2.3c-0.1-1.9-1.6-3-3.3-3
	c-1.9,0-3.3,1.3-3.3,3c0,1.5,0.8,2.3,2.8,3c1.6,0.5,1.7,0.7,1.7,1.3c0,0.6-0.5,1-1.1,1c-0.7,0-1.1-0.4-1.3-1.2h-2.4
	c0.3,2.3,1.7,3.4,3.7,3.4C487.9,363.2,489.5,361.7,489.5,359.8z M495.2,355.2V353h-1.4v-3.3h-2.4v3.3h-1.2v2.2h1.2v7.8h2.4v-7.8
	H495.2z M498.8,363v-10h-2.4v10H498.8z M498.8,351.6v-2.4h-2.4v2.4H498.8z M509.6,363v-5.3c0-1.8-0.2-2.6-0.7-3.4
	c-0.6-0.9-1.7-1.4-3.1-1.4c-1.1,0-1.9,0.3-2.8,1.2v-1h-2.2v10h2.4v-4.7c0-1.3,0.1-1.9,0.4-2.4c0.4-0.6,1-0.9,1.8-0.9
	c1.2,0,1.9,0.5,1.9,3.1v4.9H509.6z M521.6,361.1V353h-2.3v1.3c-0.7-1-1.8-1.5-3.3-1.5c-2.8,0-4.9,2.2-4.9,5.1c0,3.1,2.1,5.3,4.9,5.3
	c1.4,0,2.3-0.5,3.3-1.5c-0.1,2.1-1,3.2-2.8,3.2c-1.1,0-1.8-0.3-2.5-1.1h-2.7c0.8,2,2.7,3.2,5.1,3.2
	C519.5,367,521.6,365.4,521.6,361.1z M519.2,358c0,1.8-1.1,3-2.8,3c-1.7,0-2.8-1.2-2.8-3c0-1.8,1.1-3.1,2.8-3.1
	C518,355,519.2,356.2,519.2,358z M535.1,359.8c0-1.5-0.7-2.3-2.8-2.9c-1.6-0.5-1.7-0.6-1.7-1.1c0-0.5,0.4-0.8,0.9-0.8
	c0.5,0,0.8,0.3,0.9,0.8h2.3c-0.1-1.9-1.6-3-3.3-3c-1.9,0-3.3,1.3-3.3,3c0,1.5,0.8,2.3,2.8,3c1.6,0.5,1.7,0.7,1.7,1.3
	c0,0.6-0.5,1-1.1,1c-0.7,0-1.1-0.4-1.3-1.2h-2.4c0.3,2.3,1.7,3.4,3.7,3.4C533.5,363.2,535.1,361.7,535.1,359.8z M540.8,355.2V353
	h-1.4v-3.3h-2.4v3.3h-1.2v2.2h1.2v7.8h2.4v-7.8H540.8z M551.9,363v-10h-2.2v1.3c-0.8-1.1-1.8-1.6-3.3-1.6c-3,0-5.1,2.2-5.1,5.3
	c0,3,2.1,5.2,5,5.2c1.4,0,2.4-0.5,3.3-1.5v1.3H551.9z M549.6,358.1c0,1.7-1.1,3-2.9,3c-1.7,0-3-1.2-3-2.9c0-1.8,1.2-3.1,2.9-3.1
	C548.4,355,549.6,356.3,549.6,358.1z M557.9,355.2V353h-1.4v-3.3H554v3.3h-1.2v2.2h1.2v7.8h2.4v-7.8H557.9z M568.9,358.2
	c0-3.1-2.2-5.4-5.1-5.4c-2.9,0-5.3,2.3-5.3,5.3c0,2.9,2.4,5.2,5.4,5.2c2,0,4.1-1.1,4.8-3.2H566c-0.6,0.7-1.2,1-2.2,1
	c-1.4,0-2.5-0.8-2.8-2h7.7C568.9,358.7,568.9,358.5,568.9,358.2z M566.5,357H561c0.4-1.3,1.4-2,2.8-2
	C565.2,355,566.2,355.7,566.5,357z"/>
<path class="st8" d="M367,493v-13.3h-2.5v5.4h-4.8v-5.4h-2.5V493h2.5v-5.6h4.8v5.6H367z M378.6,483h-2.8l-2.4,6.5l-2.2-6.5h-2.7
	l3.7,9l-1.9,4.3h2.6L378.6,483z M390.2,488c0-3-2.1-5.2-5-5.2c-1.4,0-2.5,0.5-3.3,1.4V483h-2.2v13.3h2.4v-4.3
	c0.9,0.8,1.8,1.2,3.1,1.2C388.1,493.2,390.2,491,390.2,488z M387.8,488c0,1.7-1.2,3-2.8,3c-1.7,0-3-1.3-3-3c0-1.7,1.3-3,2.9-3
	C386.6,485,387.8,486.3,387.8,488z M401.6,488.2c0-3.1-2.2-5.4-5.1-5.4c-2.9,0-5.3,2.3-5.3,5.3c0,2.9,2.4,5.2,5.4,5.2
	c2,0,4.1-1.1,4.8-3.2h-2.6c-0.6,0.7-1.2,1-2.2,1c-1.4,0-2.5-0.8-2.8-2h7.7C401.6,488.7,401.6,488.5,401.6,488.2z M399.3,487h-5.5
	c0.4-1.3,1.4-2,2.8-2C398,485,399,485.7,399.3,487z M407.7,485.1v-2.3h-0.2c-1,0-1.5,0.3-2.2,1.2v-1h-2.2v10h2.4v-5.5
	C405.6,485.9,406.3,485.1,407.7,485.1z M419.4,488c0-3-2.1-5.2-5-5.2c-1.4,0-2.5,0.5-3.3,1.4V483H409v13.3h2.4v-4.3
	c0.9,0.8,1.8,1.2,3.1,1.2C417.3,493.2,419.4,491,419.4,488z M417,488c0,1.7-1.2,3-2.8,3c-1.7,0-3-1.3-3-3c0-1.7,1.3-3,2.9-3
	C415.7,485,417,486.3,417,488z M431,488.1c0-3-2.3-5.3-5.3-5.3c-2.9,0-5.3,2.4-5.3,5.2c0,2.9,2.4,5.2,5.3,5.2
	C428.6,493.2,431,490.9,431,488.1z M428.6,488c0,1.7-1.3,3-2.9,3c-1.6,0-2.9-1.4-2.9-3.1c0-1.6,1.3-3,2.9-3
	C427.3,485,428.6,486.4,428.6,488z M434.7,493v-13.3h-2.4V493H434.7z M446.8,493v-10h-2.2v1.3c-0.8-1.1-1.8-1.6-3.3-1.6
	c-3,0-5.1,2.2-5.1,5.3c0,3,2.1,5.2,5,5.2c1.4,0,2.4-0.5,3.3-1.5v1.3H446.8z M444.5,488.1c0,1.7-1.1,3-2.9,3c-1.7,0-3-1.2-3-2.9
	c0-1.8,1.2-3.1,2.9-3.1C443.3,485,444.5,486.3,444.5,488.1z M453.1,485.1v-2.3h-0.2c-1,0-1.5,0.3-2.2,1.2v-1h-2.2v10h2.4v-5.5
	C450.9,485.9,451.6,485.1,453.1,485.1z M456.7,493v-10h-2.4v10H456.7z M456.7,481.6v-2.4h-2.4v2.4H456.7z M465.6,493v-2.1h-4.7
	l4.4-5.7V483h-6.8v2.1h3.9l-4.4,5.7v2.1H465.6z M477,493v-10h-2.2v1.3c-0.8-1.1-1.8-1.6-3.3-1.6c-3,0-5.1,2.2-5.1,5.3
	c0,3,2.1,5.2,5,5.2c1.4,0,2.4-0.5,3.3-1.5v1.3H477z M474.8,488.1c0,1.7-1.1,3-2.9,3c-1.7,0-3-1.2-3-2.9c0-1.8,1.2-3.1,2.9-3.1
	C473.5,485,474.8,486.3,474.8,488.1z M483,485.2V483h-1.4v-3.3h-2.4v3.3H478v2.2h1.2v7.8h2.4v-7.8H483z M486.6,493v-10h-2.4v10
	H486.6z M486.6,481.6v-2.4h-2.4v2.4H486.6z M498.7,488.1c0-3-2.3-5.3-5.3-5.3c-2.9,0-5.3,2.4-5.3,5.2c0,2.9,2.4,5.2,5.3,5.2
	C496.3,493.2,498.7,490.9,498.7,488.1z M496.3,488c0,1.7-1.3,3-2.9,3c-1.6,0-2.9-1.4-2.9-3.1c0-1.6,1.3-3,2.9-3
	C495,485,496.3,486.4,496.3,488z M508.9,493v-5.3c0-1.8-0.2-2.6-0.7-3.4c-0.6-0.9-1.7-1.4-3.1-1.4c-1.1,0-1.9,0.3-2.8,1.2v-1H500v10
	h2.4v-4.7c0-1.3,0.1-1.9,0.4-2.4c0.4-0.6,1-0.9,1.8-0.9c1.2,0,1.9,0.5,1.9,3.1v4.9H508.9z"/>
<path class="st8" d="M301.5,388.5h-6.6v3.7h5.7v1.5h-5.7v6.3h-1.7v-13.1h8.4V388.5z M311,400h-1.6v-1c-0.1,0.1-0.3,0.2-0.6,0.4
	c-0.2,0.2-0.5,0.3-0.7,0.4c-0.3,0.1-0.6,0.2-0.9,0.3c-0.4,0.1-0.8,0.1-1.3,0.1c-0.9,0-1.6-0.3-2.2-0.9c-0.6-0.6-0.9-1.3-0.9-2.2
	c0-0.7,0.2-1.3,0.5-1.8c0.3-0.5,0.8-0.8,1.4-1.1c0.6-0.3,1.3-0.4,2.2-0.5c0.8-0.1,1.7-0.2,2.7-0.2v-0.3c0-0.4-0.1-0.7-0.2-0.9
	c-0.1-0.2-0.3-0.4-0.6-0.6c-0.2-0.1-0.5-0.2-0.8-0.3c-0.3,0-0.7-0.1-1-0.1c-0.4,0-0.9,0.1-1.5,0.2c-0.5,0.1-1.1,0.3-1.7,0.5h-0.1
	v-1.7c0.3-0.1,0.8-0.2,1.4-0.3c0.6-0.1,1.2-0.2,1.8-0.2c0.7,0,1.3,0.1,1.8,0.2c0.5,0.1,1,0.3,1.3,0.6c0.4,0.3,0.7,0.6,0.8,1
	c0.2,0.4,0.3,1,0.3,1.6V400z M309.3,397.6v-2.7c-0.5,0-1.1,0.1-1.8,0.1c-0.7,0.1-1.2,0.1-1.6,0.3c-0.5,0.1-0.9,0.3-1.2,0.6
	c-0.3,0.3-0.4,0.7-0.4,1.2c0,0.6,0.2,1,0.5,1.3c0.3,0.3,0.9,0.4,1.6,0.4c0.6,0,1.1-0.1,1.6-0.3C308.5,398.2,308.9,397.9,309.3,397.6
	z M315.9,388.5H314v-1.7h1.9V388.5z M315.8,400h-1.7v-9.8h1.7V400z M320.7,400h-1.7v-13.7h1.7V400z M332.2,395.3H325
	c0,0.6,0.1,1.1,0.3,1.6c0.2,0.4,0.4,0.8,0.7,1.1c0.3,0.3,0.7,0.5,1.1,0.6c0.4,0.1,0.9,0.2,1.4,0.2c0.7,0,1.3-0.1,2-0.4
	c0.7-0.3,1.2-0.5,1.4-0.8h0.1v1.8c-0.6,0.2-1.1,0.4-1.7,0.6c-0.6,0.2-1.2,0.2-1.8,0.2c-1.6,0-2.9-0.4-3.8-1.3
	c-0.9-0.9-1.4-2.1-1.4-3.8c0-1.6,0.4-2.9,1.3-3.8c0.9-0.9,2-1.4,3.5-1.4c1.3,0,2.3,0.4,3.1,1.2c0.7,0.8,1.1,1.9,1.1,3.3V395.3z
	 M330.6,394c0-0.9-0.2-1.5-0.7-2c-0.4-0.5-1.1-0.7-2-0.7c-0.9,0-1.6,0.3-2.1,0.8c-0.5,0.5-0.8,1.2-0.9,1.9H330.6z M342.7,400H341v-1
	c-0.5,0.4-1,0.7-1.5,1c-0.5,0.2-1.1,0.3-1.7,0.3c-1.2,0-2.1-0.5-2.8-1.4c-0.7-0.9-1-2.2-1-3.8c0-0.8,0.1-1.6,0.4-2.2
	c0.2-0.6,0.6-1.2,1-1.7c0.4-0.4,0.9-0.8,1.4-1c0.5-0.2,1.1-0.4,1.7-0.4c0.5,0,1,0.1,1.4,0.2c0.4,0.1,0.8,0.3,1.3,0.5v-4.3h1.7V400z
	 M341,397.6v-5.6c-0.4-0.2-0.8-0.3-1.2-0.4c-0.4-0.1-0.7-0.1-1.2-0.1c-0.9,0-1.6,0.3-2.2,1c-0.5,0.6-0.8,1.6-0.8,2.7
	c0,1.2,0.2,2.1,0.6,2.7c0.4,0.6,1,0.9,1.9,0.9c0.5,0,0.9-0.1,1.4-0.3C340.2,398.2,340.6,397.9,341,397.6z M280.5,410.5h-1.9v-1.7
	h1.9V410.5z M280.4,422h-1.7v-9.8h1.7V422z M291.8,422h-1.7v-5.6c0-0.5,0-0.9-0.1-1.3c-0.1-0.4-0.1-0.7-0.3-0.9
	c-0.1-0.2-0.4-0.4-0.6-0.5c-0.3-0.1-0.6-0.2-1.1-0.2c-0.5,0-0.9,0.1-1.4,0.3c-0.5,0.2-1,0.5-1.4,0.9v7.3h-1.7v-9.8h1.7v1.1
	c0.5-0.4,1-0.8,1.6-1c0.6-0.2,1.1-0.4,1.7-0.4c1.1,0,1.9,0.3,2.4,1c0.6,0.6,0.8,1.6,0.8,2.8V422z M296.8,410.5h-1.9v-1.7h1.9V410.5z
	 M296.7,422H295v-9.8h1.7V422z M305.1,421.9c-0.3,0.1-0.7,0.2-1,0.2c-0.4,0.1-0.7,0.1-1,0.1c-1,0-1.8-0.3-2.3-0.8
	c-0.5-0.5-0.8-1.4-0.8-2.6v-5.2h-1.1v-1.4h1.1v-2.8h1.7v2.8h3.4v1.4h-3.4v4.5c0,0.5,0,0.9,0,1.2c0,0.3,0.1,0.6,0.2,0.8
	c0.1,0.2,0.3,0.4,0.5,0.5c0.2,0.1,0.6,0.2,1,0.2c0.3,0,0.6,0,0.8-0.1c0.3-0.1,0.5-0.1,0.6-0.2h0.1V421.9z M308.8,410.5H307v-1.7h1.9
	V410.5z M308.7,422h-1.7v-9.8h1.7V422z M319.6,422H318v-1c-0.1,0.1-0.3,0.2-0.6,0.4c-0.2,0.2-0.5,0.3-0.7,0.4
	c-0.3,0.1-0.6,0.2-0.9,0.3c-0.4,0.1-0.8,0.1-1.3,0.1c-0.9,0-1.6-0.3-2.2-0.9c-0.6-0.6-0.9-1.3-0.9-2.2c0-0.7,0.2-1.3,0.5-1.8
	c0.3-0.5,0.8-0.8,1.4-1.1c0.6-0.3,1.3-0.4,2.2-0.5c0.8-0.1,1.7-0.2,2.7-0.2v-0.3c0-0.4-0.1-0.7-0.2-0.9c-0.1-0.2-0.3-0.4-0.6-0.6
	c-0.2-0.1-0.5-0.2-0.8-0.3c-0.3,0-0.7-0.1-1-0.1c-0.4,0-0.9,0.1-1.5,0.2c-0.5,0.1-1.1,0.3-1.7,0.5h-0.1v-1.7
	c0.3-0.1,0.8-0.2,1.4-0.3c0.6-0.1,1.2-0.2,1.8-0.2c0.7,0,1.3,0.1,1.8,0.2c0.5,0.1,1,0.3,1.3,0.6c0.4,0.3,0.7,0.6,0.8,1
	c0.2,0.4,0.3,1,0.3,1.6V422z M318,419.6v-2.7c-0.5,0-1.1,0.1-1.8,0.1c-0.7,0.1-1.2,0.1-1.6,0.3c-0.5,0.1-0.9,0.3-1.2,0.6
	c-0.3,0.3-0.4,0.7-0.4,1.2c0,0.6,0.2,1,0.5,1.3c0.3,0.3,0.9,0.4,1.6,0.4c0.6,0,1.1-0.1,1.6-0.3C317.1,420.2,317.6,419.9,318,419.6z
	 M327.9,421.9c-0.3,0.1-0.6,0.2-1,0.2c-0.4,0.1-0.7,0.1-1,0.1c-1,0-1.8-0.3-2.3-0.8c-0.5-0.5-0.8-1.4-0.8-2.6v-5.2h-1.1v-1.4h1.1
	v-2.8h1.7v2.8h3.4v1.4h-3.4v4.5c0,0.5,0,0.9,0,1.2c0,0.3,0.1,0.6,0.2,0.8c0.1,0.2,0.3,0.4,0.5,0.5c0.2,0.1,0.6,0.2,1,0.2
	c0.3,0,0.6,0,0.8-0.1c0.3-0.1,0.5-0.1,0.6-0.2h0.1V421.9z M331.7,410.5h-1.9v-1.7h1.9V410.5z M331.6,422h-1.7v-9.8h1.7V422z
	 M343.2,417.1c0,1.6-0.4,2.9-1.2,3.8c-0.8,0.9-1.9,1.4-3.3,1.4c-1.4,0-2.5-0.5-3.3-1.4c-0.8-0.9-1.2-2.2-1.2-3.8
	c0-1.6,0.4-2.9,1.2-3.8c0.8-0.9,1.9-1.4,3.3-1.4c1.4,0,2.5,0.5,3.3,1.4C342.8,414.2,343.2,415.5,343.2,417.1z M341.5,417.1
	c0-1.3-0.2-2.2-0.7-2.8c-0.5-0.6-1.2-0.9-2.1-0.9c-0.9,0-1.6,0.3-2.1,0.9c-0.5,0.6-0.7,1.6-0.7,2.8c0,1.2,0.2,2.2,0.7,2.8
	c0.5,0.6,1.2,1,2.1,1c0.9,0,1.6-0.3,2.1-0.9C341.3,419.3,341.5,418.3,341.5,417.1z M354,422h-1.7v-5.6c0-0.5,0-0.9-0.1-1.3
	c-0.1-0.4-0.1-0.7-0.3-0.9c-0.1-0.2-0.4-0.4-0.6-0.5c-0.3-0.1-0.6-0.2-1.1-0.2c-0.5,0-0.9,0.1-1.4,0.3c-0.5,0.2-1,0.5-1.4,0.9v7.3
	h-1.7v-9.8h1.7v1.1c0.5-0.4,1-0.8,1.6-1c0.6-0.2,1.1-0.4,1.7-0.4c1.1,0,1.9,0.3,2.4,1c0.6,0.6,0.8,1.6,0.8,2.8V422z M364.2,419.2
	c0,0.9-0.4,1.6-1.1,2.2c-0.7,0.6-1.7,0.9-3,0.9c-0.7,0-1.4-0.1-2-0.3c-0.6-0.2-1.1-0.4-1.5-0.6v-1.9h0.1c0.5,0.4,1.1,0.7,1.7,0.9
	c0.6,0.2,1.3,0.3,1.8,0.3c0.7,0,1.3-0.1,1.7-0.4c0.4-0.2,0.6-0.6,0.6-1.1c0-0.4-0.1-0.7-0.3-0.9c-0.2-0.2-0.6-0.4-1.3-0.5
	c-0.2-0.1-0.5-0.1-0.9-0.2c-0.4-0.1-0.7-0.1-1-0.2c-0.9-0.2-1.5-0.6-1.8-1c-0.4-0.4-0.5-1-0.5-1.6c0-0.4,0.1-0.8,0.2-1.1
	c0.2-0.4,0.4-0.7,0.8-1c0.3-0.3,0.7-0.5,1.2-0.7c0.5-0.2,1.1-0.2,1.7-0.2c0.6,0,1.2,0.1,1.8,0.2c0.6,0.1,1.1,0.3,1.5,0.5v1.8h-0.1
	c-0.4-0.3-0.9-0.6-1.5-0.8c-0.6-0.2-1.2-0.3-1.8-0.3c-0.6,0-1.1,0.1-1.5,0.4c-0.4,0.2-0.6,0.6-0.6,1c0,0.4,0.1,0.7,0.4,0.9
	c0.2,0.2,0.6,0.4,1.2,0.5c0.3,0.1,0.6,0.1,1,0.2c0.4,0.1,0.7,0.1,0.9,0.2c0.8,0.2,1.4,0.5,1.8,0.9
	C364,417.9,364.2,418.5,364.2,419.2z"/>
<g id="Button1">
	<circle class="st0" cx="189.5" cy="429.5" r="22.5"/>
	<path class="st1" d="M191.1,441v-17.7h-5.4v3h2.2V441H191.1z"/>
</g>
<g id="Button3">
	<circle class="st0" cx="410.5" cy="213.5" r="22.5"/>
	<path class="st1" d="M416.4,215.4c0-2.2-0.9-3.8-2.8-4.6c1-0.7,1.5-1.7,1.5-3c0-2.7-2-4.8-4.8-4.8c-2.5,0-4.5,1.5-4.7,4.5h3.2
		c0.1-1.1,0.6-1.6,1.5-1.6c0.9,0,1.6,0.7,1.6,1.7c0,1.2-0.7,1.8-2.7,1.8v3.1h0.5c2.1,0,3.5,1.2,3.5,3c0,1.7-1.2,3-2.8,3
		c-1.5,0-2.7-1.1-2.9-2.8h-3.2c0.2,3.3,2.7,5.7,6.1,5.7C413.9,221.3,416.4,218.8,416.4,215.4z"/>
</g>
<g id="Button2">
	<circle class="st0" cx="202.5" cy="213.5" r="22.5"/>
	<path class="st1" d="M208.5,208.7c0-3.3-2.5-5.8-5.8-5.8c-3.4,0-5.9,2.4-5.9,6.4h3.1c0-2.1,1.1-3.5,2.8-3.5c1.5,0,2.6,1.2,2.6,2.8
		c0,1.2-0.6,2.2-2,3.6l-6.3,6v2.8h11.5v-3h-7l3.6-3.3C207.7,212.3,208.5,210.9,208.5,208.7z"/>
</g>
<g id="Button4">
	<circle class="st0" cx="328.5" cy="476.5" r="22.5"/>
	<path class="st1" d="M332.7,482.3v-2.9h-1.9v-12.2h-2.7l-8.2,12.5v2.6h7.7v2.7h3.2v-2.7H332.7z M327.7,479.5h-4.4l4.4-6.8V479.5z"
		/>
</g>
<path class="st8" d="M297,578.4v-3.1h-9.9v3.1h3.3V593h3.3v-14.6H297z M301.6,593v-13.3h-3.2V593H301.6z M301.6,577.8v-3.2h-3.2v3.2
	H301.6z M324.1,593v-7.7c0-4-1.9-5.9-5.4-5.9c-1.9,0-3.2,0.6-4.3,2.1c-0.9-1.4-2.1-2.1-3.9-2.1c-1.6,0-2.5,0.4-3.5,1.6v-1.2h-2.9
	V593h3.2v-6.6c0-3.1,0.7-4.1,2.6-4.1c1.7,0,2.6,0.8,2.6,3.4v7.3h3.2v-6.6c0-3.2,0.9-4.1,2.7-4.1c1.5,0,2.5,0.7,2.5,3.4v7.3H324.1z
	 M340,586.5c0-4.1-2.9-7.2-6.9-7.2c-3.9,0-7,3.1-7,7c0,3.9,3.1,6.9,7.2,6.9c2.7,0,5.4-1.5,6.3-4.2h-3.5c-0.8,1-1.6,1.3-2.9,1.3
	c-1.9,0-3.3-1-3.7-2.6h10.3C340,587.3,340,587,340,586.5z M336.9,585h-7.4c0.5-1.7,1.8-2.6,3.7-2.6
	C335.2,582.3,336.5,583.3,336.9,585z M355.9,596.3v-3.5c-2-1.3-3.4-4.2-3.4-7c0-2.9,1.2-5.4,3.4-7.1v-3.5c-4.1,1.7-6.6,5.8-6.6,10.5
	C349.3,590.3,351.9,594.9,355.9,596.3z M377.8,593v-7.7c0-4-1.9-5.9-5.4-5.9c-1.9,0-3.2,0.6-4.3,2.1c-0.9-1.4-2.1-2.1-3.9-2.1
	c-1.6,0-2.5,0.4-3.5,1.6v-1.2h-2.9V593h3.2v-6.6c0-3.1,0.7-4.1,2.6-4.1c1.7,0,2.6,0.8,2.6,3.4v7.3h3.2v-6.6c0-3.2,0.9-4.1,2.7-4.1
	c1.5,0,2.5,0.7,2.5,3.4v7.3H377.8z M389.3,588.8c0-2-0.9-3-3.7-3.9c-2.2-0.7-2.3-0.7-2.3-1.4c0-0.6,0.5-1.1,1.2-1.1
	c0.7,0,1.1,0.4,1.2,1.1h3.1c-0.1-2.5-2.1-4-4.4-4c-2.5,0-4.4,1.8-4.4,4.1c0,1.9,1.1,3,3.7,3.9c2.1,0.7,2.3,0.9,2.3,1.7
	c0,0.7-0.6,1.3-1.4,1.3c-0.9,0-1.5-0.5-1.8-1.6h-3.2c0.3,3.1,2.2,4.5,4.9,4.5C387.2,593.3,389.3,591.3,389.3,588.8z M397.2,585.8
	c0-4.4-2.6-9.1-6.6-10.5v3.5c2,1.3,3.4,4.2,3.4,7c0,2.9-1.2,5.4-3.4,7.1v3.5C394.7,594.6,397.2,590.5,397.2,585.8z"/>
<path class="st8" d="M12.3,323.3v3.5l13.5,4.8l-13.5,4.8v3.5l17.7-6.9v-2.7L12.3,323.3z M23.4,309.8c-4,0-7.1,3.1-7.1,7.1
	c0,3.9,3.1,7,7,7c3.8,0,7-3.2,7-7.1C30.3,313,27.2,309.8,23.4,309.8z M23.4,313c2.2,0,4,1.7,4,3.8c0,2.2-1.8,3.9-4.1,3.9
	c-2.2,0-4-1.8-4-3.8C19.3,314.7,21.1,313,23.4,313z M30,304.8H12.3v3.2H30V304.8z M19.6,296.6h-2.9v1.9h-4.4v3.2h4.4v1.6h2.9v-1.6
	H30v-3.2H19.6V296.6z M30,281.8H16.7v2.9h1.8c-1.5,1.1-2.1,2.4-2.1,4.3c0,3.9,3,6.8,7,6.8c4,0,6.9-2.8,6.9-6.7c0-1.9-0.6-3.1-2-4.4
	H30V281.8z M23.4,284.8c2.2,0,3.9,1.4,3.9,3.9c0,2.3-1.6,3.9-3.9,3.9c-2.4,0-4.2-1.6-4.2-3.9S21,284.8,23.4,284.8z M27.5,266H16.7v3
	h1.7c-1.3,1-2,2.4-2,4.3c0,3.8,2.9,6.6,6.9,6.6c4.1,0,7.1-2.7,7.1-6.5c0-1.9-0.6-3.1-2.1-4.4c2.9,0.1,4.2,1.3,4.2,3.7
	c0,1.5-0.4,2.4-1.4,3.3v3.6c2.7-1.1,4.2-3.6,4.2-6.8C35.3,268.8,33.2,266,27.5,266z M23.4,269.2c2.4,0,4,1.5,4,3.8s-1.6,3.7-4,3.7
	c-2.4,0-4.1-1.5-4.1-3.7C19.3,270.8,21,269.2,23.4,269.2z M23.5,250.3c-4.1,0-7.2,2.9-7.2,6.9c0,3.9,3.1,7,7,7
	c3.9,0,6.9-3.1,6.9-7.2c0-2.7-1.5-5.4-4.2-6.3v3.5c1,0.8,1.3,1.6,1.3,2.9c0,1.9-1,3.3-2.6,3.7v-10.3C24.3,250.3,24,250.3,23.5,250.3
	z M22,253.4v7.4c-1.7-0.5-2.6-1.8-2.6-3.7C19.3,255.1,20.3,253.8,22,253.4z M33.3,234.4h-3.5c-1.3,2-4.2,3.4-7,3.4
	c-2.9,0-5.4-1.2-7.1-3.4h-3.5c1.7,4.1,5.8,6.6,10.5,6.6C27.3,241,31.9,238.4,33.3,234.4z M30,212.4h-7.7c-4,0-5.9,1.9-5.9,5.4
	c0,1.9,0.6,3.2,2.1,4.3c-1.4,0.9-2.1,2.1-2.1,3.9c0,1.6,0.4,2.5,1.6,3.5h-1.2v2.9H30v-3.2h-6.6c-3.1,0-4.1-0.7-4.1-2.6
	c0-1.7,0.8-2.6,3.4-2.6H30v-3.2h-6.6c-3.2,0-4.1-0.9-4.1-2.7c0-1.5,0.7-2.5,3.4-2.5H30V212.4z M12.3,194.4v3.5l13.5,4.8l-13.5,4.8
	v3.5L30,204v-2.7L12.3,194.4z M22.8,186.8c-4.4,0-9.1,2.6-10.5,6.6h3.5c1.3-2,4.2-3.4,7-3.4c2.9,0,5.4,1.2,7.1,3.4h3.5
	C31.6,189.3,27.5,186.8,22.8,186.8z"/>
</svg>
