<svg id="Layer_1" data-name="Layer 1" xmlns="http://www.w3.org/2000/svg" viewBox="0 0 679.54 452.98"><defs><style>.cls-1{fill:#e4bc96;}.cls-1,.cls-10,.cls-11,.cls-2,.cls-3,.cls-4,.cls-5,.cls-6,.cls-7,.cls-8,.cls-9{opacity:0.3;isolation:isolate;}.cls-2{fill:#f06c86;}.cls-3{fill:#6ae8d9;}.cls-4{fill:#fcfb98;}.cls-5{fill:#ff1a1a;}.cls-6{fill:#3adb02;}.cls-7{fill:#a553e6;}.cls-8{fill:#b4d8ec;}.cls-9{fill:#719150;}.cls-10{fill:#00c1fe;}.cls-11{fill:#fffc00;}.cls-12,.cls-14,.cls-15,.cls-16{fill:none;}.cls-12,.cls-13,.cls-14{stroke:#000;}.cls-12,.cls-13{stroke-width:3px;}.cls-13{fill:#fdc063;}.cls-14{stroke-width:2px;}.cls-15,.cls-16{stroke:#251f1f;}.cls-15{stroke-width:0.5px;}.cls-16{stroke-width:0.61px;}.cls-17{fill:#555353;}</style></defs><path class="cls-1" d="M525.69,428.38c1.08,2.47,3,6.85,3.72,9.23a30.86,30.86,0,0,1-7.39,4.2l0-.09c-.91-3.64-9.6-25.85-10-29.68-.33-3.5-.82-6.89-1.41-10.34a57,57,0,0,0-2.32-10c1.81,3.6,5.34,6.86,7.13,10.29,2.22,4.25,2.9,10,6.19,13.29C523.05,419.44,524,424.43,525.69,428.38Z" transform="translate(-0.32 -0.5)"/><path class="cls-2" d="M650.16,137.15c19.4,28.47,29.72,56.82,28,91.18-.95,19.26-2.51,47.47-19.13,61.39l-.27-.31c-19.35,2.12-37.78-17.65-53.69-26.12-9.23-4.92-18.05-9.45-26.58-15.68-7.49-5.46-21.93-17.29-31.28-19.48h0c18.49-8,31-33.1,43.16-47a233.51,233.51,0,0,0,21-27.24c7-10.8,15.11-26.47,28.9-30l0,0Q645.47,130.27,650.16,137.15Z" transform="translate(-0.32 -0.5)"/><path class="cls-3" d="M521.61,415.31c-3.29-3.27-4-9-6.19-13.29-1.8-3.43-5.32-6.69-7.13-10.29v0c-.17-.43-.35-.85-.55-1.26a0,0,0,0,0,0,0c-1.47-3-3.87-5.62-4.31-8.93v0c-2.85-5.73-4.45-12.67-6.63-17.78a66.43,66.43,0,0,1-3.3-7.86,12.5,12.5,0,0,0,6.82,1.91c-1.81,4.51,12,13.22,15.2,15.75,7.26,5.76,16.29,11,25.86,10.55,2.54-.13,5.47-.11,8.32-.41a17.87,17.87,0,0,0,7.64-2.29c3.31-2.09,2.87-2.5,8-3.1a35.37,35.37,0,0,0,10.19-2.49c9-3.91,11-12.73,10.88-21.65,0-3-1.75-10.07,0-13.43a3.63,3.63,0,0,1,1-1.21c2-1.42,4.62-1.45,6.72-2.93,6.77-4.74,3.64-12.36,2.5-19.19-.9-5.42,1.75-7.49-3.22-11.34-3.48-2.68-7.92-5.47-7.53-8.34.25-1.92,2.94-2.41,3.12-4.24.39-4.13-1.2-13-6.64-14.09-.43-.1-4.69-.14-4.69.58,0-.27-.1-.52-.15-.78h0c-1.1-5.12-4.43-9.23-8.66-12.35l.22-.28c16.69,12.44,37.55,28.87,59.41,31.33,8.58,7.54,11,17.31,11.49,28.86.25,6.07.65,11.9.33,18-.33,6.38-4.88,11.46-6.91,17.36-1.79,5.18-5.65,10.22-8.5,15-3.51,5.88-6.35,10.77-11,16-8.88,10-17.52,21.49-30.27,27-5.52,2.39-13.61,1-19.66,1-7.4,0-11.84-3.63-18.64-5.36-6-1.52-12.46,3.18-19,2A8.34,8.34,0,0,1,521.61,415.31Z" transform="translate(-0.32 -0.5)"/><path class="cls-4" d="M640.37,123.84l0,0c-13.79,3.53-21.92,19.2-28.9,30a233.51,233.51,0,0,1-21,27.24c-12.14,13.91-24.66,39-43.16,47-.54.24-1.07.45-1.61.65.07-.23.14-.45.19-.64,2.59-9.36,2.38-16.2,2.38-26.12-13.3-23.51-24.85-32.16-27.08-33.49-5-3-22.2-13.93-27.55-17.1a347.43,347.43,0,0,0-44.41-22.25c-17.08-6.82-31.5-12.44-46.92-16.65v0c1.62-17.11,13.61-26.56,17.15-42.2,7.95-13.08,15.88-48.12,26-59.52l0-.2c18.17,2,36.05,5,51.46,12.05C551,47.47,603.24,76.9,640.37,123.84Z" transform="translate(-0.32 -0.5)"/><g id="cerebellum"><path class="cls-3" d="M431,247.71c2.16,1.07,4.34,2.23,6.63,3.23,7.11,3.14,16,6.48,20.08,13.7,3.22,5.66,9.71,10.87,5.64,17.22-3.2,5,3.58,17,8,19.78a102.13,102.13,0,0,1-4.56-30c-.06-4.46.31-10.67,5.52-12s2.26-3.22,1-6.33c-1.72-4.26-1-8.27,2.76-11,1.91-1.41,2.57-2,2.82-2.51.46-.91-.56-1.4,2.24-5.8,6.6-10.37,15.12-3.8,21.28-2,2.95.85,4.55,2.55,6.68,4.65a8.66,8.66,0,0,1,6.58-1.22q2.61,1.05,5.19,2.17c.17.07.33.14.5.23a6.19,6.19,0,0,1,2.11,3.46,22,22,0,0,1,7.14,1.43,29.35,29.35,0,0,1,12.27,8.65c2.91,3.49,2,7.32,6,10.28,3.55,2.6,7.4-1,11.32.47a37.87,37.87,0,0,1,8.78,4.69c4.23,3.12,7.56,7.23,8.66,12.35h0c0,.26.1.51.15.78,0-.72,4.26-.67,4.69-.58,5.44,1.05,7,10,6.64,14.09-.18,1.83-2.87,2.33-3.12,4.24-.39,2.87,4,5.66,7.53,8.35,5,3.84,2.32,5.91,3.22,11.33,1.14,6.83,4.27,14.45-2.5,19.19-2.1,1.48-4.73,1.51-6.72,2.93a3.63,3.63,0,0,0-1,1.21c-1.79,3.36-.06,10.43,0,13.44.09,8.91-1.91,17.73-10.88,21.65a35.68,35.68,0,0,1-10.19,2.48c-5.15.6-4.71,1-8,3.1a17.87,17.87,0,0,1-7.64,2.29c-2.85.3-5.78.28-8.32.41-9.57.49-18.6-4.79-25.86-10.55-3.2-2.53-17-11.24-15.2-15.75a12.58,12.58,0,0,1-6.82-1.9,12.48,12.48,0,0,1-.47-4.75c.47-4.62.94-9.16-2.28-12.83,1.82-4.45,4.17-8.39,8.61-10.83,3.34-1.84,7.83-2.28,11.16-3.73-3.75.05-8.45.21-11.9-.34-6.93-1.1-13.68-1.62-19.86-5-5.57-3.08-8.16-6.51-11-12.34-4.55-9.36-9.41-18-17.08-26.35A118.38,118.38,0,0,0,439,268.31a76,76,0,0,0-14.07-9.25c-2.5-1.33-5-2.74-7.59-4s-5.62-1.73-8-3.33c-5.54-3.69-.36-10.61,4.9-12.49-2.06-2-4.58-8.79.44-8.94,3-.08,6,0,8.67,1.42,2.9,1.54,4.8,3,8,3.91a28.08,28.08,0,0,0,5.69,1.23c.32,0,.64,0,1,0v.26c2.84,1.25,5.06,4,4.62,6.15-1.11,5.3-8.45,5.23-11.61,4.33Z" transform="translate(-0.32 -0.5)"/></g><g id="gyrusCinguli"><path class="cls-5" d="M545.61,228.77c-1.36,4.2-5.94,14-8.12,16.94l0,.06c-5.25-2.9-10.64-5.58-16.16-8a6.28,6.28,0,0,0-1.15-.78,13,13,0,0,0-4.54-1.62c-6.73-2.72-13.61-5.08-20.57-7.2-8.71-2.65-15.84-7.83-24-11.56h-.15c-.58-8.69-5.89-19.36-11.18-23.35-4.85-3.67-9.38-5.8-13.88-9.92-5.68-5.17-11.15-6.9-18.14-10.25-10.23-4.91-19.36-11.33-30-15.32-24.35-9.13-49.35-7.19-75.36-7.19-14.25,0-26-2.45-40.19-1.12C265.84,151,257.7,152,244.57,160.6c-16.06,10.55-37.45,34.07-29.38,57C218.87,228.11,227.82,235,238.7,237c10.52,2,20.77,2.27,29.39-4.63,3.54-2.85,8.55-6.6,11.61-9.76,9.26-8,20.94.08,30.14,11.09a95.14,95.14,0,0,1,6.41,8.69c-5.12,4.37-14.2,8.61-20.82,10.17-6.33-3.76-39.83,9.37-48.88,9.76-11.76.53-37.9-6.59-47.39-14.68s-17.28-20.76-17.28-32.34c0-23.93,3.25-50.29,20.89-68.4,18-18.45,44.94-33.07,70.31-38,13.3-2.58,32.57-4.26,46.22-4.44,14.89-.19,37.79-.08,52.58,1.9a229.19,229.19,0,0,1,30.34,6.15c15.42,4.21,29.84,9.83,46.92,16.65a347.43,347.43,0,0,1,44.41,22.25c5.35,3.17,22.56,14.12,27.55,17.1,2.22,1.33,13.78,10,27.08,33.49,0,9.92.21,16.76-2.38,26.12C545.74,228.32,545.68,228.54,545.61,228.77Z" transform="translate(-0.32 -0.5)"/></g><path class="cls-6" d="M522,441.72l0,.09c-1.35.58-2.74,1.12-4.14,1.61l0,0c-1.9-3.9-9.9-30.1-10.92-34.59-3-13.06-11.37-25.06-15.93-37.71-2-5.46-1.92-10.88-3.06-16.41s-5.13-10.17-7.84-15c-5.52-9.85-11.1-20.68-16-31-2.39-5-6-9.46-8.77-14.34a68.83,68.83,0,0,0-10-12.67c-4.3-4.54-10.66-9.5-15.67-13.34A70.53,70.53,0,0,0,416,260c-5.1-2.43-10.13-5.26-15.66-6.67a43.85,43.85,0,0,0-16.35-.68c-5.52.84-10,1-14.92,3.76-4.62,2.55-8.68,6.47-12.16,10.49-4.11,4.71-5.26,8-8.26,13.44a51.85,51.85,0,0,1-7,8.66c-2.11,2.15-6,4.7-8.34,6.34-1.71-1.87-1.75-5.71-3.4-7.6-1.43-1.64-5.55-3.55-7.33-4.85l-.13-.06a32,32,0,0,0,2.29-23.61,50.85,50.85,0,0,0-3.92-9.15l.15-.08c-8.54-19.49-5.08-42.06,13-54.28,10.27-6.94,31.7-14.51,47.56-9.09,5.35,3,10.39,6.63,16.1,9.35,8.92,4.25,18,11.09,25.4,17.32,6.19,5.23,9.91,11.61,16.13,16.18l-.14.17c1.68,2.28,5.21,4.8,1.68,6.67a6.09,6.09,0,0,1-2.7.6c-.32,0-.64,0-1,0a27.3,27.3,0,0,1-5.69-1.22c-3.21-.92-5.11-2.38-8-3.92-2.64-1.39-5.72-1.5-8.68-1.41-5,.14-2.5,7-.43,8.94-5.27,1.88-10.44,8.8-4.91,12.49,2.4,1.6,5.44,2.07,8,3.33s5.1,2.67,7.59,4A75.08,75.08,0,0,1,439,268.31a118.38,118.38,0,0,1,11.68,11.34c7.66,8.33,12.53,17,17.08,26.34,2.84,5.84,5.42,9.27,11,12.34,6.18,3.4,12.93,3.92,19.85,5a76.65,76.65,0,0,0,11.91.33c-3.34,1.46-7.82,1.89-11.17,3.74-4.43,2.44-6.78,6.37-8.6,10.83,3.22,3.66,2.75,8.2,2.28,12.83a12.45,12.45,0,0,0,.47,4.74,64.8,64.8,0,0,0,3.3,7.86c2.17,5.11,3.78,12.05,6.63,17.78h0c.44,3.32,2.84,6,4.3,8.94a0,0,0,0,1,0,0,9.29,9.29,0,0,0,.55,1.25v0a57,57,0,0,1,2.32,10c.6,3.45,1.08,6.84,1.42,10.33C512.38,415.87,521.07,438.08,522,441.72ZM360.37,230c2-3.78-2.19-13-7.42-14-4.45-.83-11.24-2.26-13.42,2.66s2.25,10.88,6.75,12.93S357.72,235,360.37,230Z" transform="translate(-0.32 -0.5)"/><g id="brainstem"><path class="cls-7" d="M442,376.57c-8.15,2.83-20.45-2.11-28.63-5.89-.74-.33-1.46-.68-2.16-1C395.79,361.89,385,349.12,377,334c-5.47-10.26-9.21-29.12,1.35-38.36,11.68-10.24,21.43-7.73,36-1.65-6.86-6.86-16-9.17-21.79-17.32-4.95-6.92-17.09-14.18-26-10-8.15,3.76-13.85,17-19.53,24-5.12,6.32-13.4,7.2-14.39,16.66-1.35,13.06,17.43,6.71,16.51,18.53-1,12.91-19.77,13.11-27.73,8.33s-11.22-16.34.39-17.35c9-.79,7.07-12.66,8.48-19.06-1.76,3.64-5.82,15.05-11.6,9.23-3.86-3.86,12.2-17.33-1.55-15.93a44.77,44.77,0,0,0,5.36-8.25l.13.06c1.78,1.3,5.9,3.21,7.33,4.85,1.65,1.89,1.69,5.73,3.4,7.6,2.36-1.64,6.23-4.19,8.34-6.34a52.36,52.36,0,0,0,7-8.66c3-5.44,4.15-8.73,8.25-13.43,3.49-4,7.55-7.95,12.16-10.5,5-2.76,9.41-2.92,14.93-3.76a43.85,43.85,0,0,1,16.35.68c5.53,1.41,10.56,4.25,15.66,6.67a70.16,70.16,0,0,1,13.67,8.33c5,3.84,11.38,8.8,15.68,13.34a68.83,68.83,0,0,1,10,12.67c2.8,4.88,6.38,9.3,8.77,14.34,4.91,10.33,10.49,21.16,16,31,2.71,4.84,6.7,9.54,7.83,15s1.1,10.95,3.06,16.41c4.56,12.65,13,24.65,15.94,37.71,1,4.49,9,30.69,10.92,34.59l0,0c-2.91,1.06-5.8,2-8.17,2.72-4.58,1.46-11.7,2.53-15,5.25-16.13-19-53.62-46.7-52.7-74.7Z" transform="translate(-0.32 -0.5)"/></g><g id="corpusCallosum2"><path class="cls-1" d="M381.5,186.6a45.26,45.26,0,0,0-13.32-5.29c-7.73-1.56-13.13-2.35-18.91-3-4.45-.53-9.12-1-15.28-1.68s-13.52.76-19.64,1.13c-5.56.33-10.67.85-16.09,1.38-10.29,1-22.85,2.4-32.67,5.36-8.21,2.47-16.08,14.05-11.5,23s17.84,10.16,25.61,15.17c-3.06,3.16-8.07,6.91-11.61,9.76-8.62,6.9-18.87,6.59-29.39,4.63-10.88-2-19.83-8.9-23.51-19.38-8.07-23,13.32-46.48,29.39-57,13.12-8.63,21.26-9.62,37.51-11.13,14.23-1.32,25.94,1.13,40.19,1.13,26,0,51-1.94,75.36,7.19,10.65,4,19.78,10.41,30,15.32,7,3.35,12.46,5.08,18.14,10.25,4.5,4.11,9,6.25,13.88,9.92,5.29,4,10.6,14.66,11.18,23.35a17.53,17.53,0,0,1-.52,6c-2.79,9.74-14.9,13.92-24,10.67a28.12,28.12,0,0,1-7.23-3.84c-6.22-4.57-9.94-10.95-16.13-16.18C415.62,207,406.52,200.2,397.6,196,391.89,193.23,386.85,189.63,381.5,186.6Z" transform="translate(-0.32 -0.5)"/></g><path class="cls-8" d="M316.06,291.06c-10,12.38-26.49,21.5-39.41,26.74q-5.94,2.42-12.22,4.33c-52.92,16.09-122.26,5.28-160.21-35.05-41.78-44.4-24-130.68,11.62-172.12,22.22-25.86,49.68-47.51,77.29-67.58,29-21.08,63.43-20.59,95.8-32.69,31.58-11.81,69.69-15.94,103.22-10,16.32,2.91,34.4,3.89,52.21,5.85l0,.2c-10.08,11.4-18,46.44-26,59.52-3.53,15.64-15.52,25.09-17.14,42.2v0a229,229,0,0,0-30.35-6.15c-14.78-2-37.68-2.09-52.57-1.9-13.65.18-32.93,1.85-46.23,4.44-25.36,4.93-52.33,19.55-70.3,38-17.64,18.11-20.9,44.47-20.9,68.4,0,11.58,7.85,24.28,17.29,32.34s35.63,15.21,47.39,14.68c9-.4,42.55-13.52,48.88-9.76,6.62-1.56,15.7-5.8,20.82-10.17,1.72,2.63,3.25,5.22,4.53,7.65a51.31,51.31,0,0,1,3.93,9.15,32,32,0,0,1-2.29,23.61A44.77,44.77,0,0,1,316.06,291.06Z" transform="translate(-0.32 -0.5)"/><path class="cls-9" d="M411.16,369.64l0,0c-13.83,12.52-31,18.82-52.16,16.42-13.24-1.5-35.31,1.47-47-4.38-12.07-6.05-28.62-20.45-37.32-30.82-9.07-10.82-14-26.45-9.26-28.77q6.29-1.92,12.22-4.33c12.92-5.24,29.42-14.36,39.41-26.74,13.75-1.4-2.31,12.07,1.55,15.93,5.78,5.82,9.84-5.59,11.6-9.23-1.41,6.4.49,18.27-8.48,19.06-11.6,1-8.26,12.6-.38,17.35s26.71,4.58,27.72-8.33c.92-11.82-17.85-5.47-16.5-18.53,1-9.46,9.26-10.34,14.38-16.66,5.68-7,11.38-20.26,19.53-24,8.95-4.14,21.09,3.13,26,10,5.83,8.15,14.93,10.46,21.79,17.32-14.57-6.08-24.32-8.59-36,1.65-10.56,9.24-6.81,28.1-1.35,38.36C385,349.12,395.79,361.89,411.16,369.64Z" transform="translate(-0.32 -0.5)"/><path class="cls-1" d="M316.25,242.4a93.31,93.31,0,0,0-6.41-8.69l.1-.07c-8.95-20.56,19.57-54.95,39.33-55.35,5.78.67,11.18,1.46,18.91,3a45.15,45.15,0,0,1,13.32,5.29c-15.86-5.41-37.29,2.15-47.56,9.09-18.08,12.22-21.54,34.79-13,54.29l-.15.07C319.5,247.62,318,245,316.25,242.4Z" transform="translate(-0.32 -0.5)"/><g id="thirdVentricle"><path class="cls-10" d="M353,216c5.23,1,9.43,10.22,7.42,14-2.65,5-9.68,3.61-14.09,1.59s-9-7.89-6.75-12.93S348.5,215.13,353,216Z" transform="translate(-0.32 -0.5)"/></g><g id="septumPellucidum"><path class="cls-11" d="M334,176.61c6.16.69,10.83,1.15,15.28,1.68-19.76.4-48.28,34.79-39.33,55.34l-.1.08c-9.2-11-20.88-19.08-30.14-11.09-7.77-5-21-6.17-25.61-15.17s3.29-20.5,11.5-23c9.82-3,22.38-4.34,32.67-5.36,5.43-.53,10.53-1.05,16.09-1.38C320.47,177.37,327.77,175.9,334,176.61Z" transform="translate(-0.32 -0.5)"/></g><path class="cls-12" d="M471,216.62c8.2,3.73,15.33,8.91,24,11.56,7,2.12,13.84,4.48,20.57,7.2q2.61,1.05,5.19,2.17c.17.07.33.14.5.23,5.52,2.41,10.91,5.09,16.16,8A263.6,263.6,0,0,1,567.14,265c.67.5,1.35,1,2,1.52,16.69,12.44,37.55,28.87,59.41,31.34a45.78,45.78,0,0,0,16.36-1,34.8,34.8,0,0,0,14.11-7.09c16.62-13.92,18.18-42.13,19.13-61.39,1.7-34.36-8.62-62.72-28-91.18q-4.7-6.89-9.8-13.31C603.24,76.9,551,47.47,496.82,22.6c-15.41-7.08-33.29-10.08-51.46-12-17.81-2-35.89-2.94-52.21-5.85-33.53-5.95-71.64-1.82-103.22,10-32.37,12.1-66.83,11.61-95.8,32.69C166.52,67.45,139.06,89.1,116.84,115c-35.59,41.44-53.4,127.72-11.62,172.12,37.95,40.33,107.29,51.14,160.21,35.05q6.29-1.92,12.22-4.33c12.92-5.24,29.42-14.36,39.41-26.74a44.77,44.77,0,0,0,5.36-8.25,32,32,0,0,0,2.29-23.61,50.58,50.58,0,0,0-3.93-9.15c-1.28-2.43-2.81-5-4.53-7.65a95.14,95.14,0,0,0-6.41-8.69c-9.2-11-20.88-19.08-30.14-11.09" transform="translate(-0.32 -0.5)"/><g id="corpusCallosum"><path class="cls-13" d="M279.7,222.62c-7.77-5-21-6.17-25.61-15.17s3.29-20.5,11.5-23c9.82-3,22.38-4.34,32.67-5.36,5.43-.53,10.53-1.05,16.09-1.38,6.12-.37,13.42-1.84,19.64-1.13s10.83,1.15,15.28,1.68c5.78.67,11.18,1.46,18.91,3a45.15,45.15,0,0,1,13.32,5.29c5.35,3,10.39,6.63,16.1,9.35,8.92,4.26,18,11.09,25.4,17.32,6.19,5.23,9.91,11.62,16.13,16.18a27.82,27.82,0,0,0,7.23,3.84c9.07,3.25,21.18-.93,24-10.67a17.53,17.53,0,0,0,.52-6c-.58-8.69-5.89-19.36-11.18-23.35-4.85-3.67-9.38-5.8-13.88-9.92-5.68-5.17-11.15-6.9-18.14-10.25-10.23-4.91-19.36-11.33-30-15.32-24.35-9.13-49.35-7.19-75.37-7.19-14.25,0-25.95-2.45-40.18-1.12C265.84,151,257.7,152,244.57,160.6c-16.06,10.55-37.45,34.07-29.38,57,3.68,10.48,12.63,17.35,23.5,19.38,10.53,2,20.78,2.27,29.4-4.63C271.63,229.53,276.64,225.78,279.7,222.62Z" transform="translate(-0.32 -0.5)"/></g><path class="cls-14" d="M475.34,258c3.69,1.18,7,4.3,9.6,7.41.64.77,1.25,1.53,1.82,2.27,3,3.9,3.46,8.54,5.56,12.64a53.67,53.67,0,0,0,8.79,12.29c3.07,3.19,8.34,5.1,9.57,9.41" transform="translate(-0.32 -0.5)"/><path class="cls-14" d="M478.67,239.75l.16,0c3.59.93,10.72,6.58,13.5,8.91s5.32,5.76,8.35,7.94" transform="translate(-0.32 -0.5)"/><path class="cls-14" d="M508.68,236.63c.29,4.39-1.53,7.14,0,11.69a64.48,64.48,0,0,0,4.59,11.33c2.15,3.75,4.16,7.41,6,11.35,1.46,3.13,4.53,8.21,4.42,11.65" transform="translate(-0.32 -0.5)"/><path class="cls-14" d="M523.06,242c.79,6.08.83,12,2.63,17.64" transform="translate(-0.32 -0.5)"/><path class="cls-14" d="M550.83,262.64c0,4.24-.39,8.6-2.06,12.33-.48,1-.95,2.12-1.42,3.2A49,49,0,0,0,545,285c-1,3.73-1.62,7.44-3.34,10.95-1.54,3.13-4.27,6.45-5.25,9.74" transform="translate(-0.32 -0.5)"/><path class="cls-14" d="M577.61,279.12c-1.65,5.71-5.14,15-7.9,19.87" transform="translate(-0.32 -0.5)"/><path class="cls-14" d="M577.71,278.77c0,.11-.06.23-.1.34" transform="translate(-0.32 -0.5)"/><path class="cls-14" d="M586.46,340.67h0c-2.92-4-8.57-9.44-12.42-12.74-3.38-2.9-6.34-3.09-10.59-4.24-4-1.09-7.7-1.63-11.76-2.33-3.86-.67-9.63-3.47-13.32-.35" transform="translate(-0.32 -0.5)"/><path class="cls-14" d="M560.21,379.32c-.32-3.74-5.05-11-6.77-15.37-1.58-4-2.35-8.15-4.32-11.93-3.71-7.18-8.24-15.07-14.76-19.68" transform="translate(-0.32 -0.5)"/><path class="cls-14" d="M515.81,373.56c-.15-7.15,6.26-15.93,6.55-22.89a57.58,57.58,0,0,0,0-10c-.52-3.48-2.57-6.52-3.67-9.67" transform="translate(-0.32 -0.5)"/><path class="cls-14" d="M484.8,265.39h.14c5.11-.53,14.63,2.83,18,6.26,1.8,1.84,3.2,4.19,5,6,1.55,1.57,5.15,3.29,5.42,5.33" transform="translate(-0.32 -0.5)"/><path class="cls-14" d="M547.45,278.15l-.1,0c-6.12,1.47-12.92,7.43-15.32,12.82" transform="translate(-0.32 -0.5)"/><path class="cls-14" d="M548.77,275c.52,6.19,3.83,21.21,3.26,27.36" transform="translate(-0.32 -0.5)"/><path class="cls-14" d="M530.32,381.82c.44-2.83,2.53-6,3-8.82a47.76,47.76,0,0,0,.07-7" transform="translate(-0.32 -0.5)"/><path class="cls-14" d="M549.7,383.69a.14.14,0,0,1,0-.07c-.9-2.61-1.44-6.73-3.32-8.93" transform="translate(-0.32 -0.5)"/><path class="cls-14" d="M575.22,375.44c-1.39-5.87-6.46-15.87-9.85-20.76" transform="translate(-0.32 -0.5)"/><path class="cls-14" d="M585.84,361.56c-.6-1.95-6.64-6.66-8.79-7.21" transform="translate(-0.32 -0.5)"/><path class="cls-14" d="M501.18,356.56c.76-2.89,2.2-6.15,2.17-9.22" transform="translate(-0.32 -0.5)"/><path class="cls-14" d="M471.17,302.28c4.26,1.68,7,6.66,12,8,3.5.93,7.21,1.38,10.68,2.66" transform="translate(-0.32 -0.5)"/><path class="cls-14" d="M545,255.89c-6.57,1.69-7.25,9.87-7.25,15.09" transform="translate(-0.32 -0.5)"/><path class="cls-12" d="M353,216c-4.45-.83-11.24-2.27-13.42,2.66s2.25,10.88,6.75,12.93S357.72,235,360.37,230C362.38,226.18,358.18,216.93,353,216Z" transform="translate(-0.32 -0.5)"/><path class="cls-14" d="M579.63,378.19c-.15,3.56.83,7.08,1.24,10.59a112.19,112.19,0,0,1,.42,13.23c0,5.15.93,9.2-.33,14.07" transform="translate(-0.32 -0.5)"/><path class="cls-14" d="M584.47,374.94c0,7.57,3.75,14.89,4,22.13.11,3.34.48,14.28-1.88,16.76" transform="translate(-0.32 -0.5)"/><path class="cls-14" d="M587.59,368.93c2,4.73,4.33,7.5,5.49,12.41a63.92,63.92,0,0,1,1.31,12c.17,5.13,0,10.29,0,15.41" transform="translate(-0.32 -0.5)"/><path class="cls-14" d="M590.59,359.56c5.08,5.67,10.76,17.29,12.8,24.47,1.45,5.09,2.29,6.54,2.59,11.91" transform="translate(-0.32 -0.5)"/><path class="cls-14" d="M589.71,349.17c8.07,5.95,15.55,18.09,20.66,26.25,2.77,4.42,3,8.13,3,13.27" transform="translate(-0.32 -0.5)"/><path class="cls-14" d="M595.1,289.78c-.16,7.3,7.51,20,10,26.8s6.12,12.92,9,19.62a56.6,56.6,0,0,1,4.64,22.38c0,5.78-.24,14.62-.24,20.48" transform="translate(-0.32 -0.5)"/><path class="cls-14" d="M601.39,334.33c3.11,2.7,6,10.85,7.26,15.08,1.09,3.57,3.84,16.27,2.44,19.77" transform="translate(-0.32 -0.5)"/><path class="cls-14" d="M597.72,339.43c3.5,3.54,3.77,12.58,5.13,17.25" transform="translate(-0.32 -0.5)"/><path class="cls-14" d="M593.09,341.8c.73,3.37,3.89,6.51,4.25,10" transform="translate(-0.32 -0.5)"/><path class="cls-14" d="M602.22,299.4c6.91-.14,13.48,5.23,19.68,7.19,4.19,1.33,5.91,1.36,9.71,3.45" transform="translate(-0.32 -0.5)"/><path class="cls-14" d="M606.22,308.41c6.25,1.48,15.65,5.74,21.61,8.27,2.7,1.14,4.4,2.86,8.15,5.12" transform="translate(-0.32 -0.5)"/><path class="cls-14" d="M610.22,318.17c7.44,2.45,11.11,2.69,16.88,7.62,3.42,2.92,5.77,3.5,9.26,6.26" transform="translate(-0.32 -0.5)"/><path class="cls-14" d="M614.39,327.67c7.74,4.42,17.61,5.4,22.35,13.38" transform="translate(-0.32 -0.5)"/><path class="cls-14" d="M619.47,339.17c5.4,3.06,11,8.77,13.39,14.26" transform="translate(-0.32 -0.5)"/><path class="cls-14" d="M622.48,351.18c-.09,2.81,3,6.34,4,8.85a17.75,17.75,0,0,1,.94,6.65" transform="translate(-0.32 -0.5)"/><path class="cls-14" d="M505.35,371.69c-1.13.65-1.07,1.1-1.92,2" transform="translate(-0.32 -0.5)"/><path class="cls-14" d="M540.36,389.36c-.23,7.91-6.1,17.82-11,23.84" transform="translate(-0.32 -0.5)"/><path class="cls-14" d="M531.94,387.94c-2.1,4.13-7.35,13.32-10.88,16.14" transform="translate(-0.32 -0.5)"/><path class="cls-14" d="M525.69,385.07c-1.25,3.05-7.51,8-8.25,11" transform="translate(-0.32 -0.5)"/><path class="cls-14" d="M516.94,380.44a24.39,24.39,0,0,0-4.38,6" transform="translate(-0.32 -0.5)"/><path class="cls-14" d="M511.06,376.19c-.8,1.72-3.18,3.82-3,5.84" transform="translate(-0.32 -0.5)"/><path class="cls-14" d="M549,388.69c1.93,5.21,2,17.3-.13,23" transform="translate(-0.32 -0.5)"/><path class="cls-14" d="M558,386.2c0,5.64,2.13,13.4.83,18.85-.77,3.22-2.2,6.39-2.41,9.65" transform="translate(-0.32 -0.5)"/><path class="cls-14" d="M563.33,383.94c5.15,5.95,5.93,25.59,2.71,32.77" transform="translate(-0.32 -0.5)"/><path class="cls-14" d="M571.21,381.45c-.37,7,4.34,14.27,5.17,21.16A35.55,35.55,0,0,1,575,417" transform="translate(-0.32 -0.5)"/><path class="cls-12" d="M349.62,178.28h-.35c-19.76.4-48.28,34.79-39.33,55.34" transform="translate(-0.32 -0.5)"/><path class="cls-12" d="M383.3,187.27c-.59-.24-1.19-.47-1.8-.67-15.86-5.42-37.29,2.15-47.56,9.09-18.08,12.22-21.54,34.79-13,54.29" transform="translate(-0.32 -0.5)"/><path class="cls-12" d="M411.14,369.68c-13.83,12.52-31,18.82-52.16,16.42-13.24-1.5-35.31,1.47-47-4.38-12.07-6.05-28.62-20.45-37.32-30.82-9.07-10.82-14-26.45-9.26-28.77l.32-.14" transform="translate(-0.32 -0.5)"/><path class="cls-12" d="M640.33,123.87c-13.79,3.53-21.92,19.2-28.9,30a233.51,233.51,0,0,1-21,27.24c-12.14,13.91-24.67,39-43.16,47-.54.24-1.07.45-1.61.65a29.54,29.54,0,0,1-7.31,1.74c-4.08.43-8.42,0-12.52,0" transform="translate(-0.32 -0.5)"/><path class="cls-12" d="M658.78,289.41c-19.35,2.12-37.77-17.65-53.69-26.12-9.23-4.92-18.05-9.45-26.58-15.68-7.48-5.46-21.92-17.29-31.28-19.48" transform="translate(-0.32 -0.5)"/><path class="cls-12" d="M445.34,10.75c-10.08,11.4-18,46.44-26,59.52" transform="translate(-0.32 -0.5)"/><path class="cls-12" d="M507.72,390.41a2.86,2.86,0,0,1-.15-.41" transform="translate(-0.32 -0.5)"/><path class="cls-12" d="M508.28,391.7a8.74,8.74,0,0,1-.55-1.26" transform="translate(-0.32 -0.5)"/><path class="cls-12" d="M628.4,297.66l.18.16c8.58,7.53,11,17.31,11.49,28.85.25,6.07.66,11.9.33,18-.33,6.39-4.88,11.46-6.91,17.36-1.79,5.19-5.64,10.22-8.49,15-3.52,5.88-6.36,10.77-11,16-8.88,10-17.52,21.49-30.27,27-5.52,2.38-13.61,1-19.66,1-7.4,0-11.84-3.63-18.63-5.36-6-1.52-12.47,3.19-19,2.05a8.41,8.41,0,0,1-4.75-2.42c-3.29-3.27-4-9-6.19-13.29-1.79-3.43-5.32-6.69-7.13-10.29" transform="translate(-0.32 -0.5)"/><path class="cls-12" d="M317,291.07h.08c13.75-1.4-2.31,12.07,1.55,15.93,5.79,5.82,9.84-5.59,11.6-9.23-1.41,6.4.49,18.27-8.47,19.06-11.61,1-8.27,12.6-.39,17.35s26.71,4.58,27.72-8.33c.92-11.82-17.85-5.47-16.5-18.53,1-9.46,9.26-10.34,14.38-16.66,5.68-7,11.38-20.26,19.53-24,8.95-4.14,21.09,3.12,26,10,5.83,8.15,14.93,10.46,21.79,17.32-14.57-6.08-24.32-8.59-36,1.65-10.56,9.24-6.81,28.1-1.35,38.36,8.06,15.12,18.83,27.89,34.2,35.64.7.36,1.42.71,2.16,1,8.19,3.78,20.48,8.72,28.63,5.89,4.73-1.64,8.07-5.91,8.38-14.55" transform="translate(-0.32 -0.5)"/><path class="cls-12" d="M416.31,244.3c5.54-.68,10.08,1.17,14.64,3.41,2.16,1.07,4.34,2.23,6.63,3.23,7.11,3.14,16,6.48,20.08,13.7,3.22,5.66,9.71,10.87,5.64,17.22-3.2,5,3.58,17,8,19.78a102.13,102.13,0,0,1-4.56-30c-.06-4.46.31-10.67,5.52-12s2.26-3.22,1-6.33c-1.72-4.26-1-8.27,2.76-11,1.91-1.41,2.57-2,2.82-2.51.46-.91-.56-1.4,2.24-5.8,6.6-10.37,15.12-3.8,21.28-2,2.95.85,4.55,2.55,6.68,4.65a8.66,8.66,0,0,1,6.58-1.22,13,13,0,0,1,4.54,1.62,6.28,6.28,0,0,1,1.15.78,6.19,6.19,0,0,1,2.11,3.46,22,22,0,0,1,7.14,1.43,29.35,29.35,0,0,1,12.27,8.65c2.91,3.49,2,7.32,6,10.28,3.55,2.6,7.4-1,11.32.47a37.87,37.87,0,0,1,8.78,4.69c4.23,3.12,7.56,7.23,8.66,12.35h0c0,.26.1.51.15.81v0c0-.72,4.26-.67,4.69-.58,5.44,1.06,7,10,6.64,14.09-.18,1.83-2.87,2.33-3.12,4.25-.39,2.87,4,5.65,7.53,8.34,5,3.84,2.32,5.92,3.22,11.33,1.14,6.83,4.27,14.45-2.5,19.19-2.1,1.48-4.73,1.51-6.72,2.94a3.5,3.5,0,0,0-1,1.2c-1.79,3.36-.06,10.43,0,13.44.09,8.91-1.91,17.73-10.88,21.65a36,36,0,0,1-10.19,2.49c-5.15.59-4.71,1-8,3.09a17.87,17.87,0,0,1-7.64,2.29c-2.85.31-5.78.28-8.32.41-9.57.49-18.6-4.79-25.86-10.55-3.2-2.53-17-11.24-15.2-15.74a12.59,12.59,0,0,1-6.82-1.91" transform="translate(-0.32 -0.5)"/><path class="cls-12" d="M438,237.16c2.84,1.25,5.06,4,4.62,6.15-1.11,5.3-8.45,5.23-11.62,4.33" transform="translate(-0.32 -0.5)"/><path class="cls-12" d="M322.55,282.87c1.78,1.3,5.9,3.21,7.33,4.85,1.65,1.89,1.69,5.73,3.4,7.6,2.36-1.64,6.23-4.19,8.34-6.34a51.85,51.85,0,0,0,7-8.66c3-5.44,4.15-8.73,8.26-13.43,3.48-4,7.54-7.95,12.16-10.5,5-2.76,9.4-2.92,14.92-3.76a43.85,43.85,0,0,1,16.35.68c5.53,1.41,10.56,4.25,15.67,6.67a70.76,70.76,0,0,1,13.67,8.33c5,3.84,11.37,8.8,15.67,13.34a68.4,68.4,0,0,1,10,12.67c2.81,4.88,6.38,9.3,8.77,14.34,4.91,10.33,10.49,21.16,16,31,2.71,4.84,6.7,9.54,7.84,15S489,365.63,491,371.09c4.56,12.65,12.95,24.65,15.93,37.71,1,4.49,9,30.69,10.92,34.59" transform="translate(-0.32 -0.5)"/><path class="cls-12" d="M522,441.72c-.91-3.64-9.6-25.85-10-29.68-.33-3.5-.82-6.89-1.41-10.34a57,57,0,0,0-2.32-10v0a11.72,11.72,0,0,0-.55-1.26,0,0,0,0,0,0,0c-1.46-3-3.87-5.62-4.3-8.93v0c-2.85-5.73-4.46-12.67-6.63-17.78a64.8,64.8,0,0,1-3.3-7.86,12.24,12.24,0,0,1-.48-4.74c.48-4.62.94-9.16-2.28-12.83,1.83-4.46,4.17-8.39,8.61-10.83,3.34-1.84,7.83-2.28,11.16-3.73-3.75.05-8.44.21-11.9-.34-6.93-1.1-13.68-1.62-19.86-5-5.57-3.08-8.16-6.51-11-12.34-4.55-9.36-9.41-18-17.08-26.35A118.19,118.19,0,0,0,439,268.31a75.9,75.9,0,0,0-14.08-9.25c-2.5-1.33-5-2.74-7.59-4s-5.62-1.73-8-3.33c-5.54-3.69-.36-10.61,4.9-12.49-2.06-2-4.58-8.8.44-8.94,3-.08,6,0,8.67,1.42,2.9,1.54,4.8,3,8,3.91a28.23,28.23,0,0,0,5.69,1.23l1,0a5.92,5.92,0,0,0,2.7-.6c3.53-1.87,0-4.39-1.67-6.66" transform="translate(-0.32 -0.5)"/><path class="cls-12" d="M521.57,415.21a.42.42,0,0,0,0,.1c1.44,4.13,2.37,9.12,4.08,13.07,1.07,2.47,3,6.85,3.72,9.23a30.75,30.75,0,0,1-7.4,4.2c-1.35.58-2.74,1.12-4.14,1.61-2.9,1.06-5.8,2-8.17,2.72-4.58,1.46-11.7,2.53-15,5.25-16.13-19-53.61-46.7-52.7-74.7" transform="translate(-0.32 -0.5)"/><path class="cls-12" d="M548.18,202c-13.3-23.51-24.85-32.16-27.08-33.49-5-3-22.2-13.93-27.55-17.1a347.43,347.43,0,0,0-44.41-22.25c-17.08-6.82-31.5-12.44-46.92-16.65a229.19,229.19,0,0,0-30.34-6.15c-14.79-2-37.69-2.09-52.58-1.9-13.65.18-32.92,1.86-46.22,4.44-25.37,4.93-52.34,19.55-70.3,38-17.65,18.11-20.9,44.47-20.9,68.4,0,11.58,7.84,24.28,17.29,32.34s35.62,15.21,47.38,14.68c9-.39,42.55-13.52,48.88-9.76,1.15.68,1.41,1.93.45,3.9" transform="translate(-0.32 -0.5)"/><path d="M591.88,249.56l.68-1.14,1.14.69-.69,1.13Z" transform="translate(-0.32 -0.5)"/><path class="cls-15" d="M330.5,326.39l-55.23,71.25" transform="translate(-0.32 -0.5)"/><path class="cls-16" d="M345,233,213,369" transform="translate(-0.32 -0.5)"/><path class="cls-15" d="M483.49,329.71l-85.05,71.8" transform="translate(-0.32 -0.5)"/><path class="cls-17" d="M185,74.56V73.22h-7.5V88H179V81.24h5.8V79.9H179V74.56Zm6.33,3.7V76.8a3.19,3.19,0,0,0-3.1,1.82V77.06h-1.48V88h1.48V81.62A3,3,0,0,1,191.35,78.26Zm11.83,4.3a5.54,5.54,0,0,0-5.68-5.76,5.73,5.73,0,1,0,.12,11.46A5.47,5.47,0,0,0,203.18,82.56Zm-1.5,0a4.08,4.08,0,0,1-4.1,4.32,4.38,4.38,0,1,1,4.1-4.32ZM215,88V82.26c0-3.84-1.94-5.46-4.68-5.46a4.34,4.34,0,0,0-3.52,1.68V77.06h-1.48V88h1.48V82c0-2.68,1.36-3.82,3.34-3.82s3.38,1.12,3.38,4.1V88Zm7.8-9.6V77.06h-2.46V73.22h-1.48v3.84h-2.36V78.4h2.36V88h1.48V78.4ZM234.9,88V77.06h-1.48V79a4.86,4.86,0,0,0-4.32-2.2,5.73,5.73,0,1,0,.1,11.46,4.72,4.72,0,0,0,4.22-2.18V88Zm-1.48-5.52a4.26,4.26,0,0,1-4.2,4.42,4.34,4.34,0,0,1-4.38-4.44,4.29,4.29,0,0,1,4.3-4.3A4.24,4.24,0,0,1,233.42,82.48ZM238.9,88V73.22h-1.48V88Zm9.55,0V73.22H247V88ZM262,82.56a5.54,5.54,0,0,0-5.68-5.76,5.73,5.73,0,1,0,.12,11.46A5.47,5.47,0,0,0,262,82.56Zm-1.5,0a4.08,4.08,0,0,1-4.1,4.32,4.38,4.38,0,1,1,4.1-4.32Zm15.15-.06a5.67,5.67,0,0,0-5.76-5.72,5,5,0,0,0-4.3,2.14V73.22h-1.48V88h1.48V86.12a5,5,0,0,0,4.28,2.14A5.63,5.63,0,0,0,275.62,82.52Zm-1.5,0a4.28,4.28,0,0,1-4.32,4.42,4.39,4.39,0,0,1-4.34-4.42,4.3,4.3,0,0,1,4.36-4.32A4.21,4.21,0,0,1,274.12,82.48Zm14.55.54c0-3.88-2.46-6.22-5.7-6.22a5.63,5.63,0,0,0-5.68,5.68,5.72,5.72,0,0,0,5.78,5.78,5.79,5.79,0,0,0,5.32-3.86h-1.54A4.15,4.15,0,0,1,283,86.9,4.23,4.23,0,0,1,278.77,83Zm-1.48-1.34h-8.38A4.17,4.17,0,0,1,283,78.16,4.24,4.24,0,0,1,287.19,81.68Z" transform="translate(-0.32 -0.5)"/><path d="M270,133.24v-8.09h-1.33v1.75a4.44,4.44,0,0,0-3.85-2,5,5,0,0,0-5,5.2,5.05,5.05,0,0,0,5.13,5.11,3.88,3.88,0,0,0,3.76-2.23v.67c0,2.59-1.24,4-3.62,4-1.66,0-2.61-.56-3.62-2.34h-1.29a4.82,4.82,0,0,0,4.95,3.56,4.88,4.88,0,0,0,4-1.76C269.73,136.21,270,135.16,270,133.24ZM268.65,130a3.78,3.78,0,1,1-7.54,0,3.69,3.69,0,0,1,3.76-3.87A3.76,3.76,0,0,1,268.65,130Zm12-4.81h-1.43L275.85,133l-3.12-7.85h-1.46l3.82,9.53-1.6,3.78h1.42Zm5.42,1.08v-1.31a2.87,2.87,0,0,0-2.79,1.64v-1.41H281.9V135h1.33v-5.74A2.74,2.74,0,0,1,286,126.23ZM296,135v-9.85h-1.34v5.06c0,2.68-1.26,3.8-3.06,3.8s-2.95-1-2.95-3.55v-5.31h-1.33v5.31c0,3.44,1.67,4.77,4.18,4.77a3.2,3.2,0,0,0,3.16-1.76V135Zm7.63-2.83a2.53,2.53,0,0,0-1.7-2.52c-1.5-.61-1.57-.64-1.86-.79a1.38,1.38,0,0,1-.9-1.29,1.41,1.41,0,0,1,1.42-1.43,1.32,1.32,0,0,1,1.44,1.44h1.35a2.62,2.62,0,0,0-2.77-2.66,2.7,2.7,0,0,0-2.79,2.77,2.34,2.34,0,0,0,.74,1.77c.4.37.43.39,1.82.95s1.9.9,1.9,1.89a1.63,1.63,0,0,1-1.65,1.71,1.75,1.75,0,0,1-1.85-1.91h-1.32a3,3,0,0,0,3.17,3.13A2.9,2.9,0,0,0,303.62,132.17ZM320,132.1h-1.51a3.94,3.94,0,1,1-3.42-6,3.84,3.84,0,0,1,3.42,2H320a5.09,5.09,0,1,0,0,4Zm3.18,2.9v-9.85h-1.33V135Zm0-10.93v-2.26h-1.33v2.26Zm11,10.93v-5.17c0-3.45-1.75-4.91-4.21-4.91a3.9,3.9,0,0,0-3.17,1.51v-1.28h-1.33V135h1.33v-5.42c0-2.41,1.23-3.44,3-3.44s3,1,3,3.69V135Zm12.12-1.76v-8.09H345v1.75a4.44,4.44,0,0,0-3.85-2,5,5,0,0,0-5,5.2,5.05,5.05,0,0,0,5.13,5.11A3.87,3.87,0,0,0,345,133v.67c0,2.59-1.24,4-3.62,4-1.65,0-2.61-.56-3.62-2.34h-1.29a4.82,4.82,0,0,0,5,3.56,4.88,4.88,0,0,0,4-1.76C346.07,136.21,346.32,135.16,346.32,133.24ZM345,130a3.78,3.78,0,1,1-7.54,0,3.69,3.69,0,0,1,3.76-3.87A3.76,3.76,0,0,1,345,130Zm12.27,5v-9.85h-1.33v5.06c0,2.68-1.26,3.8-3.06,3.8s-2.95-1-2.95-3.55v-5.31h-1.33v5.31c0,3.44,1.67,4.77,4.17,4.77a3.22,3.22,0,0,0,3.17-1.76V135Zm3.61,0V121.7h-1.33V135Zm3.6,0v-9.85h-1.33V135Zm0-10.93v-2.26h-1.33v2.26Z" transform="translate(-0.32 -0.5)"/><path d="M261.94,168.1h-1.51a3.94,3.94,0,1,1-3.42-6,3.83,3.83,0,0,1,3.42,2h1.5a5.25,5.25,0,1,0-4.81,7.09A5.11,5.11,0,0,0,261.94,168.1Zm11.75-2a5,5,0,0,0-5.11-5.18,5.16,5.16,0,1,0,.1,10.31A4.93,4.93,0,0,0,273.69,166.1Zm-1.35,0a3.67,3.67,0,0,1-3.69,3.89,3.94,3.94,0,1,1,3.69-3.89Zm7.36-3.89v-1.31a2.86,2.86,0,0,0-2.78,1.64v-1.41h-1.34V171h1.34v-5.74A2.73,2.73,0,0,1,279.7,162.23Zm11.68,3.87a5.09,5.09,0,0,0-5.18-5.18,4.44,4.44,0,0,0-3.87,1.93v-1.7H281v13.31h1.33v-5.15a4.42,4.42,0,0,0,3.83,1.92A5.11,5.11,0,0,0,291.38,166.1Zm-1.35,0a3.81,3.81,0,0,1-3.87,3.91A3.94,3.94,0,1,1,290,166.1Zm11.91,4.9v-9.85h-1.33v5.06c0,2.68-1.26,3.8-3.06,3.8s-2.95-1-2.95-3.55v-5.31h-1.33v5.31c0,3.44,1.67,4.77,4.17,4.77a3.22,3.22,0,0,0,3.17-1.76V171Zm7.64-2.83a2.54,2.54,0,0,0-1.71-2.52c-1.49-.61-1.56-.64-1.85-.79a1.38,1.38,0,0,1-.9-1.29,1.41,1.41,0,0,1,1.42-1.43,1.33,1.33,0,0,1,1.44,1.44h1.35a2.62,2.62,0,0,0-2.77-2.66,2.7,2.7,0,0,0-2.79,2.77,2.34,2.34,0,0,0,.74,1.77c.39.37.43.39,1.81.95s1.91.9,1.91,1.89a1.63,1.63,0,0,1-1.65,1.71,1.76,1.76,0,0,1-1.86-1.91h-1.31a3,3,0,0,0,3.17,3.13A2.9,2.9,0,0,0,309.58,168.17ZM326,168.1h-1.51a3.94,3.94,0,1,1-3.42-6,3.85,3.85,0,0,1,3.42,2H326a5.09,5.09,0,1,0,0,4Zm11.87,2.9v-9.85h-1.33v1.75a4.37,4.37,0,0,0-3.89-2,5.16,5.16,0,1,0,.09,10.31,4.25,4.25,0,0,0,3.8-2V171Zm-1.33-5a3.84,3.84,0,0,1-3.78,4,3.91,3.91,0,0,1-3.94-4,3.86,3.86,0,1,1,7.72,0Zm4.92,5V157.7h-1.33V171Zm3.61,0V157.7h-1.34V171Zm12.17-4.9a5,5,0,0,0-5.12-5.18,5.16,5.16,0,1,0,.11,10.31A4.93,4.93,0,0,0,357.24,166.1Zm-1.35,0A3.67,3.67,0,0,1,352.2,170a3.94,3.94,0,1,1,3.69-3.89Zm8.61,2a2.54,2.54,0,0,0-1.71-2.52c-1.5-.61-1.57-.64-1.86-.79a1.38,1.38,0,0,1-.9-1.29,1.41,1.41,0,0,1,1.42-1.43,1.32,1.32,0,0,1,1.44,1.44h1.35a2.61,2.61,0,0,0-2.77-2.66,2.7,2.7,0,0,0-2.79,2.77,2.34,2.34,0,0,0,.74,1.77c.4.37.43.39,1.82.95s1.91.9,1.91,1.89a1.64,1.64,0,0,1-1.66,1.71,1.75,1.75,0,0,1-1.85-1.91h-1.32a3,3,0,0,0,3.17,3.13A2.91,2.91,0,0,0,364.5,168.17ZM374.79,171v-9.85h-1.34v5.06c0,2.68-1.25,3.8-3.06,3.8s-2.95-1-2.95-3.55v-5.31h-1.33v5.31c0,3.44,1.68,4.77,4.18,4.77a3.2,3.2,0,0,0,3.16-1.76V171Zm16.89,0v-5.85c0-2.86-1.62-4.25-3.87-4.25a3.72,3.72,0,0,0-3.42,1.91,3.42,3.42,0,0,0-3.22-1.89,3.11,3.11,0,0,0-2.78,1.37v-1.14h-1.33V171h1.33v-5.74c0-2,1-3.12,2.65-3.12,1.51,0,2.66.92,2.66,3.12V171H385v-5.71c0-2.23,1.13-3.16,2.7-3.16s2.61,1,2.61,3.16V171Z" transform="translate(-0.32 -0.5)"/><path d="M175.89,359.36v-1.21h-2.22V354.7h-1.33v3.45h-2.12v1.21h2.12V368h1.33v-8.64ZM186,368v-5.29c0-3.3-1.7-4.79-4.25-4.79a3.65,3.65,0,0,0-3.13,1.51V354.7h-1.34V368h1.34v-5.4c0-2.41,1.29-3.46,3-3.46s3,1.12,3,3.57V368Zm3.6,0v-9.85h-1.33V368Zm0-10.93v-2.26h-1.33v2.26Zm6.4,2.16v-1.31a2.89,2.89,0,0,0-2.8,1.64v-1.41h-1.33V368h1.33v-5.74A2.74,2.74,0,0,1,196,359.23ZM206.76,368V354.7h-1.34v5a4.9,4.9,0,0,0-3.87-1.8,5.1,5.1,0,0,0-5.23,5.17,5.16,5.16,0,0,0,5.36,5.14,4.15,4.15,0,0,0,3.74-2V368Zm-1.28-4.95a3.91,3.91,0,1,1-7.82,0,3.86,3.86,0,0,1,3.86-3.89A3.94,3.94,0,0,1,205.48,363.05Zm-25.65,21.1h-1.35L175,392.43l-3.46-8.28h-1.35l4.14,9.85h1.41Zm10.68,5.37c0-3.49-2.22-5.6-5.13-5.6a5.06,5.06,0,0,0-5.11,5.11,5.14,5.14,0,0,0,5.2,5.2,5.21,5.21,0,0,0,4.79-3.47h-1.39a3.73,3.73,0,0,1-3.44,2.25,3.81,3.81,0,0,1-3.83-3.49Zm-1.33-1.21h-7.55a3.76,3.76,0,0,1,3.73-3.17A3.82,3.82,0,0,1,189.18,388.31ZM201.06,394v-5.17c0-3.45-1.74-4.91-4.21-4.91a3.9,3.9,0,0,0-3.17,1.51v-1.28h-1.33V394h1.33v-5.42c0-2.41,1.23-3.44,3-3.44s3,1,3,3.69V394Zm7-8.64v-1.21h-2.21V380.7h-1.34v3.45h-2.12v1.21h2.12V394h1.34v-8.64Zm5.47-.13v-1.31a2.87,2.87,0,0,0-2.79,1.64v-1.41h-1.33V394h1.33v-5.74A2.74,2.74,0,0,1,213.56,385.23Zm2.62,8.77v-9.85h-1.33V394Zm0-10.93v-2.26h-1.33v2.26Zm12.08,8h-1.51a3.94,3.94,0,1,1-3.42-6,3.83,3.83,0,0,1,3.42,2h1.5a5.25,5.25,0,1,0-4.81,7.09A5.11,5.11,0,0,0,228.26,391.1Zm3.18,2.9V380.7h-1.33V394Zm12.14-4.48c0-3.49-2.22-5.6-5.13-5.6a5.06,5.06,0,0,0-5.12,5.11,5.13,5.13,0,0,0,10,1.73h-1.38A3.74,3.74,0,0,1,238.5,393a3.79,3.79,0,0,1-3.83-3.49Zm-1.34-1.21H234.7a3.76,3.76,0,0,1,3.73-3.17A3.81,3.81,0,0,1,242.24,388.31Z" transform="translate(-0.32 -0.5)"/><path d="M247.52,414.1a5.09,5.09,0,0,0-5.18-5.18,4.43,4.43,0,0,0-3.87,1.93v-1.7h-1.34v13.31h1.34v-5.15a4.42,4.42,0,0,0,3.83,1.92A5.12,5.12,0,0,0,247.52,414.1Zm-1.35,0A3.81,3.81,0,0,1,242.3,418a3.94,3.94,0,1,1,3.87-3.91Zm4.57,4.9v-9.85H249.4V419Zm0-10.93v-2.26H249.4v2.26Zm7,2.29v-1.21h-2.22V405.7h-1.33v3.45h-2.12v1.21h2.12V419h1.33v-8.64Zm10,8.64v-9.85h-1.33v5.06c0,2.68-1.26,3.8-3.06,3.8s-2.95-1-2.95-3.55v-5.31h-1.33v5.31c0,3.44,1.67,4.77,4.17,4.77a3.22,3.22,0,0,0,3.17-1.76V419Zm3.61,0v-9.85h-1.33V419Zm0-10.93v-2.26h-1.33v2.26Zm7,2.29v-1.21H276.2V405.7h-1.33v3.45h-2.13v1.21h2.13V419h1.33v-8.64ZM289.33,419v-9.85H288v1.75a4.37,4.37,0,0,0-3.89-2,5.16,5.16,0,1,0,.09,10.31,4.25,4.25,0,0,0,3.8-2V419ZM288,414a3.84,3.84,0,0,1-3.78,4,3.91,3.91,0,0,1-3.94-4,3.86,3.86,0,1,1,7.72,0Zm7.71-3.8v-1.31a2.88,2.88,0,0,0-2.79,1.64v-1.41h-1.33V419h1.33v-5.74A2.74,2.74,0,0,1,295.71,410.23Zm10.19-1.08h-1.42L301.15,417,298,409.15h-1.46l3.81,9.53-1.6,3.78h1.42ZM247,443.24v-8.09h-1.33v1.75a4.44,4.44,0,0,0-3.85-2,5,5,0,0,0-5,5.2,5.05,5.05,0,0,0,5.13,5.11,3.88,3.88,0,0,0,3.76-2.23v.67c0,2.59-1.24,4-3.62,4-1.66,0-2.61-.56-3.62-2.34h-1.29a4.82,4.82,0,0,0,4.95,3.56,4.88,4.88,0,0,0,4-1.76C246.73,446.21,247,445.16,247,443.24ZM245.65,440a3.78,3.78,0,1,1-7.54.05,3.69,3.69,0,0,1,3.76-3.87A3.76,3.76,0,0,1,245.65,440Zm5.19,5V431.7h-1.33V445Zm12.3,0v-9.85h-1.33v1.75a4.38,4.38,0,0,0-3.89-2,5.16,5.16,0,1,0,.09,10.31,4.25,4.25,0,0,0,3.8-2V445Zm-1.33-5a3.84,3.84,0,0,1-3.78,4,3.91,3.91,0,0,1-3.94-4,3.86,3.86,0,1,1,7.72,0Zm12.3,5v-5.17c0-3.45-1.74-4.91-4.21-4.91a3.9,3.9,0,0,0-3.17,1.51v-1.28H265.4V445h1.33v-5.42c0-2.41,1.23-3.44,3-3.44s3,1,3,3.69V445Zm12.34,0V431.7h-1.33v5a4.92,4.92,0,0,0-3.87-1.8,5.11,5.11,0,0,0-5.24,5.17,5.16,5.16,0,0,0,5.36,5.14,4.16,4.16,0,0,0,3.75-2V445Zm-1.28-4.95a3.91,3.91,0,1,1-7.81,0,3.85,3.85,0,0,1,3.85-3.89A3.94,3.94,0,0,1,285.17,440.05Z" transform="translate(-0.32 -0.5)"/><path d="M360.6,408.36v-1.21h-2.45c0-1.63.63-2.25,2.45-2.25v-1.2c-2.54,0-3.82,1.17-3.78,3.45h-1.53v1.21h1.53V417h1.33v-8.64Zm10.74,3.74a5,5,0,0,0-5.11-5.18,5.16,5.16,0,1,0,.11,10.31A4.92,4.92,0,0,0,371.34,412.1Zm-1.35,0A3.66,3.66,0,0,1,366.3,416a3.94,3.94,0,1,1,3.69-3.89ZM381.91,417v-9.85h-1.33v5.06c0,2.68-1.26,3.8-3.06,3.8s-2.95-1-2.95-3.55v-5.31h-1.33v5.31c0,3.44,1.67,4.77,4.17,4.77a3.22,3.22,0,0,0,3.17-1.76V417Zm6.4-8.77v-1.31a2.87,2.87,0,0,0-2.79,1.64v-1.41h-1.33V417h1.33v-5.74A2.74,2.74,0,0,1,388.31,408.23Zm6.59.13v-1.21h-2.21V403.7h-1.34v3.45h-2.12v1.21h2.12V417h1.34v-8.64ZM405,417v-5.29c0-3.3-1.69-4.79-4.25-4.79a3.65,3.65,0,0,0-3.13,1.51V403.7h-1.33V417h1.33v-5.4c0-2.41,1.3-3.46,3-3.46s3.05,1.12,3.05,3.57V417Zm-40.13,16.15h-1.35L360,441.43l-3.46-8.28h-1.35l4.14,9.85h1.41Zm10.68,5.37c0-3.49-2.22-5.6-5.13-5.6a5.06,5.06,0,0,0-5.11,5.11,5.14,5.14,0,0,0,5.2,5.2,5.21,5.21,0,0,0,4.79-3.47h-1.39a3.73,3.73,0,0,1-3.44,2.25,3.81,3.81,0,0,1-3.83-3.49Zm-1.33-1.21h-7.55a3.76,3.76,0,0,1,3.73-3.17A3.82,3.82,0,0,1,374.18,437.31ZM386.06,443v-5.17c0-3.45-1.74-4.91-4.21-4.91a3.9,3.9,0,0,0-3.17,1.51v-1.28h-1.33V443h1.33v-5.42c0-2.41,1.23-3.44,3-3.44s3,1,3,3.69V443Zm7-8.64v-1.21h-2.21V429.7h-1.34v3.45h-2.12v1.21h2.12V443h1.34v-8.64Zm5.47-.13v-1.31a2.87,2.87,0,0,0-2.79,1.64v-1.41h-1.33V443h1.33v-5.74A2.74,2.74,0,0,1,398.56,434.23Zm2.62,8.77v-9.85h-1.33V443Zm0-10.93v-2.26h-1.33v2.26Zm12.08,8h-1.51a3.94,3.94,0,1,1-3.42-6,3.83,3.83,0,0,1,3.42,2h1.5a5.25,5.25,0,1,0-4.81,7.09A5.11,5.11,0,0,0,413.26,440.1Zm3.18,2.9V429.7h-1.33V443Zm12.14-4.48c0-3.49-2.22-5.6-5.13-5.6a5.06,5.06,0,0,0-5.12,5.11,5.13,5.13,0,0,0,10,1.73h-1.38A3.74,3.74,0,0,1,423.5,442a3.79,3.79,0,0,1-3.83-3.49Zm-1.34-1.21H419.7a3.76,3.76,0,0,1,3.73-3.17A3.81,3.81,0,0,1,427.24,437.31Z" transform="translate(-0.32 -0.5)"/><path d="M472.88,377.25,477,374.6c2-1.3,2.23-3.05,1.21-4.63a3.1,3.1,0,0,0-2.88-1.52,2.83,2.83,0,0,0-.15-3.1,2.56,2.56,0,0,0-2.21-1.32l.79-.51-.6-.93-6.87,4.46.6.93,4-2.6c1.37-.89,2.62-.72,3.37.43s.57,2.28-1,3.27l-4,2.61.6.93,4-2.59c1.55-1,2.72-.64,3.43.45s.52,2.25-1,3.26l-4,2.58Zm8.64,6.45c2.43-1.59,2.9-4.09,1.58-6.12a4.21,4.21,0,0,0-5.89-1.25,4.27,4.27,0,0,0,3.32,7.75l-.62-1a3.11,3.11,0,0,1-3.13-1.38,3.16,3.16,0,0,1,.7-4.26Zm.23-1.48L478.33,377a3.1,3.1,0,0,1,3.9,1.16A3.16,3.16,0,0,1,481.75,382.22Zm2,11.82,9.29-6-.6-.93L489,389.36a4.08,4.08,0,0,0-.5-3.52,4.25,4.25,0,0,0-6-1.32,4.31,4.31,0,0,0-1.16,6.08,3.43,3.43,0,0,0,3.1,1.7l-1.24.81Zm2.88-3.14a3.25,3.25,0,1,1-3.53-5.46,3.2,3.2,0,0,1,4.46.93A3.27,3.27,0,0,1,486.66,390.9Zm2.08,10.77,6.87-4.46-.6-.93-3.53,2.3c-1.87,1.21-3.22.84-4-.42s-.61-2.53,1.14-3.67l3.71-2.41-.61-.93-3.7,2.41c-2.4,1.56-2.58,3.33-1.44,5.08a2.67,2.67,0,0,0,2.67,1.41l-1.07.69Zm1.64,2.52,9.28-6-.6-.93-9.29,6Zm1.63,2.52,9.29-6-.61-.93-9.28,6Zm5.58,8.58,6.87-4.46-.6-.93-1.22.79a3.66,3.66,0,0,0-.38-3.61,4.29,4.29,0,1,0-7.16,4.74,3.52,3.52,0,0,0,3.09,1.76l-1.21.78Zm2.86-3.18a3.2,3.2,0,0,1-4.49-.83,3.26,3.26,0,0,1,1-4.57,3.23,3.23,0,0,1,4.46,1A3.18,3.18,0,0,1,500.45,412.11Zm-44.74-28.39a4.14,4.14,0,0,0,1.3-5.92,4.3,4.3,0,1,0-7.15,4.76A4.1,4.1,0,0,0,455.71,383.72Zm-.62-.93a3.06,3.06,0,0,1-4.39-.81,3.28,3.28,0,1,1,4.39.81Zm6.21,9.49a4.24,4.24,0,0,0,1.25-5.95,3.75,3.75,0,0,0-3.1-1.83l3.59-2.33-.6-.93-9.29,6,.61.93,1.18-.77a3.78,3.78,0,0,0,.4,3.56A4.2,4.2,0,0,0,461.3,392.28Zm-.58-1a3.2,3.2,0,0,1-4.54-.91,3.29,3.29,0,0,1,1-4.53,3.23,3.23,0,0,1,4.5,1A3.16,3.16,0,0,1,460.72,391.32Zm-1.4,5.44,9.29-6-.61-.93-9.29,6Zm8.94,6.28a4.16,4.16,0,0,0,1.3-5.92,4.3,4.3,0,1,0-7.16,4.75A4.11,4.11,0,0,0,468.26,403Zm-.63-.93a3.06,3.06,0,0,1-4.39-.82,3.28,3.28,0,1,1,4.39.82Zm2,10.55,3.6-2.34c2.42-1.56,2.64-3.44,1.52-5.17a3.24,3.24,0,0,0-2.49-1.52l.89-.58-.6-.93-6.87,4.46.6.93,3.78-2.45c1.69-1.1,3-.71,3.77.54s.67,2.58-1.2,3.79L469,411.73Zm6.72,7.67,5.64-3.67-.6-.93-1.22.79a3.69,3.69,0,0,0-.36-3.58,4.29,4.29,0,0,0-7.16,4.73,3.21,3.21,0,0,0,3.26,1.62l-.46.3c-1.81,1.18-3.34.94-4.42-.72a3.08,3.08,0,0,1,0-3.59l-.59-.9a4,4,0,0,0-.24,5.07,4.1,4.1,0,0,0,3,2A5,5,0,0,0,476.37,420.33Zm1.68-2.42a3.2,3.2,0,0,1-4.53-.79,3.16,3.16,0,0,1,1.08-4.45,3.07,3.07,0,0,1,4.41.87A3.13,3.13,0,0,1,478.05,417.91Zm2.66,11.8,6.88-4.47-.61-.93-1.22.79a3.61,3.61,0,0,0-.38-3.61,4.29,4.29,0,1,0-7.16,4.74,3.54,3.54,0,0,0,3.1,1.76l-1.21.79Zm2.87-3.19a3.19,3.19,0,0,1-4.49-.83,3.28,3.28,0,0,1,5.46-3.62A3.19,3.19,0,0,1,483.58,426.52Zm6.34,4.16.85-.54-1-1.55,2.41-1.56-.6-.93-2.41,1.56-1-1.48-.85.55,1,1.48-6,3.92.6.93,6-3.92Zm-1.08,11.54,6.87-4.46-.6-.93-1.22.79a3.61,3.61,0,0,0-.38-3.61,4.29,4.29,0,1,0-7.16,4.74,3.53,3.53,0,0,0,3.09,1.76l-1.2.78Zm2.87-3.18a3.2,3.2,0,0,1-4.5-.84,3.25,3.25,0,0,1,1-4.56,3.21,3.21,0,1,1,3.49,5.4Z" transform="translate(-0.32 -0.5)"/><path d="M503.94,314.1h-1.51a3.94,3.94,0,1,1-3.42-6,3.83,3.83,0,0,1,3.42,2h1.5a5.25,5.25,0,1,0-4.81,7.09A5.11,5.11,0,0,0,503.94,314.1Zm11.71-1.58c0-3.49-2.21-5.6-5.13-5.6a5.06,5.06,0,0,0-5.11,5.11,5.15,5.15,0,0,0,5.2,5.2,5.21,5.21,0,0,0,4.79-3.47H514a3.72,3.72,0,0,1-3.43,2.25,3.81,3.81,0,0,1-3.84-3.49Zm-1.33-1.21h-7.54a3.75,3.75,0,0,1,3.72-3.17A3.82,3.82,0,0,1,514.32,311.31Zm7.3-3.08v-1.31a2.87,2.87,0,0,0-2.79,1.64v-1.41h-1.34V317h1.34v-5.74A2.74,2.74,0,0,1,521.62,308.23Zm10.61,4.29c0-3.49-2.22-5.6-5.13-5.6A5.06,5.06,0,0,0,522,312a5.14,5.14,0,0,0,5.2,5.2,5.21,5.21,0,0,0,4.79-3.47h-1.39a3.73,3.73,0,0,1-3.44,2.25,3.81,3.81,0,0,1-3.83-3.49Zm-1.33-1.21h-7.55a3.76,3.76,0,0,1,3.73-3.17A3.82,3.82,0,0,1,530.9,311.31Zm13.56.76a5.1,5.1,0,0,0-5.19-5.15,4.5,4.5,0,0,0-3.87,1.93V303.7h-1.33V317h1.33v-1.69a4.56,4.56,0,0,0,3.86,1.92A5.06,5.06,0,0,0,544.46,312.07Zm-1.35,0a3.85,3.85,0,0,1-3.89,4,4,4,0,0,1-3.91-4,3.87,3.87,0,0,1,3.93-3.89A3.8,3.8,0,0,1,543.11,312Zm13.1.49c0-3.49-2.22-5.6-5.13-5.6A5.06,5.06,0,0,0,546,312a5.15,5.15,0,0,0,5.2,5.2,5.2,5.2,0,0,0,4.79-3.47h-1.38a3.74,3.74,0,0,1-3.44,2.25,3.81,3.81,0,0,1-3.84-3.49Zm-1.34-1.21h-7.54a3.75,3.75,0,0,1,3.73-3.17A3.81,3.81,0,0,1,554.87,311.31Zm4.51,5.69V303.7h-1.33V317Zm3.6,0V303.7h-1.33V317Zm10.95,0v-9.85H572.6v5.06c0,2.68-1.26,3.8-3.06,3.8s-2.95-1-2.95-3.55v-5.31h-1.33v5.31c0,3.44,1.67,4.77,4.17,4.77a3.23,3.23,0,0,0,3.17-1.76V317Zm16.89,0v-5.85c0-2.86-1.62-4.25-3.87-4.25a3.72,3.72,0,0,0-3.42,1.91,3.4,3.4,0,0,0-3.22-1.89,3.09,3.09,0,0,0-2.77,1.37v-1.14h-1.33V317h1.33v-5.74c0-2,1-3.12,2.64-3.12s2.67.92,2.67,3.12V317h1.33v-5.71c0-2.23,1.13-3.16,2.7-3.16s2.61.95,2.61,3.16V317Z" transform="translate(-0.32 -0.5)"/><path d="M6.5,296.17a2.54,2.54,0,0,0-1.71-2.52c-1.5-.61-1.57-.64-1.86-.79a1.38,1.38,0,0,1-.9-1.29,1.42,1.42,0,0,1,1.43-1.43,1.33,1.33,0,0,1,1.44,1.44H6.25a2.62,2.62,0,0,0-2.78-2.66,2.7,2.7,0,0,0-2.79,2.77,2.38,2.38,0,0,0,.74,1.77c.4.37.43.39,1.82,1s1.91.9,1.91,1.89A1.63,1.63,0,0,1,3.49,298a1.75,1.75,0,0,1-1.85-1.91H.32a3,3,0,0,0,3.17,3.13A2.91,2.91,0,0,0,6.5,296.17ZM18,294.52c0-3.49-2.22-5.6-5.13-5.6A5.06,5.06,0,0,0,7.73,294a5.13,5.13,0,0,0,10,1.73H16.34A3.74,3.74,0,0,1,12.9,298a3.79,3.79,0,0,1-3.83-3.49Zm-1.34-1.21H9.1a3.76,3.76,0,0,1,3.73-3.17A3.81,3.81,0,0,1,16.64,293.31Zm13.57.79A5.1,5.1,0,0,0,25,288.92a4.45,4.45,0,0,0-3.87,1.93v-1.7H19.82v13.31h1.33v-5.15A4.45,4.45,0,0,0,25,299.23,5.12,5.12,0,0,0,30.21,294.1Zm-1.35,0A3.82,3.82,0,0,1,25,298a3.94,3.94,0,1,1,3.87-3.91Zm7.52-3.74v-1.21H34.17V285.7H32.84v3.45H30.71v1.21h2.13V299h1.33v-8.64Zm10,8.64v-9.85H45.08v5.06c0,2.68-1.26,3.8-3.06,3.8s-3-1-3-3.55v-5.31H37.73v5.31c0,3.44,1.68,4.77,4.18,4.77a3.23,3.23,0,0,0,3.17-1.76V299Zm16.89,0v-5.85c0-2.86-1.62-4.25-3.87-4.25A3.72,3.72,0,0,0,56,290.81a3.42,3.42,0,0,0-3.22-1.89A3.11,3.11,0,0,0,50,290.29v-1.14H48.68V299H50v-5.74c0-2,1-3.12,2.65-3.12s2.66.92,2.66,3.12V299h1.34v-5.71c0-2.23,1.13-3.16,2.7-3.16s2.61.95,2.61,3.16V299ZM11.52,320.1a5.09,5.09,0,0,0-5.18-5.18,4.43,4.43,0,0,0-3.87,1.93v-1.7H1.13v13.31H2.47v-5.15a4.42,4.42,0,0,0,3.83,1.92A5.12,5.12,0,0,0,11.52,320.1Zm-1.35,0A3.81,3.81,0,0,1,6.3,324a3.94,3.94,0,0,1,0-7.87A3.84,3.84,0,0,1,10.17,320.1Zm13.1.42c0-3.49-2.22-5.6-5.13-5.6A5.06,5.06,0,0,0,13,320a5.14,5.14,0,0,0,5.2,5.2A5.21,5.21,0,0,0,23,321.76H21.63A3.73,3.73,0,0,1,18.19,324a3.81,3.81,0,0,1-3.83-3.49Zm-1.33-1.21H14.39a3.76,3.76,0,0,1,3.73-3.17A3.82,3.82,0,0,1,21.94,319.31Zm4.5,5.69V311.7H25.11V325Zm3.61,0V311.7H28.71V325ZM41,325v-9.85H39.66v5.06c0,2.68-1.26,3.8-3.06,3.8s-3-1-3-3.55v-5.31H32.32v5.31c0,3.44,1.67,4.77,4.17,4.77a3.22,3.22,0,0,0,3.17-1.76V325Zm12.09-2.9H51.57a3.94,3.94,0,1,1-3.42-6,3.85,3.85,0,0,1,3.42,2h1.49a5.09,5.09,0,1,0,0,4Zm3.18,2.9v-9.85H54.92V325Zm0-10.93v-2.26H54.92v2.26ZM68.59,325V311.7H67.26v5a4.92,4.92,0,0,0-3.87-1.8,5.11,5.11,0,0,0-5.24,5.17,5.16,5.16,0,0,0,5.36,5.14,4.16,4.16,0,0,0,3.75-2V325Zm-1.28-4.95a3.91,3.91,0,1,1-7.81,0,3.85,3.85,0,0,1,3.85-3.89A3.94,3.94,0,0,1,67.31,320.05ZM79.52,325v-9.85H78.19v5.06c0,2.68-1.26,3.8-3.06,3.8s-2.95-1-2.95-3.55v-5.31H70.85v5.31c0,3.44,1.67,4.77,4.17,4.77a3.22,3.22,0,0,0,3.17-1.76V325Zm16.9,0v-5.85c0-2.86-1.62-4.25-3.87-4.25a3.71,3.71,0,0,0-3.42,1.91,3.42,3.42,0,0,0-3.23-1.89,3.1,3.1,0,0,0-2.77,1.37v-1.14H81.8V325h1.33v-5.74c0-2,1-3.12,2.65-3.12s2.66.92,2.66,3.12V325h1.33v-5.71c0-2.23,1.14-3.16,2.7-3.16s2.61.95,2.61,3.16V325Z" transform="translate(-0.32 -0.5)"/><path d="M410.52,329.1a5.09,5.09,0,0,0-5.18-5.18,4.43,4.43,0,0,0-3.87,1.93v-1.7h-1.34v13.31h1.34v-5.15a4.42,4.42,0,0,0,3.83,1.92A5.12,5.12,0,0,0,410.52,329.1Zm-1.35,0A3.81,3.81,0,0,1,405.3,333a3.94,3.94,0,1,1,3.87-3.91Zm13.13,0a5,5,0,0,0-5.11-5.18,5.16,5.16,0,1,0,.11,10.31A4.92,4.92,0,0,0,422.3,329.1Zm-1.35,0a3.66,3.66,0,0,1-3.69,3.89,3.94,3.94,0,1,1,3.69-3.89Zm12,4.88v-5.17c0-3.45-1.75-4.91-4.21-4.91a3.9,3.9,0,0,0-3.17,1.51v-1.28H424.2V334h1.33v-5.42c0-2.41,1.22-3.44,3-3.44s3,1,3,3.69V334Zm7.64-2.83a2.54,2.54,0,0,0-1.71-2.52c-1.49-.61-1.57-.64-1.86-.79a1.38,1.38,0,0,1-.9-1.29,1.42,1.42,0,0,1,1.43-1.43,1.33,1.33,0,0,1,1.44,1.44h1.35a2.62,2.62,0,0,0-2.78-2.66,2.7,2.7,0,0,0-2.79,2.77,2.38,2.38,0,0,0,.74,1.77c.4.37.43.39,1.82,1s1.91.9,1.91,1.89a1.63,1.63,0,0,1-1.66,1.71,1.75,1.75,0,0,1-1.85-1.91h-1.31a3,3,0,0,0,3.16,3.13A2.91,2.91,0,0,0,440.55,331.17Z" transform="translate(-0.32 -0.5)"/><path class="cls-17" d="M446.3,77.7c0-3.1-1.64-4.48-5.7-4.48h-4.08V88H438V82h2.84C444.86,82,446.3,80.5,446.3,77.7Zm-1.5,0c0,2.14-1.12,3-4.06,3H438V74.56h2.1C442.92,74.56,444.8,74.7,444.8,77.7ZM458.94,88V77.06h-1.48V79a4.86,4.86,0,0,0-4.32-2.2,5.73,5.73,0,1,0,.1,11.46,4.72,4.72,0,0,0,4.22-2.18V88Zm-1.48-5.52a4.26,4.26,0,0,1-4.2,4.42,4.34,4.34,0,0,1-4.38-4.44,4.29,4.29,0,0,1,4.3-4.3A4.24,4.24,0,0,1,457.46,82.48ZM466,78.26V76.8a3.21,3.21,0,0,0-3.11,1.82V77.06h-1.48V88h1.48V81.62A3,3,0,0,1,466,78.26ZM469,88V77.06h-1.48V88Zm0-12.14V73.34h-1.48v2.52ZM482.43,83c0-3.88-2.45-6.22-5.7-6.22a5.63,5.63,0,0,0-5.68,5.68,5.7,5.7,0,0,0,11.1,1.92h-1.54a4.15,4.15,0,0,1-3.81,2.5A4.21,4.21,0,0,1,472.54,83ZM481,81.68h-8.37a4.16,4.16,0,0,1,4.13-3.52A4.24,4.24,0,0,1,481,81.68Zm8.31-3.28V77.06H486.8V73.22h-1.48v3.84H483V78.4h2.37V88h1.48V78.4ZM501.38,88V77.06H499.9V79a4.86,4.86,0,0,0-4.32-2.2,5.73,5.73,0,1,0,.1,11.46,4.72,4.72,0,0,0,4.22-2.18V88Zm-1.48-5.52a4.26,4.26,0,0,1-4.2,4.42,4.34,4.34,0,0,1-4.38-4.44,4.29,4.29,0,0,1,4.3-4.3A4.24,4.24,0,0,1,499.9,82.48ZM505.38,88V73.22H503.9V88Zm9.55,0V73.22h-1.48V88Zm13.52-5.44a5.54,5.54,0,0,0-5.68-5.76,5.73,5.73,0,1,0,.12,11.46A5.47,5.47,0,0,0,528.45,82.56Zm-1.5,0a4.08,4.08,0,0,1-4.1,4.32,4.38,4.38,0,1,1,4.1-4.32Zm15.15-.06a5.67,5.67,0,0,0-5.76-5.72,5,5,0,0,0-4.3,2.14V73.22h-1.48V88H532V86.12a5,5,0,0,0,4.28,2.14A5.63,5.63,0,0,0,542.1,82.52Zm-1.5,0a4.28,4.28,0,0,1-4.32,4.42,4.39,4.39,0,0,1-4.34-4.42,4.3,4.3,0,0,1,4.36-4.32A4.21,4.21,0,0,1,540.6,82.48Zm14.55.54c0-3.88-2.46-6.22-5.7-6.22a5.63,5.63,0,0,0-5.68,5.68,5.72,5.72,0,0,0,5.78,5.78,5.79,5.79,0,0,0,5.32-3.86h-1.54a4.15,4.15,0,0,1-3.82,2.5A4.23,4.23,0,0,1,545.25,83Zm-1.48-1.34h-8.38a4.17,4.17,0,0,1,4.14-3.52A4.24,4.24,0,0,1,553.67,81.68Z" transform="translate(-0.32 -0.5)"/><path class="cls-17" d="M596.5,208.62a7.81,7.81,0,1,0-7.8,7.64A7.76,7.76,0,0,0,596.5,208.62Zm-1.5,0a6.31,6.31,0,1,1-6.3-6.32A6.33,6.33,0,0,1,595,208.64Zm14.54,4.14h-1.68a4.38,4.38,0,1,1-3.8-6.62,4.25,4.25,0,0,1,3.8,2.22h1.66a5.84,5.84,0,1,0-5.34,7.88C606.44,216.26,608.22,215.28,609.54,212.78Zm13,0h-1.68a4.38,4.38,0,1,1-3.8-6.62,4.25,4.25,0,0,1,3.8,2.22h1.66a5.84,5.84,0,1,0-5.34,7.88C619.39,216.26,621.17,215.28,622.49,212.78ZM626,216V205.06h-1.48V216Zm0-12.14v-2.52h-1.48v2.52Zm14.07,6.7a5.66,5.66,0,0,0-5.76-5.76,5,5,0,0,0-4.3,2.14v-1.88h-1.49v14.78H630v-5.72a4.91,4.91,0,0,0,4.25,2.14A5.69,5.69,0,0,0,640.09,210.56Zm-1.5,0a4.34,4.34,0,1,1-8.67-.08,4.34,4.34,0,1,1,8.67.08Zm5.07,5.44V205.06h-1.48V216Zm0-12.14v-2.52h-1.48v2.52Zm7.8,2.54v-1.34H649v-3.84h-1.48v3.84h-2.36v1.34h2.36V216H649v-9.6Zm12.13,9.6V205.06h-1.48V207a4.86,4.86,0,0,0-4.32-2.2,5.73,5.73,0,1,0,.1,11.46,4.72,4.72,0,0,0,4.22-2.18V216Zm-1.48-5.52a4.26,4.26,0,0,1-4.2,4.42,4.34,4.34,0,0,1-4.38-4.44,4.29,4.29,0,0,1,4.3-4.3A4.24,4.24,0,0,1,662.11,210.48Zm5.47,5.52V201.22H666.1V216Zm-84.84,29V230.22h-1.48V245Zm13.52-5.44a5.54,5.54,0,0,0-5.68-5.76,5.73,5.73,0,1,0,.12,11.46A5.47,5.47,0,0,0,596.26,239.56Zm-1.5,0a4.08,4.08,0,0,1-4.1,4.32,4.38,4.38,0,1,1,4.1-4.32Zm15.15-.06a5.67,5.67,0,0,0-5.76-5.72,5,5,0,0,0-4.3,2.14v-5.72h-1.48V245h1.48v-1.88a5,5,0,0,0,4.28,2.14A5.63,5.63,0,0,0,609.91,239.52Zm-1.5,0a4.28,4.28,0,0,1-4.32,4.42,4.39,4.39,0,0,1-4.34-4.42,4.3,4.3,0,0,1,4.36-4.32A4.21,4.21,0,0,1,608.41,239.48ZM623,240c0-3.88-2.46-6.22-5.7-6.22a5.63,5.63,0,0,0-5.68,5.68,5.72,5.72,0,0,0,5.78,5.78,5.79,5.79,0,0,0,5.32-3.86h-1.54a4.15,4.15,0,0,1-3.82,2.5,4.23,4.23,0,0,1-4.26-3.88Zm-1.48-1.34H613.1a4.17,4.17,0,0,1,4.14-3.52A4.24,4.24,0,0,1,621.48,238.68Z" transform="translate(-0.32 -0.5)"/><path class="cls-17" d="M321.87,346.59v-.94H316.1v.94h2.36V356h1v-9.41Zm7.95,5.92c0-2.71-1.72-4.35-4-4.35a3.94,3.94,0,0,0-4,4,4,4,0,0,0,7.77,1.34h-1.08a2.9,2.9,0,0,1-2.67,1.75,3,3,0,0,1-3-2.72Zm-1-.93h-5.86a2.92,2.92,0,0,1,2.89-2.47A3,3,0,0,1,328.78,351.58ZM342.62,356v-4.55c0-2.23-1.26-3.3-3-3.3a2.88,2.88,0,0,0-2.66,1.48,2.65,2.65,0,0,0-2.51-1.47,2.4,2.4,0,0,0-2.15,1.06v-.88h-1V356h1v-4.47c0-1.52.77-2.42,2.06-2.42s2.07.72,2.07,2.42V356h1v-4.44c0-1.73.88-2.46,2.1-2.46s2,.74,2,2.46V356Zm10.05-3.81a4,4,0,0,0-4-4,3.46,3.46,0,0,0-3,1.5v-1.32h-1v10.35h1v-4a3.45,3.45,0,0,0,3,1.5A4,4,0,0,0,352.67,352.19Zm-1.05,0a3,3,0,1,1-6.06-.05,3,3,0,1,1,6.06.05Zm10.22,0a3.87,3.87,0,0,0-4-4,4,4,0,1,0,.09,8A3.83,3.83,0,0,0,361.84,352.19Zm-1,0a2.85,2.85,0,0,1-2.87,3,3.06,3.06,0,1,1,2.87-3Zm5.73-3v-1a2.23,2.23,0,0,0-2.17,1.27v-1.09h-1V356h1v-4.47A2.13,2.13,0,0,1,366.52,349.18ZM374.9,356v-7.66h-1v1.36a3.4,3.4,0,0,0-3-1.54,4,4,0,1,0,.07,8,3.3,3.3,0,0,0,2.95-1.52V356Zm-1-3.86a3,3,0,0,1-2.94,3.09,3.06,3.06,0,0,1-.06-6.12A3,3,0,0,1,373.86,352.14Zm3.83,3.86V345.65h-1V356Zm-59.77,20V365.65h-1V376Zm9.47-3.81a3.88,3.88,0,0,0-4-4,4,4,0,1,0,.08,8A3.83,3.83,0,0,0,327.39,372.19Zm-1.06,0a2.85,2.85,0,0,1-2.87,3,3.06,3.06,0,1,1,2.87-3Zm10.61,0a4,4,0,0,0-4-4,3.51,3.51,0,0,0-3,1.5v-4h-1V376h1v-1.32a3.52,3.52,0,0,0,3,1.5A3.94,3.94,0,0,0,336.94,372.16Zm-1.05,0a3,3,0,0,1-3,3.09,3.07,3.07,0,0,1-3-3.09,3,3,0,0,1,3.05-3A3,3,0,0,1,335.89,372.14Zm10.18.37c0-2.71-1.72-4.35-4-4.35a3.94,3.94,0,0,0-4,4,4,4,0,0,0,4,4,4,4,0,0,0,3.73-2.7H344.8a2.9,2.9,0,0,1-2.67,1.75,3,3,0,0,1-3-2.72Zm-1-.93h-5.87a2.92,2.92,0,0,1,2.9-2.47A3,3,0,0,1,345,371.58Z" transform="translate(-0.32 -0.5)"/><line class="cls-15" x1="72.57" y1="297.27" x2="265.57" y2="206.27"/></svg>